<svg width="361" height="346" viewBox="0 0 361 346" fill="none" xmlns="http://www.w3.org/2000/svg">
<g id="choc-on" clip-path="url(#clip0_15_583)">
<path id="Vector" d="M304.33 34.74H16.3301V43.61H304.33V34.74Z" fill="#F2C53D"/>
<path id="Vector_2" d="M304.33 52.49H16.3301V61.36H304.33V52.49Z" fill="#F2C53D"/>
<path id="Vector_3" d="M304.33 70.23H16.3301V79.1H304.33V70.23Z" fill="#F2C53D"/>
<path id="Vector_4" d="M304.33 87.97H16.3301V96.84H304.33V87.97Z" fill="#F2C53D"/>
<path id="Vector_5" d="M304.33 105.72H16.3301V114.59H304.33V105.72Z" fill="#F2C53D"/>
<path id="Vector_6" d="M304.33 123.46H16.3301V132.33H304.33V123.46Z" fill="#F2C53D"/>
<path id="Vector_7" d="M304.33 141.2H16.3301V150.07H304.33V141.2Z" fill="#F2C53D"/>
<path id="Vector_8" d="M304.33 158.95H16.3301V167.82H304.33V158.95Z" fill="#F2C53D"/>
<path id="Vector_9" d="M304.33 176.69H16.3301V185.56H304.33V176.69Z" fill="#F2C53D"/>
<path id="Vector_10" d="M304.33 194.43H16.3301V203.3H304.33V194.43Z" fill="#F2C53D"/>
<path id="Vector_11" d="M304.33 229.92H16.3301V238.79H304.33V229.92Z" fill="#F2C53D"/>
<path id="Vector_12" d="M304.33 212.18H16.3301V221.05H304.33V212.18Z" fill="#F2C53D"/>
<path id="Vector_13" d="M304.33 247.66H16.3301V256.53H304.33V247.66Z" fill="#F2C53D"/>
<path id="Vector_14" d="M304.33 265.41H16.3301V274.28H304.33V265.41Z" fill="#F2C53D"/>
<path id="Vector_15" d="M304.33 283.15H16.3301V292.02H304.33V283.15Z" fill="#F2C53D"/>
<path id="Vector_16" d="M304.33 300.89H16.3301V309.76H304.33V300.89Z" fill="#F2C53D"/>
<path id="Vector_17" d="M304.33 318.64H16.3301V327.51H304.33V318.64Z" fill="#F2C53D"/>
<path id="Vector_18" d="M357.98 229.92C349.32 265.32 317.38 291.59 279.31 291.59C241.24 291.59 209.3 265.32 200.63 229.92H357.98V229.92Z" fill="#F27830"/>
<path id="Vector_19" d="M360.31 210.58C360.31 214.13 360.08 217.62 359.64 221.05H198.97C198.53 217.62 198.3 214.13 198.3 210.58C198.3 198.48 200.95 187 205.72 176.69H352.9C357.66 187 360.31 198.48 360.31 210.58V210.58Z" fill="#F27830"/>
<path id="Vector_20" d="M348.11 167.82H210.5C224.79 144.85 250.27 129.57 279.31 129.57C308.35 129.57 333.82 144.85 348.11 167.82Z" fill="#F27830"/>
<path id="Vector_21" d="M73.78 84.03C73.78 104.4 57.27 120.92 36.89 120.92C16.51 120.92 0 104.4 0 84.03C0 79.15 0.95 74.49 2.67 70.23H71.11C72.83 74.49 73.78 79.15 73.78 84.03Z" fill="#4590BF"/>
<path id="Vector_22" d="M65.99 61.36H7.79004C14.53 52.7 25.06 47.13 36.89 47.13C48.72 47.13 59.25 52.7 65.99 61.36V61.36Z" fill="#4590BF"/>
<path id="Vector_23" d="M320.4 83.65H286.51V167.83H320.4V83.65Z" fill="#4590BF"/>
<path id="Vector_24" d="M303.45 110.25C310.795 110.25 316.75 104.295 316.75 96.95C316.75 89.6046 310.795 83.65 303.45 83.65C296.105 83.65 290.15 89.6046 290.15 96.95C290.15 104.295 296.105 110.25 303.45 110.25Z" fill="#F299B9"/>
<path id="Vector_25" d="M36.8101 265.41L16.3301 300.89H57.2901L36.8101 265.41Z" fill="#D99543"/>
<path id="Vector_26" d="M229.08 86.58L232.38 98.44L77.9801 96.96L63.1201 43.56C62.3201 40.7 63.9901 37.73 66.8401 36.94L136.31 17.61C138.29 17.06 140.34 18.23 140.9 20.22L154.42 68.83C155.11 71.29 157.64 72.74 160.09 72.06L183.5 65.55C185.98 64.86 188.55 66.32 189.24 68.82L194.6 88.1C195.21 90.3 197.48 91.59 199.66 90.98L224.59 84.04C226.52 83.5 228.53 84.64 229.07 86.59L229.08 86.58Z" fill="#603813"/>
<path id="Vector_27" d="M180.652 73.2058L87.3761 97.7459C85.2504 98.3052 83.9805 100.482 84.5397 102.608L93.9767 138.477C94.5359 140.603 96.7126 141.873 98.8383 141.313L192.114 116.773C194.24 116.214 195.51 114.037 194.951 111.912L185.514 76.0422C184.954 73.9164 182.778 72.6466 180.652 73.2058Z" fill="#42210B"/>
<path id="Vector_28" d="M285.07 308.97L152.91 345.74C150.22 346.49 147.44 344.92 146.69 342.24L81.3401 107.34L206.7 177.61C211.03 180.05 216.5 177.72 217.74 172.9L234.52 108.49L288.57 302.76C289.32 305.45 287.75 308.22 285.07 308.97V308.97Z" fill="#D94848"/>
<path id="Vector_29" d="M234.52 108.49L217.74 172.9C216.5 177.72 211.03 180.05 206.7 177.61L81.34 107.34L77.99 96.98L232.17 98.26L234.52 108.49V108.49Z" fill="#F2F2F2"/>
<path id="Vector_30" d="M132.624 26.1915L72.4513 42.0223C70.6567 42.4944 69.5847 44.332 70.0568 46.1266L80.9796 87.6438C81.4518 89.4384 83.2893 90.5105 85.0839 90.0383L145.256 74.2075C147.051 73.7354 148.123 71.8978 147.651 70.1032L136.728 28.586C136.256 26.7914 134.418 25.7193 132.624 26.1915Z" fill="#42210B"/>
<path id="Vector_31" d="M195.46 6.60995L196.78 22.2799C196.89 23.5999 198.42 24.2699 199.47 23.4499L210.73 14.6399C211.45 14.0699 211.58 13.0299 211.02 12.3099L201.95 0.639948C201.27 -0.230052 199.94 -0.210052 199.29 0.679948L195.78 5.47995C195.54 5.79995 195.43 6.19995 195.47 6.59995L195.46 6.60995Z" fill="#603813"/>
<path id="Vector_32" d="M165.83 16.5999L162.75 27.1199C162.29 28.6799 163.8 30.0999 165.33 29.5399L174.72 26.1499C176.04 25.6699 176.46 24.0199 175.53 22.9699L169.22 15.8399C168.18 14.6699 166.27 15.0999 165.83 16.5999V16.5999Z" fill="#603813"/>
<path id="Vector_33" d="M300.372 199.229L46.1641 181.007L40.4722 260.414L294.68 278.635L300.372 199.229Z" fill="#B3B3B3"/>
<path id="Vector_34" d="M54.8299 206.45C56.4399 206.57 57.2199 207.4 57.1299 208.69L56.7199 214.36C56.6699 215.01 56.5999 215.97 54.1599 215.8C52.8699 215.71 52.8199 215.57 52.1099 215.52C45.9899 215.08 45.1899 226.23 45.0199 228.56C44.8599 230.75 44.0699 242.75 49.8699 243.16C50.7099 243.22 50.7199 243.09 52.1999 243.2C54.6499 243.38 54.4799 245.7 54.4399 246.34L54.1299 250.66C54.0099 252.27 53.1199 252.99 51.5099 252.87C42.3599 252.21 32.0199 247.26 33.4299 227.6C34.7499 209.23 45.6799 205.8 54.8399 206.45H54.8299Z" fill="black"/>
<path id="Vector_35" d="M73.1401 221.37C72.9734 223.737 74.0701 225.003 76.4301 225.17C78.7901 225.337 80.0535 224.303 80.2201 222.07L80.8101 213.82C80.9901 211.24 81.1801 208.66 85.0501 208.94L88.2701 209.17C92.1401 209.45 91.9501 212.03 91.7701 214.61L89.2301 250.07C89.0401 252.65 88.8601 255.23 84.9901 254.95L81.7701 254.72C77.9001 254.44 78.0901 251.86 78.2701 249.29L78.9601 239.62C79.2701 235.37 79.0301 235.09 75.7401 234.85L75.0301 234.8C72.9701 234.65 72.1901 234.6 71.9601 237.88L71.8701 239.1L71.1801 248.77C70.9901 251.35 70.8101 253.93 66.9401 253.65L63.7201 253.42C59.8501 253.14 60.0401 250.56 60.2201 247.98L62.7601 212.52C62.9401 209.94 63.1301 207.36 67.0001 207.64L70.2201 207.87C74.0901 208.15 73.9001 210.73 73.7201 213.31L73.1401 221.37V221.37Z" fill="black"/>
<path id="Vector_36" d="M96.7399 227.53C97.4799 217.15 98.9999 209.61 112.6 210.59C125.56 211.52 125.93 219.06 125.19 229.31C124.91 233.18 124.83 237 124.59 240.41C123.86 250.6 121.72 257.89 109.27 257C95.6699 256.02 95.2399 248.35 95.9799 238.03C96.0999 236.29 96.2899 234.55 96.4199 232.75C96.5499 230.94 96.6099 229.2 96.7299 227.52L96.7399 227.53ZM108.15 222.91L106.69 243.22C106.55 245.15 106.37 247.73 109.59 247.96C112.81 248.19 113 245.61 113.14 243.68L114.6 223.37C114.72 221.76 114.85 219.82 111.63 219.59C108.41 219.36 108.27 221.29 108.15 222.91Z" fill="black"/>
<path id="Vector_37" d="M151.74 213.39C153.35 213.51 154.13 214.34 154.04 215.63L153.63 221.3C153.58 221.95 153.51 222.91 151.07 222.74C149.78 222.65 149.73 222.51 149.02 222.46C142.9 222.02 142.1 233.17 141.93 235.5C141.77 237.69 140.98 249.69 146.78 250.1C147.62 250.16 147.63 250.03 149.11 250.14C151.56 250.32 151.39 252.64 151.35 253.28L151.04 257.6C150.92 259.21 150.03 259.93 148.42 259.81C139.27 259.15 128.93 254.2 130.34 234.54C131.66 216.17 142.59 212.74 151.75 213.39H151.74Z" fill="black"/>
<path id="Vector_38" d="M158.51 231.96C159.25 221.58 160.77 214.04 174.37 215.02C187.33 215.95 187.7 223.49 186.96 233.74C186.68 237.61 186.6 241.43 186.36 244.84C185.63 255.03 183.49 262.33 171.04 261.43C157.44 260.45 157.02 252.78 157.75 242.46C157.87 240.72 158.06 238.98 158.19 237.18C158.32 235.37 158.38 233.63 158.5 231.95L158.51 231.96ZM169.92 227.34L168.46 247.65C168.32 249.58 168.14 252.16 171.36 252.39C174.58 252.62 174.77 250.04 174.91 248.11L176.37 227.8C176.49 226.19 176.62 224.25 173.4 224.02C170.18 223.79 170.04 225.72 169.92 227.34V227.34Z" fill="black"/>
<path id="Vector_39" d="M210.87 254.57C213.58 254.76 213.8 256.21 213.66 258.14L213.6 258.98C213.41 261.56 213.23 264.14 209.36 263.86L194.79 262.82C190.92 262.54 191.11 259.96 191.29 257.38L193.83 221.92C194.01 219.34 194.2 216.76 198.07 217.04L201.29 217.27C205.16 217.55 204.97 220.13 204.79 222.71L202.8 250.5C202.69 252.05 202.55 254.05 204.54 254.25C207.96 254.5 209.51 254.48 210.87 254.57V254.57Z" fill="black"/>
<path id="Vector_40" d="M250.47 263.56C250.26 266.53 248.24 266.64 244.57 266.38L241.15 266.13C237.15 265.84 239.84 256.32 237.27 256.13L232.11 255.76C229.53 255.57 230.32 265.35 226.45 265.07L223.42 264.85C220.07 264.61 218.09 264.21 218.3 261.24C218.58 257.37 220.37 254.07 227.56 224.32C228.31 221.13 229.73 219.29 232.31 219.48L242.24 220.19C244.82 220.37 245.97 222.4 246.38 225.67C248.87 252.42 250.75 259.68 250.47 263.55V263.56ZM232.94 245.07C232.87 246.1 233.32 246.13 235.38 246.28C237.38 246.42 237.89 246.46 237.96 245.49C237.98 245.23 238 244.91 237.96 244.45C237.64 238.08 237.94 230.26 236.52 230.16C235.17 230.06 234.16 237.77 233.06 244.1C232.97 244.48 232.94 244.8 232.93 245.06L232.94 245.07Z" fill="black"/>
<path id="Vector_41" d="M268.05 263.33C267.75 265.77 267.46 268.02 263.84 267.76L260.62 267.53C256.75 267.25 256.94 264.67 257.12 262.09L259.23 232.63C259.35 231.02 259.05 230.61 257.7 230.51C257.25 230.48 256.6 230.5 255.83 230.44C254.22 230.32 252.95 229.97 253.06 228.43L253.45 222.95C253.54 221.66 255.01 221.12 256.62 221.23L274.41 222.51C276.02 222.63 277.39 223.37 277.3 224.66L276.91 230.14C276.8 231.69 275.49 231.85 273.88 231.74C273.43 231.71 272.85 231.6 272.08 231.55C270.47 231.43 270.31 231.81 270.2 233.42L268.06 263.33H268.05Z" fill="black"/>
<path id="Vector_42" d="M291.51 257.89C291.54 259.32 292.78 260.12 294.07 260.21C297.74 260.47 298.98 260.43 300.33 260.53C303.04 260.72 303.82 261.56 303.68 263.49L303.36 268C303.22 269.93 302.53 270.53 300.6 270.39L283.58 269.17C279.71 268.89 279.99 265.02 280.08 263.73L282.62 228.27C282.8 225.69 282.99 223.11 286.86 223.39L303.49 224.58C305.1 224.7 306.47 225.44 306.38 226.73L305.99 232.21C305.88 233.76 304.59 233.73 302.97 233.61C300.46 233.43 298.47 233.16 296.85 233.04C293.3 232.79 293.21 234.07 293.06 236.14C292.76 240.33 292.68 241.43 295.9 241.66C299.9 241.95 300.55 241.86 302.03 241.97C304.29 242.13 304.25 244.4 304.2 245.11L303.9 249.24C303.76 251.17 302.4 251.21 300.79 251.09C297.5 250.85 295.45 250.58 294.09 250.48C292.03 250.33 291.96 251.23 291.81 253.36L291.49 257.87L291.51 257.89Z" fill="black"/>
</g>
<defs>
<clipPath id="clip0_15_583">
<rect width="360.31" height="345.93" fill="white"/>
</clipPath>
</defs>
</svg>
