<svg width="361" height="346" viewBox="0 0 361 346" fill="none" xmlns="http://www.w3.org/2000/svg">
<g id="chocolate" clip-path="url(#clip0_6_464)">
<g id="chocbkg">
<path id="Vector" d="M304.33 34.75H16.33V43.62H304.33V34.75Z" fill="#F2C53D"/>
<path id="Vector_2" d="M304.33 52.5H16.33V61.37H304.33V52.5Z" fill="#F2C53D"/>
<path id="Vector_3" d="M304.33 70.24H16.33V79.11H304.33V70.24Z" fill="#F2C53D"/>
<path id="Vector_4" d="M304.33 87.98H16.33V96.85H304.33V87.98Z" fill="#F2C53D"/>
<path id="Vector_5" d="M304.33 105.73H16.33V114.6H304.33V105.73Z" fill="#F2C53D"/>
<path id="Vector_6" d="M304.33 123.47H16.33V132.34H304.33V123.47Z" fill="#F2C53D"/>
<path id="Vector_7" d="M304.33 141.21H16.33V150.08H304.33V141.21Z" fill="#F2C53D"/>
<path id="Vector_8" d="M304.33 158.96H16.33V167.83H304.33V158.96Z" fill="#F2C53D"/>
<path id="Vector_9" d="M304.33 176.7H16.33V185.57H304.33V176.7Z" fill="#F2C53D"/>
<path id="Vector_10" d="M304.33 194.44H16.33V203.31H304.33V194.44Z" fill="#F2C53D"/>
<path id="Vector_11" d="M304.33 229.93H16.33V238.8H304.33V229.93Z" fill="#F2C53D"/>
<path id="Vector_12" d="M304.33 212.19H16.33V221.06H304.33V212.19Z" fill="#F2C53D"/>
<path id="Vector_13" d="M304.33 247.67H16.33V256.54H304.33V247.67Z" fill="#F2C53D"/>
<path id="Vector_14" d="M304.33 265.42H16.33V274.29H304.33V265.42Z" fill="#F2C53D"/>
<path id="Vector_15" d="M304.33 283.16H16.33V292.03H304.33V283.16Z" fill="#F2C53D"/>
<path id="Vector_16" d="M304.33 300.9H16.33V309.77H304.33V300.9Z" fill="#F2C53D"/>
<path id="Vector_17" d="M304.33 318.65H16.33V327.52H304.33V318.65Z" fill="#F2C53D"/>
<path id="Vector_18" d="M357.98 229.93C349.32 265.33 317.38 291.6 279.31 291.6C241.24 291.6 209.3 265.33 200.63 229.93H357.98Z" fill="#F27830"/>
<path id="Vector_19" d="M360.31 210.59C360.31 214.14 360.08 217.63 359.64 221.06H198.97C198.53 217.63 198.3 214.14 198.3 210.59C198.3 198.49 200.95 187.01 205.72 176.7H352.9C357.66 187.01 360.31 198.49 360.31 210.59Z" fill="#F27830"/>
<path id="Vector_20" d="M348.11 167.83H210.5C224.79 144.86 250.27 129.58 279.31 129.58C308.35 129.58 333.82 144.86 348.11 167.83Z" fill="#F27830"/>
<path id="Vector_21" d="M73.78 84.04C73.78 104.41 57.27 120.93 36.89 120.93C16.51 120.93 0 104.41 0 84.04C0 79.16 0.95 74.5 2.67 70.24H71.11C72.83 74.5 73.78 79.16 73.78 84.04Z" fill="#4590BF"/>
<path id="Vector_22" d="M65.99 61.37H7.78998C14.53 52.71 25.06 47.14 36.89 47.14C48.72 47.14 59.25 52.71 65.99 61.37Z" fill="#4590BF"/>
<path id="Vector_23" d="M320.4 83.65H286.51V167.83H320.4V83.65Z" fill="#4590BF"/>
<path id="Vector_24" d="M303.45 110.26C310.795 110.26 316.75 104.305 316.75 96.96C316.75 89.6146 310.795 83.66 303.45 83.66C296.105 83.66 290.15 89.6146 290.15 96.96C290.15 104.305 296.105 110.26 303.45 110.26Z" fill="#F299B9"/>
<path id="Vector_25" d="M36.81 265.42L16.33 300.9H57.29L36.81 265.42Z" fill="#D99543"/>
</g>
<g id="chocbaroff">
<path id="Vector_26" d="M205.71 4.38996L231.69 97.77L78.49 96.55L63.83 43.87C63.04 41.04 64.7 38.11 67.53 37.32L199.16 0.69996C201.99 -0.0900404 204.92 1.56996 205.71 4.39996V4.38996Z" fill="#603813" stroke="#603813" stroke-miterlimit="10"/>
<path id="Vector_27" d="M132.103 24.3604L71.6208 40.2726C69.9117 40.7223 68.8906 42.4723 69.3403 44.1815L79.1742 81.5595C79.6238 83.2687 81.3739 84.2897 83.083 83.84L143.565 67.9278C145.274 67.4781 146.295 65.7281 145.845 64.0189L136.012 26.6409C135.562 24.9317 133.812 23.9107 132.103 24.3604Z" fill="#42210B"/>
<path id="Vector_28" d="M197.569 7.14112L144.302 21.1553C142.694 21.5783 141.734 23.2244 142.157 24.8321L152.087 62.5776C152.51 64.1853 154.156 65.1457 155.764 64.7227L209.031 50.7085C210.639 50.2856 211.599 48.6394 211.176 47.0318L201.246 9.28622C200.823 7.67855 199.177 6.71815 197.569 7.14112Z" fill="#42210B"/>
<path id="Vector_29" d="M210.412 57.8085L138.847 76.6366C136.983 77.127 135.869 79.0356 136.36 80.8997L146.046 117.717C146.536 119.581 148.445 120.694 150.309 120.204L221.874 101.376C223.738 100.886 224.851 98.9769 224.361 97.1128L214.675 60.2957C214.184 58.4316 212.276 57.3181 210.412 57.8085Z" fill="#42210B"/>
<path id="Vector_30" d="M126.251 79.9487L85.5074 90.6679C84.0547 91.0501 83.1868 92.5377 83.569 93.9905L93.6471 132.297C94.0293 133.75 95.5169 134.618 96.9697 134.235L137.713 123.516C139.166 123.134 140.034 121.646 139.652 120.194L129.573 81.8871C129.191 80.4343 127.704 79.5664 126.251 79.9487Z" fill="#42210B"/>
<path id="Vector_31" d="M285.22 308.98L153.06 345.75C150.38 346.5 147.59 344.93 146.85 342.24L81.49 107.35L206.85 177.61C211.18 180.05 216.65 177.72 217.89 172.91L234.68 108.5L288.73 302.77C289.48 305.45 287.9 308.23 285.22 308.98Z" fill="#D94848"/>
<path id="Vector_32" d="M234.68 108.5L217.89 172.91C216.65 177.72 211.18 180.05 206.85 177.61L81.49 107.35L78.15 96.99L232.33 98.27L234.68 108.5Z" fill="#F2F2F2"/>
</g>
<g id="chocbaron">
<path id="Vector_33" d="M227.94 86.4999L231.2 98.2099L78 96.9899L63.34 44.2999C62.55 41.4799 64.21 38.5499 67.04 37.7599L136 18.5699C137.96 18.0199 140 19.1699 140.55 21.1399L153.89 69.0999C154.57 71.5299 157.08 72.9499 159.51 72.2799L182.75 65.8099C185.21 65.1299 187.76 66.5599 188.44 69.0199L193.73 88.0399C194.33 90.2099 196.58 91.4799 198.75 90.8699L223.5 83.9899C225.42 83.4599 227.41 84.5799 227.95 86.4999H227.94Z" fill="#603813"/>
<path id="Vector_34" d="M180.652 73.2057L87.3762 97.7458C85.2504 98.305 83.9805 100.482 84.5398 102.607L93.9767 138.477C94.536 140.603 96.7126 141.872 98.8384 141.313L192.114 116.773C194.24 116.214 195.51 114.037 194.951 111.911L185.514 76.0421C184.954 73.9163 182.778 72.6464 180.652 73.2057Z" fill="#42210B"/>
<path id="Vector_35" d="M285.07 308.98L152.91 345.75C150.22 346.5 147.44 344.93 146.69 342.25L81.34 107.35L206.7 177.62C211.03 180.06 216.5 177.73 217.74 172.91L234.52 108.5L288.57 302.77C289.32 305.46 287.75 308.23 285.07 308.98Z" fill="#D94848"/>
<path id="Vector_36" d="M234.52 108.5L217.74 172.91C216.5 177.73 211.03 180.06 206.7 177.62L81.34 107.35L77.99 96.99L232.17 98.27L234.52 108.5Z" fill="#F2F2F2"/>
<path id="Vector_37" d="M132.626 26.201L72.4539 42.0318C70.6593 42.504 69.5872 44.3415 70.0594 46.1361L80.9822 87.6533C81.4543 89.4479 83.2919 90.52 85.0865 90.0479L145.259 74.217C147.053 73.7449 148.126 71.9073 147.653 70.1127L136.731 28.5955C136.258 26.8009 134.421 25.7288 132.626 26.201Z" fill="#42210B"/>
<path id="Vector_38" d="M204.8 31.78L206.12 47.45C206.23 48.77 207.76 49.44 208.81 48.62L220.07 39.81C220.79 39.24 220.92 38.2 220.36 37.48L211.28 25.81C210.6 24.94 209.27 24.96 208.62 25.85L205.11 30.65C204.87 30.97 204.76 31.37 204.8 31.77V31.78Z" fill="#603813"/>
<path id="Vector_39" d="M165.83 16.61L162.75 27.1299C162.29 28.6899 163.8 30.1099 165.33 29.5499L174.72 26.1599C176.04 25.6799 176.46 24.0299 175.53 22.9799L169.22 15.85C168.18 14.68 166.27 15.11 165.83 16.61Z" fill="#603813"/>
</g>
<g id="chocolatetitle">
<path id="Vector_40" d="M300.371 199.239L46.1633 181.017L40.4714 260.424L294.679 278.645L300.371 199.239Z" fill="#B3B3B3"/>
<path id="Vector_41" d="M54.83 206.45C56.44 206.57 57.22 207.4 57.13 208.69L56.72 214.36C56.67 215.01 56.6 215.97 54.16 215.8C52.87 215.71 52.82 215.57 52.11 215.52C45.99 215.08 45.19 226.23 45.02 228.56C44.86 230.75 44.07 242.75 49.87 243.16C50.71 243.22 50.72 243.09 52.2 243.2C54.65 243.38 54.48 245.7 54.44 246.34L54.13 250.66C54.01 252.27 53.12 252.99 51.51 252.87C42.36 252.21 32.02 247.26 33.43 227.6C34.75 209.23 45.68 205.8 54.84 206.45H54.83Z" fill="black"/>
<path id="Vector_42" d="M73.14 221.37C72.9733 223.737 74.07 225.003 76.43 225.17C78.79 225.337 80.0533 224.303 80.22 222.07L80.81 213.82C80.99 211.24 81.18 208.66 85.05 208.94L88.27 209.17C92.14 209.45 91.95 212.03 91.77 214.61L89.23 250.07C89.04 252.65 88.86 255.23 84.99 254.95L81.77 254.72C77.9 254.44 78.09 251.86 78.27 249.29L78.96 239.62C79.27 235.37 79.03 235.09 75.74 234.85L75.03 234.8C72.97 234.65 72.19 234.6 71.96 237.88L71.87 239.1L71.18 248.77C70.99 251.35 70.81 253.93 66.94 253.65L63.72 253.42C59.85 253.14 60.04 250.56 60.22 247.98L62.76 212.52C62.94 209.94 63.13 207.36 67 207.64L70.22 207.87C74.09 208.15 73.9 210.73 73.72 213.31L73.14 221.37Z" fill="black"/>
<path id="Vector_43" d="M96.74 227.54C97.48 217.16 99 209.62 112.6 210.6C125.56 211.53 125.93 219.07 125.19 229.32C124.91 233.19 124.83 237.01 124.59 240.42C123.86 250.61 121.72 257.9 109.27 257.01C95.67 256.03 95.24 248.36 95.98 238.04C96.1 236.3 96.29 234.56 96.42 232.76C96.55 230.95 96.61 229.21 96.73 227.53L96.74 227.54ZM108.15 222.92L106.69 243.23C106.55 245.16 106.37 247.74 109.59 247.97C112.81 248.2 113 245.62 113.14 243.69L114.6 223.38C114.72 221.77 114.85 219.83 111.63 219.6C108.41 219.37 108.27 221.3 108.15 222.92Z" fill="black"/>
<path id="Vector_44" d="M151.74 213.4C153.35 213.52 154.13 214.35 154.04 215.64L153.63 221.31C153.58 221.96 153.51 222.92 151.07 222.75C149.78 222.66 149.73 222.52 149.02 222.47C142.9 222.03 142.1 233.18 141.93 235.51C141.77 237.7 140.98 249.7 146.78 250.11C147.62 250.17 147.63 250.04 149.11 250.15C151.56 250.33 151.39 252.65 151.35 253.29L151.04 257.61C150.92 259.22 150.03 259.94 148.42 259.82C139.27 259.16 128.93 254.21 130.34 234.55C131.66 216.18 142.59 212.75 151.75 213.4H151.74Z" fill="black"/>
<path id="Vector_45" d="M158.51 231.96C159.25 221.58 160.77 214.04 174.37 215.02C187.33 215.95 187.7 223.49 186.96 233.74C186.68 237.61 186.6 241.43 186.36 244.84C185.63 255.03 183.49 262.33 171.04 261.43C157.44 260.45 157.02 252.78 157.75 242.46C157.87 240.72 158.06 238.98 158.19 237.18C158.32 235.37 158.38 233.63 158.5 231.95L158.51 231.96ZM169.92 227.34L168.46 247.65C168.32 249.58 168.14 252.16 171.36 252.39C174.58 252.62 174.77 250.04 174.91 248.11L176.37 227.8C176.49 226.19 176.62 224.25 173.4 224.02C170.18 223.79 170.04 225.72 169.92 227.34Z" fill="black"/>
<path id="Vector_46" d="M210.87 254.58C213.58 254.77 213.8 256.22 213.66 258.15L213.6 258.99C213.41 261.57 213.23 264.15 209.36 263.87L194.79 262.83C190.92 262.55 191.11 259.97 191.29 257.39L193.83 221.93C194.01 219.35 194.2 216.77 198.07 217.05L201.29 217.28C205.16 217.56 204.97 220.14 204.79 222.72L202.8 250.51C202.69 252.06 202.55 254.06 204.54 254.26C207.96 254.51 209.51 254.49 210.87 254.58Z" fill="black"/>
<path id="Vector_47" d="M250.47 263.57C250.26 266.54 248.24 266.65 244.57 266.39L241.15 266.14C237.15 265.85 239.84 256.33 237.27 256.14L232.11 255.77C229.53 255.58 230.32 265.36 226.45 265.08L223.42 264.86C220.07 264.62 218.09 264.22 218.3 261.25C218.58 257.38 220.37 254.08 227.56 224.33C228.31 221.14 229.73 219.3 232.31 219.49L242.24 220.2C244.82 220.38 245.97 222.41 246.38 225.68C248.87 252.43 250.75 259.69 250.47 263.56V263.57ZM232.94 245.08C232.87 246.11 233.32 246.14 235.38 246.29C237.38 246.43 237.89 246.47 237.96 245.5C237.98 245.24 238 244.92 237.96 244.46C237.64 238.09 237.94 230.27 236.52 230.17C235.17 230.07 234.16 237.78 233.06 244.11C232.97 244.49 232.94 244.81 232.93 245.07L232.94 245.08Z" fill="black"/>
<path id="Vector_48" d="M268.05 263.34C267.75 265.78 267.46 268.03 263.84 267.77L260.62 267.54C256.75 267.26 256.94 264.68 257.12 262.1L259.23 232.64C259.35 231.03 259.05 230.62 257.7 230.52C257.25 230.49 256.6 230.51 255.83 230.45C254.22 230.33 252.95 229.98 253.06 228.44L253.45 222.96C253.54 221.67 255.01 221.13 256.62 221.24L274.41 222.52C276.02 222.64 277.39 223.38 277.3 224.67L276.91 230.15C276.8 231.7 275.49 231.86 273.88 231.75C273.43 231.72 272.85 231.61 272.08 231.56C270.47 231.44 270.31 231.82 270.2 233.43L268.06 263.34H268.05Z" fill="black"/>
<path id="Vector_49" d="M291.51 257.89C291.54 259.32 292.78 260.12 294.07 260.21C297.74 260.47 298.98 260.43 300.33 260.53C303.04 260.72 303.82 261.56 303.68 263.49L303.36 268C303.22 269.93 302.53 270.53 300.6 270.39L283.58 269.17C279.71 268.89 279.99 265.02 280.08 263.73L282.62 228.27C282.8 225.69 282.99 223.11 286.86 223.39L303.49 224.58C305.1 224.7 306.47 225.44 306.38 226.73L305.99 232.21C305.88 233.76 304.59 233.73 302.97 233.61C300.46 233.43 298.47 233.16 296.85 233.04C293.3 232.79 293.21 234.07 293.06 236.14C292.76 240.33 292.68 241.43 295.9 241.66C299.9 241.95 300.55 241.86 302.03 241.97C304.29 242.13 304.25 244.4 304.2 245.11L303.9 249.24C303.76 251.17 302.4 251.21 300.79 251.09C297.5 250.85 295.45 250.58 294.09 250.48C292.03 250.33 291.96 251.23 291.81 253.36L291.49 257.87L291.51 257.89Z" fill="black"/>
</g>
</g>
<defs>
<clipPath id="clip0_6_464">
<rect width="360.31" height="345.94" fill="white"/>
</clipPath>
</defs>
</svg>
