<svg width="435" height="320" viewBox="0 0 435 320" fill="none" xmlns="http://www.w3.org/2000/svg">
<g id="do-on 1" clip-path="url(#clip0_12_268)">
<path id="Vector" d="M342.45 70.97C348.288 70.97 353.02 66.2511 353.02 60.43C353.02 54.6089 348.288 49.89 342.45 49.89C336.612 49.89 331.88 54.6089 331.88 60.43C331.88 66.2511 336.612 70.97 342.45 70.97Z" fill="#F2C53D"/>
<path id="Vector_2" d="M308.16 71.98C313.998 71.98 318.73 67.2611 318.73 61.44C318.73 55.6189 313.998 50.9 308.16 50.9C302.322 50.9 297.59 55.6189 297.59 61.44C297.59 67.2611 302.322 71.98 308.16 71.98Z" fill="#F2C53D"/>
<path id="Vector_3" d="M273.86 72.99C279.698 72.99 284.43 68.2711 284.43 62.45C284.43 56.629 279.698 51.91 273.86 51.91C268.022 51.91 263.29 56.629 263.29 62.45C263.29 68.2711 268.022 72.99 273.86 72.99Z" fill="#F2C53D"/>
<path id="Vector_4" d="M239.57 73.99C245.408 73.99 250.14 69.2711 250.14 63.45C250.14 57.629 245.408 52.91 239.57 52.91C233.732 52.91 229 57.629 229 63.45C229 69.2711 233.732 73.99 239.57 73.99Z" fill="#F2C53D"/>
<path id="Vector_5" d="M205.28 75C211.118 75 215.85 70.2811 215.85 64.46C215.85 58.639 211.118 53.92 205.28 53.92C199.442 53.92 194.71 58.639 194.71 64.46C194.71 70.2811 199.442 75 205.28 75Z" fill="#F2C53D"/>
<path id="Vector_6" d="M170.98 76.0101C176.818 76.0101 181.55 71.2911 181.55 65.4701C181.55 59.649 176.818 54.9301 170.98 54.9301C165.142 54.9301 160.41 59.649 160.41 65.4701C160.41 71.2911 165.142 76.0101 170.98 76.0101Z" fill="#F2C53D"/>
<path id="Vector_7" d="M136.69 77.0101C142.528 77.0101 147.26 72.2911 147.26 66.4701C147.26 60.649 142.528 55.9301 136.69 55.9301C130.852 55.9301 126.12 60.649 126.12 66.4701C126.12 72.2911 130.852 77.0101 136.69 77.0101Z" fill="#F2C53D"/>
<path id="Vector_8" d="M102.4 78.0199C108.238 78.0199 112.97 73.301 112.97 67.4799C112.97 61.6589 108.238 56.9399 102.4 56.9399C96.5624 56.9399 91.83 61.6589 91.83 67.4799C91.83 73.301 96.5624 78.0199 102.4 78.0199Z" fill="#F2C53D"/>
<path id="Vector_9" d="M68.11 79.0299C73.9476 79.0299 78.68 74.311 78.68 68.4899C78.68 62.6689 73.9476 57.95 68.11 57.95C62.2723 57.95 57.54 62.6689 57.54 68.4899C57.54 74.311 62.2723 79.0299 68.11 79.0299Z" fill="#F2C53D"/>
<path id="Vector_10" d="M344.47 139.37C350.308 139.37 355.04 134.651 355.04 128.83C355.04 123.009 350.308 118.29 344.47 118.29C338.632 118.29 333.9 123.009 333.9 128.83C333.9 134.651 338.632 139.37 344.47 139.37Z" fill="#F2C53D"/>
<path id="Vector_11" d="M310.18 140.38C316.018 140.38 320.75 135.661 320.75 129.84C320.75 124.019 316.018 119.3 310.18 119.3C304.342 119.3 299.61 124.019 299.61 129.84C299.61 135.661 304.342 140.38 310.18 140.38Z" fill="#F2C53D"/>
<path id="Vector_12" d="M275.88 141.39C281.718 141.39 286.45 136.671 286.45 130.85C286.45 125.029 281.718 120.31 275.88 120.31C270.042 120.31 265.31 125.029 265.31 130.85C265.31 136.671 270.042 141.39 275.88 141.39Z" fill="#F2C53D"/>
<path id="Vector_13" d="M241.59 142.4C247.428 142.4 252.16 137.681 252.16 131.86C252.16 126.039 247.428 121.32 241.59 121.32C235.752 121.32 231.02 126.039 231.02 131.86C231.02 137.681 235.752 142.4 241.59 142.4Z" fill="#F2C53D"/>
<path id="Vector_14" d="M207.3 143.4C213.138 143.4 217.87 138.681 217.87 132.86C217.87 127.039 213.138 122.32 207.3 122.32C201.462 122.32 196.73 127.039 196.73 132.86C196.73 138.681 201.462 143.4 207.3 143.4Z" fill="#F2C53D"/>
<path id="Vector_15" d="M173.01 144.41C178.848 144.41 183.58 139.691 183.58 133.87C183.58 128.049 178.848 123.33 173.01 123.33C167.172 123.33 162.44 128.049 162.44 133.87C162.44 139.691 167.172 144.41 173.01 144.41Z" fill="#F2C53D"/>
<path id="Vector_16" d="M138.71 145.42C144.548 145.42 149.28 140.701 149.28 134.88C149.28 129.059 144.548 124.34 138.71 124.34C132.872 124.34 128.14 129.059 128.14 134.88C128.14 140.701 132.872 145.42 138.71 145.42Z" fill="#F2C53D"/>
<path id="Vector_17" d="M104.42 146.43C110.258 146.43 114.99 141.711 114.99 135.89C114.99 130.069 110.258 125.35 104.42 125.35C98.5823 125.35 93.85 130.069 93.85 135.89C93.85 141.711 98.5823 146.43 104.42 146.43Z" fill="#F2C53D"/>
<path id="Vector_18" d="M70.13 147.43C75.9676 147.43 80.7 142.711 80.7 136.89C80.7 131.069 75.9676 126.35 70.13 126.35C64.2923 126.35 59.56 131.069 59.56 136.89C59.56 142.711 64.2923 147.43 70.13 147.43Z" fill="#F2C53D"/>
<path id="Vector_19" d="M346.49 207.78C352.328 207.78 357.06 203.061 357.06 197.24C357.06 191.419 352.328 186.7 346.49 186.7C340.652 186.7 335.92 191.419 335.92 197.24C335.92 203.061 340.652 207.78 346.49 207.78Z" fill="#F2C53D"/>
<path id="Vector_20" d="M312.2 208.78C318.038 208.78 322.77 204.061 322.77 198.24C322.77 192.419 318.038 187.7 312.2 187.7C306.362 187.7 301.63 192.419 301.63 198.24C301.63 204.061 306.362 208.78 312.2 208.78Z" fill="#F2C53D"/>
<path id="Vector_21" d="M277.91 209.79C283.748 209.79 288.48 205.071 288.48 199.25C288.48 193.429 283.748 188.71 277.91 188.71C272.072 188.71 267.34 193.429 267.34 199.25C267.34 205.071 272.072 209.79 277.91 209.79Z" fill="#F2C53D"/>
<path id="Vector_22" d="M243.61 210.8C249.448 210.8 254.18 206.081 254.18 200.26C254.18 194.439 249.448 189.72 243.61 189.72C237.772 189.72 233.04 194.439 233.04 200.26C233.04 206.081 237.772 210.8 243.61 210.8Z" fill="#F2C53D"/>
<path id="Vector_23" d="M209.32 211.81C215.158 211.81 219.89 207.091 219.89 201.27C219.89 195.449 215.158 190.73 209.32 190.73C203.482 190.73 198.75 195.449 198.75 201.27C198.75 207.091 203.482 211.81 209.32 211.81Z" fill="#F2C53D"/>
<path id="Vector_24" d="M175.03 212.81C180.868 212.81 185.6 208.091 185.6 202.27C185.6 196.449 180.868 191.73 175.03 191.73C169.192 191.73 164.46 196.449 164.46 202.27C164.46 208.091 169.192 212.81 175.03 212.81Z" fill="#F2C53D"/>
<path id="Vector_25" d="M140.73 213.82C146.568 213.82 151.3 209.101 151.3 203.28C151.3 197.459 146.568 192.74 140.73 192.74C134.892 192.74 130.16 197.459 130.16 203.28C130.16 209.101 134.892 213.82 140.73 213.82Z" fill="#F2C53D"/>
<path id="Vector_26" d="M106.44 214.83C112.278 214.83 117.01 210.111 117.01 204.29C117.01 198.469 112.278 193.75 106.44 193.75C100.602 193.75 95.87 198.469 95.87 204.29C95.87 210.111 100.602 214.83 106.44 214.83Z" fill="#F2C53D"/>
<path id="Vector_27" d="M72.15 215.84C77.9877 215.84 82.72 211.121 82.72 205.3C82.72 199.479 77.9877 194.76 72.15 194.76C66.3124 194.76 61.58 199.479 61.58 205.3C61.58 211.121 66.3124 215.84 72.15 215.84Z" fill="#F2C53D"/>
<path id="Vector_28" d="M348.51 276.18C354.348 276.18 359.08 271.461 359.08 265.64C359.08 259.819 354.348 255.1 348.51 255.1C342.672 255.1 337.94 259.819 337.94 265.64C337.94 271.461 342.672 276.18 348.51 276.18Z" fill="#F2C53D"/>
<path id="Vector_29" d="M314.22 277.19C320.058 277.19 324.79 272.471 324.79 266.65C324.79 260.829 320.058 256.11 314.22 256.11C308.382 256.11 303.65 260.829 303.65 266.65C303.65 272.471 308.382 277.19 314.22 277.19Z" fill="#F2C53D"/>
<path id="Vector_30" d="M279.93 278.19C285.768 278.19 290.5 273.471 290.5 267.65C290.5 261.829 285.768 257.11 279.93 257.11C274.092 257.11 269.36 261.829 269.36 267.65C269.36 273.471 274.092 278.19 279.93 278.19Z" fill="#F2C53D"/>
<path id="Vector_31" d="M245.63 279.2C251.468 279.2 256.2 274.481 256.2 268.66C256.2 262.839 251.468 258.12 245.63 258.12C239.792 258.12 235.06 262.839 235.06 268.66C235.06 274.481 239.792 279.2 245.63 279.2Z" fill="#F2C53D"/>
<path id="Vector_32" d="M211.34 280.21C217.178 280.21 221.91 275.491 221.91 269.67C221.91 263.849 217.178 259.13 211.34 259.13C205.502 259.13 200.77 263.849 200.77 269.67C200.77 275.491 205.502 280.21 211.34 280.21Z" fill="#F2C53D"/>
<path id="Vector_33" d="M177.05 281.22C182.888 281.22 187.62 276.501 187.62 270.68C187.62 264.859 182.888 260.14 177.05 260.14C171.212 260.14 166.48 264.859 166.48 270.68C166.48 276.501 171.212 281.22 177.05 281.22Z" fill="#F2C53D"/>
<path id="Vector_34" d="M142.75 282.22C148.588 282.22 153.32 277.501 153.32 271.68C153.32 265.859 148.588 261.14 142.75 261.14C136.912 261.14 132.18 265.859 132.18 271.68C132.18 277.501 136.912 282.22 142.75 282.22Z" fill="#F2C53D"/>
<path id="Vector_35" d="M108.46 283.23C114.298 283.23 119.03 278.511 119.03 272.69C119.03 266.869 114.298 262.15 108.46 262.15C102.622 262.15 97.89 266.869 97.89 272.69C97.89 278.511 102.622 283.23 108.46 283.23Z" fill="#F2C53D"/>
<path id="Vector_36" d="M74.17 284.24C80.0076 284.24 84.74 279.521 84.74 273.7C84.74 267.879 80.0076 263.16 74.17 263.16C68.3323 263.16 63.6 267.879 63.6 273.7C63.6 279.521 68.3323 284.24 74.17 284.24Z" fill="#F2C53D"/>
<path id="Vector_37" d="M288.52 38.32C294.358 38.32 299.09 33.6011 299.09 27.78C299.09 21.9589 294.358 17.24 288.52 17.24C282.682 17.24 277.95 21.9589 277.95 27.78C277.95 33.6011 282.682 38.32 288.52 38.32Z" fill="#F2C53D"/>
<path id="Vector_38" d="M254.23 39.33C260.068 39.33 264.8 34.6111 264.8 28.79C264.8 22.9689 260.068 18.25 254.23 18.25C248.392 18.25 243.66 22.9689 243.66 28.79C243.66 34.6111 248.392 39.33 254.23 39.33Z" fill="#F2C53D"/>
<path id="Vector_39" d="M219.93 40.34C225.768 40.34 230.5 35.6211 230.5 29.8C230.5 23.9789 225.768 19.26 219.93 19.26C214.092 19.26 209.36 23.9789 209.36 29.8C209.36 35.6211 214.092 40.34 219.93 40.34Z" fill="#F2C53D"/>
<path id="Vector_40" d="M185.64 41.35C191.478 41.35 196.21 36.6311 196.21 30.81C196.21 24.9889 191.478 20.27 185.64 20.27C179.802 20.27 175.07 24.9889 175.07 30.81C175.07 36.6311 179.802 41.35 185.64 41.35Z" fill="#F2C53D"/>
<path id="Vector_41" d="M151.35 42.35C157.188 42.35 161.92 37.6311 161.92 31.81C161.92 25.9889 157.188 21.27 151.35 21.27C145.512 21.27 140.78 25.9889 140.78 31.81C140.78 37.6311 145.512 42.35 151.35 42.35Z" fill="#F2C53D"/>
<path id="Vector_42" d="M117.05 43.36C122.888 43.36 127.62 38.6411 127.62 32.82C127.62 26.9989 122.888 22.28 117.05 22.28C111.212 22.28 106.48 26.9989 106.48 32.82C106.48 38.6411 111.212 43.36 117.05 43.36Z" fill="#F2C53D"/>
<path id="Vector_43" d="M82.76 44.37C88.5977 44.37 93.33 39.6511 93.33 33.83C93.33 28.009 88.5977 23.29 82.76 23.29C76.9224 23.29 72.19 28.009 72.19 33.83C72.19 39.6511 76.9224 44.37 82.76 44.37Z" fill="#F2C53D"/>
<path id="Vector_44" d="M48.47 45.37C54.3077 45.37 59.04 40.6511 59.04 34.83C59.04 29.009 54.3077 24.29 48.47 24.29C42.6324 24.29 37.9 29.009 37.9 34.83C37.9 40.6511 42.6324 45.37 48.47 45.37Z" fill="#F2C53D"/>
<path id="Vector_45" d="M14.17 46.3801C20.0076 46.3801 24.74 41.6611 24.74 35.84C24.74 30.019 20.0076 25.3 14.17 25.3C8.33233 25.3 3.59998 30.019 3.59998 35.84C3.59998 41.6611 8.33233 46.3801 14.17 46.3801Z" fill="#F2C53D"/>
<path id="Vector_46" d="M290.54 106.73C296.378 106.73 301.11 102.011 301.11 96.19C301.11 90.3689 296.378 85.65 290.54 85.65C284.702 85.65 279.97 90.3689 279.97 96.19C279.97 102.011 284.702 106.73 290.54 106.73Z" fill="#F2C53D"/>
<path id="Vector_47" d="M256.25 107.73C262.088 107.73 266.82 103.011 266.82 97.19C266.82 91.3689 262.088 86.65 256.25 86.65C250.412 86.65 245.68 91.3689 245.68 97.19C245.68 103.011 250.412 107.73 256.25 107.73Z" fill="#F2C53D"/>
<path id="Vector_48" d="M221.95 108.74C227.788 108.74 232.52 104.021 232.52 98.2C232.52 92.3789 227.788 87.66 221.95 87.66C216.112 87.66 211.38 92.3789 211.38 98.2C211.38 104.021 216.112 108.74 221.95 108.74Z" fill="#F2C53D"/>
<path id="Vector_49" d="M187.66 109.75C193.498 109.75 198.23 105.031 198.23 99.21C198.23 93.389 193.498 88.67 187.66 88.67C181.822 88.67 177.09 93.389 177.09 99.21C177.09 105.031 181.822 109.75 187.66 109.75Z" fill="#F2C53D"/>
<path id="Vector_50" d="M153.37 110.76C159.208 110.76 163.94 106.041 163.94 100.22C163.94 94.399 159.208 89.6801 153.37 89.6801C147.532 89.6801 142.8 94.399 142.8 100.22C142.8 106.041 147.532 110.76 153.37 110.76Z" fill="#F2C53D"/>
<path id="Vector_51" d="M119.07 111.76C124.908 111.76 129.64 107.041 129.64 101.22C129.64 95.399 124.908 90.6801 119.07 90.6801C113.232 90.6801 108.5 95.399 108.5 101.22C108.5 107.041 113.232 111.76 119.07 111.76Z" fill="#F2C53D"/>
<path id="Vector_52" d="M84.78 112.77C90.6177 112.77 95.35 108.051 95.35 102.23C95.35 96.4089 90.6177 91.6899 84.78 91.6899C78.9424 91.6899 74.21 96.4089 74.21 102.23C74.21 108.051 78.9424 112.77 84.78 112.77Z" fill="#F2C53D"/>
<path id="Vector_53" d="M50.49 113.78C56.3276 113.78 61.06 109.061 61.06 103.24C61.06 97.4189 56.3276 92.7 50.49 92.7C44.6523 92.7 39.92 97.4189 39.92 103.24C39.92 109.061 44.6523 113.78 50.49 113.78Z" fill="#F2C53D"/>
<path id="Vector_54" d="M16.19 114.79C22.0276 114.79 26.76 110.071 26.76 104.25C26.76 98.4289 22.0276 93.71 16.19 93.71C10.3523 93.71 5.62 98.4289 5.62 104.25C5.62 110.071 10.3523 114.79 16.19 114.79Z" fill="#F2C53D"/>
<path id="Vector_55" d="M292.56 175.13C298.398 175.13 303.13 170.411 303.13 164.59C303.13 158.769 298.398 154.05 292.56 154.05C286.722 154.05 281.99 158.769 281.99 164.59C281.99 170.411 286.722 175.13 292.56 175.13Z" fill="#F2C53D"/>
<path id="Vector_56" d="M258.27 176.14C264.108 176.14 268.84 171.421 268.84 165.6C268.84 159.779 264.108 155.06 258.27 155.06C252.432 155.06 247.7 159.779 247.7 165.6C247.7 171.421 252.432 176.14 258.27 176.14Z" fill="#F2C53D"/>
<path id="Vector_57" d="M223.97 177.14C229.808 177.14 234.54 172.421 234.54 166.6C234.54 160.779 229.808 156.06 223.97 156.06C218.132 156.06 213.4 160.779 213.4 166.6C213.4 172.421 218.132 177.14 223.97 177.14Z" fill="#F2C53D"/>
<path id="Vector_58" d="M189.68 178.15C195.518 178.15 200.25 173.431 200.25 167.61C200.25 161.789 195.518 157.07 189.68 157.07C183.842 157.07 179.11 161.789 179.11 167.61C179.11 173.431 183.842 178.15 189.68 178.15Z" fill="#F2C53D"/>
<path id="Vector_59" d="M155.39 179.16C161.228 179.16 165.96 174.441 165.96 168.62C165.96 162.799 161.228 158.08 155.39 158.08C149.552 158.08 144.82 162.799 144.82 168.62C144.82 174.441 149.552 179.16 155.39 179.16Z" fill="#F2C53D"/>
<path id="Vector_60" d="M121.09 180.17C126.928 180.17 131.66 175.451 131.66 169.63C131.66 163.809 126.928 159.09 121.09 159.09C115.252 159.09 110.52 163.809 110.52 169.63C110.52 175.451 115.252 180.17 121.09 180.17Z" fill="#F2C53D"/>
<path id="Vector_61" d="M86.8 181.17C92.6376 181.17 97.37 176.451 97.37 170.63C97.37 164.809 92.6376 160.09 86.8 160.09C80.9623 160.09 76.23 164.809 76.23 170.63C76.23 176.451 80.9623 181.17 86.8 181.17Z" fill="#F2C53D"/>
<path id="Vector_62" d="M52.51 182.18C58.3477 182.18 63.08 177.461 63.08 171.64C63.08 165.819 58.3477 161.1 52.51 161.1C46.6724 161.1 41.94 165.819 41.94 171.64C41.94 177.461 46.6724 182.18 52.51 182.18Z" fill="#F2C53D"/>
<path id="Vector_63" d="M18.21 183.19C24.0477 183.19 28.78 178.471 28.78 172.65C28.78 166.829 24.0477 162.11 18.21 162.11C12.3724 162.11 7.64001 166.829 7.64001 172.65C7.64001 178.471 12.3724 183.19 18.21 183.19Z" fill="#F2C53D"/>
<path id="Vector_64" d="M294.58 243.53C300.418 243.53 305.15 238.811 305.15 232.99C305.15 227.169 300.418 222.45 294.58 222.45C288.742 222.45 284.01 227.169 284.01 232.99C284.01 238.811 288.742 243.53 294.58 243.53Z" fill="#F2C53D"/>
<path id="Vector_65" d="M260.29 244.54C266.128 244.54 270.86 239.821 270.86 234C270.86 228.179 266.128 223.46 260.29 223.46C254.452 223.46 249.72 228.179 249.72 234C249.72 239.821 254.452 244.54 260.29 244.54Z" fill="#F2C53D"/>
<path id="Vector_66" d="M225.99 245.55C231.828 245.55 236.56 240.831 236.56 235.01C236.56 229.189 231.828 224.47 225.99 224.47C220.152 224.47 215.42 229.189 215.42 235.01C215.42 240.831 220.152 245.55 225.99 245.55Z" fill="#F2C53D"/>
<path id="Vector_67" d="M191.7 246.56C197.538 246.56 202.27 241.841 202.27 236.02C202.27 230.199 197.538 225.48 191.7 225.48C185.862 225.48 181.13 230.199 181.13 236.02C181.13 241.841 185.862 246.56 191.7 246.56Z" fill="#F2C53D"/>
<path id="Vector_68" d="M157.41 247.56C163.248 247.56 167.98 242.841 167.98 237.02C167.98 231.199 163.248 226.48 157.41 226.48C151.572 226.48 146.84 231.199 146.84 237.02C146.84 242.841 151.572 247.56 157.41 247.56Z" fill="#F2C53D"/>
<path id="Vector_69" d="M123.11 248.57C128.948 248.57 133.68 243.851 133.68 238.03C133.68 232.209 128.948 227.49 123.11 227.49C117.272 227.49 112.54 232.209 112.54 238.03C112.54 243.851 117.272 248.57 123.11 248.57Z" fill="#F2C53D"/>
<path id="Vector_70" d="M88.82 249.58C94.6576 249.58 99.39 244.861 99.39 239.04C99.39 233.219 94.6576 228.5 88.82 228.5C82.9823 228.5 78.25 233.219 78.25 239.04C78.25 244.861 82.9823 249.58 88.82 249.58Z" fill="#F2C53D"/>
<path id="Vector_71" d="M54.53 250.58C60.3677 250.58 65.1 245.861 65.1 240.04C65.1 234.219 60.3677 229.5 54.53 229.5C48.6924 229.5 43.96 234.219 43.96 240.04C43.96 245.861 48.6924 250.58 54.53 250.58Z" fill="#F2C53D"/>
<path id="Vector_72" d="M20.23 251.59C26.0676 251.59 30.8 246.871 30.8 241.05C30.8 235.229 26.0676 230.51 20.23 230.51C14.3923 230.51 9.65997 235.229 9.65997 241.05C9.65997 246.871 14.3923 251.59 20.23 251.59Z" fill="#F2C53D"/>
<path id="Vector_73" d="M296.6 311.94C302.438 311.94 307.17 307.221 307.17 301.4C307.17 295.579 302.438 290.86 296.6 290.86C290.762 290.86 286.03 295.579 286.03 301.4C286.03 307.221 290.762 311.94 296.6 311.94Z" fill="#F2C53D"/>
<path id="Vector_74" d="M262.31 312.94C268.148 312.94 272.88 308.221 272.88 302.4C272.88 296.579 268.148 291.86 262.31 291.86C256.472 291.86 251.74 296.579 251.74 302.4C251.74 308.221 256.472 312.94 262.31 312.94Z" fill="#F2C53D"/>
<path id="Vector_75" d="M228.01 313.95C233.848 313.95 238.58 309.231 238.58 303.41C238.58 297.589 233.848 292.87 228.01 292.87C222.172 292.87 217.44 297.589 217.44 303.41C217.44 309.231 222.172 313.95 228.01 313.95Z" fill="#F2C53D"/>
<path id="Vector_76" d="M193.72 314.96C199.558 314.96 204.29 310.241 204.29 304.42C204.29 298.599 199.558 293.88 193.72 293.88C187.882 293.88 183.15 298.599 183.15 304.42C183.15 310.241 187.882 314.96 193.72 314.96Z" fill="#F2C53D"/>
<path id="Vector_77" d="M159.43 315.97C165.268 315.97 170 311.251 170 305.43C170 299.609 165.268 294.89 159.43 294.89C153.592 294.89 148.86 299.609 148.86 305.43C148.86 311.251 153.592 315.97 159.43 315.97Z" fill="#F2C53D"/>
<path id="Vector_78" d="M125.13 316.97C130.968 316.97 135.7 312.251 135.7 306.43C135.7 300.609 130.968 295.89 125.13 295.89C119.292 295.89 114.56 300.609 114.56 306.43C114.56 312.251 119.292 316.97 125.13 316.97Z" fill="#F2C53D"/>
<path id="Vector_79" d="M90.84 317.98C96.6777 317.98 101.41 313.261 101.41 307.44C101.41 301.619 96.6777 296.9 90.84 296.9C85.0024 296.9 80.27 301.619 80.27 307.44C80.27 313.261 85.0024 317.98 90.84 317.98Z" fill="#F2C53D"/>
<path id="Vector_80" d="M56.55 318.99C62.3876 318.99 67.12 314.271 67.12 308.45C67.12 302.629 62.3876 297.91 56.55 297.91C50.7123 297.91 45.98 302.629 45.98 308.45C45.98 314.271 50.7123 318.99 56.55 318.99Z" fill="#F2C53D"/>
<path id="Vector_81" d="M22.25 320C28.0876 320 32.82 315.281 32.82 309.46C32.82 303.639 28.0876 298.92 22.25 298.92C16.4123 298.92 11.68 303.639 11.68 309.46C11.68 315.281 16.4123 320 22.25 320Z" fill="#F2C53D"/>
<path id="Vector_82" d="M342.45 70.97C348.288 70.97 353.02 66.2511 353.02 60.43C353.02 54.6089 348.288 49.89 342.45 49.89C336.612 49.89 331.88 54.6089 331.88 60.43C331.88 66.2511 336.612 70.97 342.45 70.97Z" fill="#F2C53D"/>
<path id="Vector_83" d="M308.16 71.98C313.998 71.98 318.73 67.2611 318.73 61.44C318.73 55.6189 313.998 50.9 308.16 50.9C302.322 50.9 297.59 55.6189 297.59 61.44C297.59 67.2611 302.322 71.98 308.16 71.98Z" fill="#F2C53D"/>
<path id="Vector_84" d="M273.86 72.99C279.698 72.99 284.43 68.2711 284.43 62.45C284.43 56.629 279.698 51.91 273.86 51.91C268.022 51.91 263.29 56.629 263.29 62.45C263.29 68.2711 268.022 72.99 273.86 72.99Z" fill="#F2C53D"/>
<path id="Vector_85" d="M239.57 73.99C245.408 73.99 250.14 69.2711 250.14 63.45C250.14 57.629 245.408 52.91 239.57 52.91C233.732 52.91 229 57.629 229 63.45C229 69.2711 233.732 73.99 239.57 73.99Z" fill="#F2C53D"/>
<path id="Vector_86" d="M205.28 75C211.118 75 215.85 70.2811 215.85 64.46C215.85 58.639 211.118 53.92 205.28 53.92C199.442 53.92 194.71 58.639 194.71 64.46C194.71 70.2811 199.442 75 205.28 75Z" fill="#F2C53D"/>
<path id="Vector_87" d="M170.98 76.0101C176.818 76.0101 181.55 71.2911 181.55 65.4701C181.55 59.649 176.818 54.9301 170.98 54.9301C165.142 54.9301 160.41 59.649 160.41 65.4701C160.41 71.2911 165.142 76.0101 170.98 76.0101Z" fill="#F2C53D"/>
<path id="Vector_88" d="M136.69 77.0101C142.528 77.0101 147.26 72.2911 147.26 66.4701C147.26 60.649 142.528 55.9301 136.69 55.9301C130.852 55.9301 126.12 60.649 126.12 66.4701C126.12 72.2911 130.852 77.0101 136.69 77.0101Z" fill="#F2C53D"/>
<path id="Vector_89" d="M102.4 78.0199C108.238 78.0199 112.97 73.301 112.97 67.4799C112.97 61.6589 108.238 56.9399 102.4 56.9399C96.5624 56.9399 91.83 61.6589 91.83 67.4799C91.83 73.301 96.5624 78.0199 102.4 78.0199Z" fill="#F2C53D"/>
<path id="Vector_90" d="M68.11 79.0299C73.9476 79.0299 78.68 74.311 78.68 68.4899C78.68 62.6689 73.9476 57.95 68.11 57.95C62.2723 57.95 57.54 62.6689 57.54 68.4899C57.54 74.311 62.2723 79.0299 68.11 79.0299Z" fill="#F2C53D"/>
<path id="Vector_91" d="M344.47 139.37C350.308 139.37 355.04 134.651 355.04 128.83C355.04 123.009 350.308 118.29 344.47 118.29C338.632 118.29 333.9 123.009 333.9 128.83C333.9 134.651 338.632 139.37 344.47 139.37Z" fill="#F2C53D"/>
<path id="Vector_92" d="M310.18 140.38C316.018 140.38 320.75 135.661 320.75 129.84C320.75 124.019 316.018 119.3 310.18 119.3C304.342 119.3 299.61 124.019 299.61 129.84C299.61 135.661 304.342 140.38 310.18 140.38Z" fill="#F2C53D"/>
<path id="Vector_93" d="M275.88 141.39C281.718 141.39 286.45 136.671 286.45 130.85C286.45 125.029 281.718 120.31 275.88 120.31C270.042 120.31 265.31 125.029 265.31 130.85C265.31 136.671 270.042 141.39 275.88 141.39Z" fill="#F2C53D"/>
<path id="Vector_94" d="M241.59 142.4C247.428 142.4 252.16 137.681 252.16 131.86C252.16 126.039 247.428 121.32 241.59 121.32C235.752 121.32 231.02 126.039 231.02 131.86C231.02 137.681 235.752 142.4 241.59 142.4Z" fill="#F2C53D"/>
<path id="Vector_95" d="M207.3 143.4C213.138 143.4 217.87 138.681 217.87 132.86C217.87 127.039 213.138 122.32 207.3 122.32C201.462 122.32 196.73 127.039 196.73 132.86C196.73 138.681 201.462 143.4 207.3 143.4Z" fill="#F2C53D"/>
<path id="Vector_96" d="M173.01 144.41C178.848 144.41 183.58 139.691 183.58 133.87C183.58 128.049 178.848 123.33 173.01 123.33C167.172 123.33 162.44 128.049 162.44 133.87C162.44 139.691 167.172 144.41 173.01 144.41Z" fill="#F2C53D"/>
<path id="Vector_97" d="M138.71 145.42C144.548 145.42 149.28 140.701 149.28 134.88C149.28 129.059 144.548 124.34 138.71 124.34C132.872 124.34 128.14 129.059 128.14 134.88C128.14 140.701 132.872 145.42 138.71 145.42Z" fill="#F2C53D"/>
<path id="Vector_98" d="M104.42 146.43C110.258 146.43 114.99 141.711 114.99 135.89C114.99 130.069 110.258 125.35 104.42 125.35C98.5823 125.35 93.85 130.069 93.85 135.89C93.85 141.711 98.5823 146.43 104.42 146.43Z" fill="#F2C53D"/>
<path id="Vector_99" d="M70.13 147.43C75.9676 147.43 80.7 142.711 80.7 136.89C80.7 131.069 75.9676 126.35 70.13 126.35C64.2923 126.35 59.56 131.069 59.56 136.89C59.56 142.711 64.2923 147.43 70.13 147.43Z" fill="#F2C53D"/>
<path id="Vector_100" d="M346.49 207.78C352.328 207.78 357.06 203.061 357.06 197.24C357.06 191.419 352.328 186.7 346.49 186.7C340.652 186.7 335.92 191.419 335.92 197.24C335.92 203.061 340.652 207.78 346.49 207.78Z" fill="#F2C53D"/>
<path id="Vector_101" d="M312.2 208.78C318.038 208.78 322.77 204.061 322.77 198.24C322.77 192.419 318.038 187.7 312.2 187.7C306.362 187.7 301.63 192.419 301.63 198.24C301.63 204.061 306.362 208.78 312.2 208.78Z" fill="#F2C53D"/>
<path id="Vector_102" d="M277.91 209.79C283.748 209.79 288.48 205.071 288.48 199.25C288.48 193.429 283.748 188.71 277.91 188.71C272.072 188.71 267.34 193.429 267.34 199.25C267.34 205.071 272.072 209.79 277.91 209.79Z" fill="#F2C53D"/>
<path id="Vector_103" d="M243.61 210.8C249.448 210.8 254.18 206.081 254.18 200.26C254.18 194.439 249.448 189.72 243.61 189.72C237.772 189.72 233.04 194.439 233.04 200.26C233.04 206.081 237.772 210.8 243.61 210.8Z" fill="#F2C53D"/>
<path id="Vector_104" d="M209.32 211.81C215.158 211.81 219.89 207.091 219.89 201.27C219.89 195.449 215.158 190.73 209.32 190.73C203.482 190.73 198.75 195.449 198.75 201.27C198.75 207.091 203.482 211.81 209.32 211.81Z" fill="#F2C53D"/>
<path id="Vector_105" d="M175.03 212.81C180.868 212.81 185.6 208.091 185.6 202.27C185.6 196.449 180.868 191.73 175.03 191.73C169.192 191.73 164.46 196.449 164.46 202.27C164.46 208.091 169.192 212.81 175.03 212.81Z" fill="#F2C53D"/>
<path id="Vector_106" d="M140.73 213.82C146.568 213.82 151.3 209.101 151.3 203.28C151.3 197.459 146.568 192.74 140.73 192.74C134.892 192.74 130.16 197.459 130.16 203.28C130.16 209.101 134.892 213.82 140.73 213.82Z" fill="#F2C53D"/>
<path id="Vector_107" d="M106.44 214.83C112.278 214.83 117.01 210.111 117.01 204.29C117.01 198.469 112.278 193.75 106.44 193.75C100.602 193.75 95.87 198.469 95.87 204.29C95.87 210.111 100.602 214.83 106.44 214.83Z" fill="#F2C53D"/>
<path id="Vector_108" d="M72.15 215.84C77.9877 215.84 82.72 211.121 82.72 205.3C82.72 199.479 77.9877 194.76 72.15 194.76C66.3124 194.76 61.58 199.479 61.58 205.3C61.58 211.121 66.3124 215.84 72.15 215.84Z" fill="#F2C53D"/>
<path id="Vector_109" d="M348.51 276.18C354.348 276.18 359.08 271.461 359.08 265.64C359.08 259.819 354.348 255.1 348.51 255.1C342.672 255.1 337.94 259.819 337.94 265.64C337.94 271.461 342.672 276.18 348.51 276.18Z" fill="#F2C53D"/>
<path id="Vector_110" d="M314.22 277.19C320.058 277.19 324.79 272.471 324.79 266.65C324.79 260.829 320.058 256.11 314.22 256.11C308.382 256.11 303.65 260.829 303.65 266.65C303.65 272.471 308.382 277.19 314.22 277.19Z" fill="#F2C53D"/>
<path id="Vector_111" d="M279.93 278.19C285.768 278.19 290.5 273.471 290.5 267.65C290.5 261.829 285.768 257.11 279.93 257.11C274.092 257.11 269.36 261.829 269.36 267.65C269.36 273.471 274.092 278.19 279.93 278.19Z" fill="#F2C53D"/>
<path id="Vector_112" d="M245.63 279.2C251.468 279.2 256.2 274.481 256.2 268.66C256.2 262.839 251.468 258.12 245.63 258.12C239.792 258.12 235.06 262.839 235.06 268.66C235.06 274.481 239.792 279.2 245.63 279.2Z" fill="#F2C53D"/>
<path id="Vector_113" d="M211.34 280.21C217.178 280.21 221.91 275.491 221.91 269.67C221.91 263.849 217.178 259.13 211.34 259.13C205.502 259.13 200.77 263.849 200.77 269.67C200.77 275.491 205.502 280.21 211.34 280.21Z" fill="#F2C53D"/>
<path id="Vector_114" d="M177.05 281.22C182.888 281.22 187.62 276.501 187.62 270.68C187.62 264.859 182.888 260.14 177.05 260.14C171.212 260.14 166.48 264.859 166.48 270.68C166.48 276.501 171.212 281.22 177.05 281.22Z" fill="#F2C53D"/>
<path id="Vector_115" d="M142.75 282.22C148.588 282.22 153.32 277.501 153.32 271.68C153.32 265.859 148.588 261.14 142.75 261.14C136.912 261.14 132.18 265.859 132.18 271.68C132.18 277.501 136.912 282.22 142.75 282.22Z" fill="#F2C53D"/>
<path id="Vector_116" d="M108.46 283.23C114.298 283.23 119.03 278.511 119.03 272.69C119.03 266.869 114.298 262.15 108.46 262.15C102.622 262.15 97.89 266.869 97.89 272.69C97.89 278.511 102.622 283.23 108.46 283.23Z" fill="#F2C53D"/>
<path id="Vector_117" d="M74.17 284.24C80.0076 284.24 84.74 279.521 84.74 273.7C84.74 267.879 80.0076 263.16 74.17 263.16C68.3323 263.16 63.6 267.879 63.6 273.7C63.6 279.521 68.3323 284.24 74.17 284.24Z" fill="#F2C53D"/>
<path id="Vector_118" d="M288.52 38.32C294.358 38.32 299.09 33.6011 299.09 27.78C299.09 21.9589 294.358 17.24 288.52 17.24C282.682 17.24 277.95 21.9589 277.95 27.78C277.95 33.6011 282.682 38.32 288.52 38.32Z" fill="#F2C53D"/>
<path id="Vector_119" d="M254.23 39.33C260.068 39.33 264.8 34.6111 264.8 28.79C264.8 22.9689 260.068 18.25 254.23 18.25C248.392 18.25 243.66 22.9689 243.66 28.79C243.66 34.6111 248.392 39.33 254.23 39.33Z" fill="#F2C53D"/>
<path id="Vector_120" d="M219.93 40.34C225.768 40.34 230.5 35.6211 230.5 29.8C230.5 23.9789 225.768 19.26 219.93 19.26C214.092 19.26 209.36 23.9789 209.36 29.8C209.36 35.6211 214.092 40.34 219.93 40.34Z" fill="#F2C53D"/>
<path id="Vector_121" d="M185.64 41.35C191.478 41.35 196.21 36.6311 196.21 30.81C196.21 24.9889 191.478 20.27 185.64 20.27C179.802 20.27 175.07 24.9889 175.07 30.81C175.07 36.6311 179.802 41.35 185.64 41.35Z" fill="#F2C53D"/>
<path id="Vector_122" d="M151.35 42.35C157.188 42.35 161.92 37.6311 161.92 31.81C161.92 25.9889 157.188 21.27 151.35 21.27C145.512 21.27 140.78 25.9889 140.78 31.81C140.78 37.6311 145.512 42.35 151.35 42.35Z" fill="#F2C53D"/>
<path id="Vector_123" d="M117.05 43.36C122.888 43.36 127.62 38.6411 127.62 32.82C127.62 26.9989 122.888 22.28 117.05 22.28C111.212 22.28 106.48 26.9989 106.48 32.82C106.48 38.6411 111.212 43.36 117.05 43.36Z" fill="#F2C53D"/>
<path id="Vector_124" d="M82.76 44.37C88.5977 44.37 93.33 39.6511 93.33 33.83C93.33 28.009 88.5977 23.29 82.76 23.29C76.9224 23.29 72.19 28.009 72.19 33.83C72.19 39.6511 76.9224 44.37 82.76 44.37Z" fill="#F2C53D"/>
<path id="Vector_125" d="M48.47 45.37C54.3077 45.37 59.04 40.6511 59.04 34.83C59.04 29.009 54.3077 24.29 48.47 24.29C42.6324 24.29 37.9 29.009 37.9 34.83C37.9 40.6511 42.6324 45.37 48.47 45.37Z" fill="#F2C53D"/>
<path id="Vector_126" d="M14.17 46.3801C20.0076 46.3801 24.74 41.6611 24.74 35.84C24.74 30.019 20.0076 25.3 14.17 25.3C8.33233 25.3 3.59998 30.019 3.59998 35.84C3.59998 41.6611 8.33233 46.3801 14.17 46.3801Z" fill="#F2C53D"/>
<path id="Vector_127" d="M290.54 106.73C296.378 106.73 301.11 102.011 301.11 96.19C301.11 90.3689 296.378 85.65 290.54 85.65C284.702 85.65 279.97 90.3689 279.97 96.19C279.97 102.011 284.702 106.73 290.54 106.73Z" fill="#F2C53D"/>
<path id="Vector_128" d="M256.25 107.73C262.088 107.73 266.82 103.011 266.82 97.19C266.82 91.3689 262.088 86.65 256.25 86.65C250.412 86.65 245.68 91.3689 245.68 97.19C245.68 103.011 250.412 107.73 256.25 107.73Z" fill="#F2C53D"/>
<path id="Vector_129" d="M221.95 108.74C227.788 108.74 232.52 104.021 232.52 98.2C232.52 92.3789 227.788 87.66 221.95 87.66C216.112 87.66 211.38 92.3789 211.38 98.2C211.38 104.021 216.112 108.74 221.95 108.74Z" fill="#F2C53D"/>
<path id="Vector_130" d="M187.66 109.75C193.498 109.75 198.23 105.031 198.23 99.21C198.23 93.389 193.498 88.67 187.66 88.67C181.822 88.67 177.09 93.389 177.09 99.21C177.09 105.031 181.822 109.75 187.66 109.75Z" fill="#F2C53D"/>
<path id="Vector_131" d="M153.37 110.76C159.208 110.76 163.94 106.041 163.94 100.22C163.94 94.399 159.208 89.6801 153.37 89.6801C147.532 89.6801 142.8 94.399 142.8 100.22C142.8 106.041 147.532 110.76 153.37 110.76Z" fill="#F2C53D"/>
<path id="Vector_132" d="M119.07 111.76C124.908 111.76 129.64 107.041 129.64 101.22C129.64 95.399 124.908 90.6801 119.07 90.6801C113.232 90.6801 108.5 95.399 108.5 101.22C108.5 107.041 113.232 111.76 119.07 111.76Z" fill="#F2C53D"/>
<path id="Vector_133" d="M84.78 112.77C90.6177 112.77 95.35 108.051 95.35 102.23C95.35 96.4089 90.6177 91.6899 84.78 91.6899C78.9424 91.6899 74.21 96.4089 74.21 102.23C74.21 108.051 78.9424 112.77 84.78 112.77Z" fill="#F2C53D"/>
<path id="Vector_134" d="M50.49 113.78C56.3276 113.78 61.06 109.061 61.06 103.24C61.06 97.4189 56.3276 92.7 50.49 92.7C44.6523 92.7 39.92 97.4189 39.92 103.24C39.92 109.061 44.6523 113.78 50.49 113.78Z" fill="#F2C53D"/>
<path id="Vector_135" d="M16.19 114.79C22.0276 114.79 26.76 110.071 26.76 104.25C26.76 98.4289 22.0276 93.71 16.19 93.71C10.3523 93.71 5.62 98.4289 5.62 104.25C5.62 110.071 10.3523 114.79 16.19 114.79Z" fill="#F2C53D"/>
<path id="Vector_136" d="M292.56 175.13C298.398 175.13 303.13 170.411 303.13 164.59C303.13 158.769 298.398 154.05 292.56 154.05C286.722 154.05 281.99 158.769 281.99 164.59C281.99 170.411 286.722 175.13 292.56 175.13Z" fill="#F2C53D"/>
<path id="Vector_137" d="M258.27 176.14C264.108 176.14 268.84 171.421 268.84 165.6C268.84 159.779 264.108 155.06 258.27 155.06C252.432 155.06 247.7 159.779 247.7 165.6C247.7 171.421 252.432 176.14 258.27 176.14Z" fill="#F2C53D"/>
<path id="Vector_138" d="M223.97 177.14C229.808 177.14 234.54 172.421 234.54 166.6C234.54 160.779 229.808 156.06 223.97 156.06C218.132 156.06 213.4 160.779 213.4 166.6C213.4 172.421 218.132 177.14 223.97 177.14Z" fill="#F2C53D"/>
<path id="Vector_139" d="M189.68 178.15C195.518 178.15 200.25 173.431 200.25 167.61C200.25 161.789 195.518 157.07 189.68 157.07C183.842 157.07 179.11 161.789 179.11 167.61C179.11 173.431 183.842 178.15 189.68 178.15Z" fill="#F2C53D"/>
<path id="Vector_140" d="M155.39 179.16C161.228 179.16 165.96 174.441 165.96 168.62C165.96 162.799 161.228 158.08 155.39 158.08C149.552 158.08 144.82 162.799 144.82 168.62C144.82 174.441 149.552 179.16 155.39 179.16Z" fill="#F2C53D"/>
<path id="Vector_141" d="M121.09 180.17C126.928 180.17 131.66 175.451 131.66 169.63C131.66 163.809 126.928 159.09 121.09 159.09C115.252 159.09 110.52 163.809 110.52 169.63C110.52 175.451 115.252 180.17 121.09 180.17Z" fill="#F2C53D"/>
<path id="Vector_142" d="M86.8 181.17C92.6376 181.17 97.37 176.451 97.37 170.63C97.37 164.809 92.6376 160.09 86.8 160.09C80.9623 160.09 76.23 164.809 76.23 170.63C76.23 176.451 80.9623 181.17 86.8 181.17Z" fill="#F2C53D"/>
<path id="Vector_143" d="M52.51 182.18C58.3477 182.18 63.08 177.461 63.08 171.64C63.08 165.819 58.3477 161.1 52.51 161.1C46.6724 161.1 41.94 165.819 41.94 171.64C41.94 177.461 46.6724 182.18 52.51 182.18Z" fill="#F2C53D"/>
<path id="Vector_144" d="M18.21 183.19C24.0477 183.19 28.78 178.471 28.78 172.65C28.78 166.829 24.0477 162.11 18.21 162.11C12.3724 162.11 7.64001 166.829 7.64001 172.65C7.64001 178.471 12.3724 183.19 18.21 183.19Z" fill="#F2C53D"/>
<path id="Vector_145" d="M294.58 243.53C300.418 243.53 305.15 238.811 305.15 232.99C305.15 227.169 300.418 222.45 294.58 222.45C288.742 222.45 284.01 227.169 284.01 232.99C284.01 238.811 288.742 243.53 294.58 243.53Z" fill="#F2C53D"/>
<path id="Vector_146" d="M260.29 244.54C266.128 244.54 270.86 239.821 270.86 234C270.86 228.179 266.128 223.46 260.29 223.46C254.452 223.46 249.72 228.179 249.72 234C249.72 239.821 254.452 244.54 260.29 244.54Z" fill="#F2C53D"/>
<path id="Vector_147" d="M225.99 245.55C231.828 245.55 236.56 240.831 236.56 235.01C236.56 229.189 231.828 224.47 225.99 224.47C220.152 224.47 215.42 229.189 215.42 235.01C215.42 240.831 220.152 245.55 225.99 245.55Z" fill="#F2C53D"/>
<path id="Vector_148" d="M191.7 246.56C197.538 246.56 202.27 241.841 202.27 236.02C202.27 230.199 197.538 225.48 191.7 225.48C185.862 225.48 181.13 230.199 181.13 236.02C181.13 241.841 185.862 246.56 191.7 246.56Z" fill="#F2C53D"/>
<path id="Vector_149" d="M157.41 247.56C163.248 247.56 167.98 242.841 167.98 237.02C167.98 231.199 163.248 226.48 157.41 226.48C151.572 226.48 146.84 231.199 146.84 237.02C146.84 242.841 151.572 247.56 157.41 247.56Z" fill="#F2C53D"/>
<path id="Vector_150" d="M123.11 248.57C128.948 248.57 133.68 243.851 133.68 238.03C133.68 232.209 128.948 227.49 123.11 227.49C117.272 227.49 112.54 232.209 112.54 238.03C112.54 243.851 117.272 248.57 123.11 248.57Z" fill="#F2C53D"/>
<path id="Vector_151" d="M88.82 249.58C94.6576 249.58 99.39 244.861 99.39 239.04C99.39 233.219 94.6576 228.5 88.82 228.5C82.9823 228.5 78.25 233.219 78.25 239.04C78.25 244.861 82.9823 249.58 88.82 249.58Z" fill="#F2C53D"/>
<path id="Vector_152" d="M54.53 250.58C60.3677 250.58 65.1 245.861 65.1 240.04C65.1 234.219 60.3677 229.5 54.53 229.5C48.6924 229.5 43.96 234.219 43.96 240.04C43.96 245.861 48.6924 250.58 54.53 250.58Z" fill="#F2C53D"/>
<path id="Vector_153" d="M20.23 251.59C26.0676 251.59 30.8 246.871 30.8 241.05C30.8 235.229 26.0676 230.51 20.23 230.51C14.3923 230.51 9.65997 235.229 9.65997 241.05C9.65997 246.871 14.3923 251.59 20.23 251.59Z" fill="#F2C53D"/>
<path id="Vector_154" d="M296.6 311.94C302.438 311.94 307.17 307.221 307.17 301.4C307.17 295.579 302.438 290.86 296.6 290.86C290.762 290.86 286.03 295.579 286.03 301.4C286.03 307.221 290.762 311.94 296.6 311.94Z" fill="#F2C53D"/>
<path id="Vector_155" d="M262.31 312.94C268.148 312.94 272.88 308.221 272.88 302.4C272.88 296.579 268.148 291.86 262.31 291.86C256.472 291.86 251.74 296.579 251.74 302.4C251.74 308.221 256.472 312.94 262.31 312.94Z" fill="#F2C53D"/>
<path id="Vector_156" d="M228.01 313.95C233.848 313.95 238.58 309.231 238.58 303.41C238.58 297.589 233.848 292.87 228.01 292.87C222.172 292.87 217.44 297.589 217.44 303.41C217.44 309.231 222.172 313.95 228.01 313.95Z" fill="#F2C53D"/>
<path id="Vector_157" d="M193.72 314.96C199.558 314.96 204.29 310.241 204.29 304.42C204.29 298.599 199.558 293.88 193.72 293.88C187.882 293.88 183.15 298.599 183.15 304.42C183.15 310.241 187.882 314.96 193.72 314.96Z" fill="#F2C53D"/>
<path id="Vector_158" d="M159.43 315.97C165.268 315.97 170 311.251 170 305.43C170 299.609 165.268 294.89 159.43 294.89C153.592 294.89 148.86 299.609 148.86 305.43C148.86 311.251 153.592 315.97 159.43 315.97Z" fill="#F2C53D"/>
<path id="Vector_159" d="M125.13 316.97C130.968 316.97 135.7 312.251 135.7 306.43C135.7 300.609 130.968 295.89 125.13 295.89C119.292 295.89 114.56 300.609 114.56 306.43C114.56 312.251 119.292 316.97 125.13 316.97Z" fill="#F2C53D"/>
<path id="Vector_160" d="M90.84 317.98C96.6777 317.98 101.41 313.261 101.41 307.44C101.41 301.619 96.6777 296.9 90.84 296.9C85.0024 296.9 80.27 301.619 80.27 307.44C80.27 313.261 85.0024 317.98 90.84 317.98Z" fill="#F2C53D"/>
<path id="Vector_161" d="M56.55 318.99C62.3876 318.99 67.12 314.271 67.12 308.45C67.12 302.629 62.3876 297.91 56.55 297.91C50.7123 297.91 45.98 302.629 45.98 308.45C45.98 314.271 50.7123 318.99 56.55 318.99Z" fill="#F2C53D"/>
<path id="Vector_162" d="M22.25 320C28.0876 320 32.82 315.281 32.82 309.46C32.82 303.639 28.0876 298.92 22.25 298.92C16.4123 298.92 11.68 303.639 11.68 309.46C11.68 315.281 16.4123 320 22.25 320Z" fill="#F2C53D"/>
<path id="Vector_163" d="M338.85 65.58C344.688 65.58 349.42 60.8611 349.42 55.04C349.42 49.2189 344.688 44.5 338.85 44.5C333.012 44.5 328.28 49.2189 328.28 55.04C328.28 60.8611 333.012 65.58 338.85 65.58Z" fill="#4590BF"/>
<path id="Vector_164" d="M304.56 66.59C310.398 66.59 315.13 61.8711 315.13 56.05C315.13 50.2289 310.398 45.51 304.56 45.51C298.722 45.51 293.99 50.2289 293.99 56.05C293.99 61.8711 298.722 66.59 304.56 66.59Z" fill="#4590BF"/>
<path id="Vector_165" d="M270.26 67.6C276.098 67.6 280.83 62.8811 280.83 57.06C280.83 51.2389 276.098 46.52 270.26 46.52C264.422 46.52 259.69 51.2389 259.69 57.06C259.69 62.8811 264.422 67.6 270.26 67.6Z" fill="#4590BF"/>
<path id="Vector_166" d="M235.97 68.61C241.808 68.61 246.54 63.8911 246.54 58.07C246.54 52.2489 241.808 47.53 235.97 47.53C230.132 47.53 225.4 52.2489 225.4 58.07C225.4 63.8911 230.132 68.61 235.97 68.61Z" fill="#4590BF"/>
<path id="Vector_167" d="M201.68 69.61C207.518 69.61 212.25 64.8911 212.25 59.07C212.25 53.2489 207.518 48.53 201.68 48.53C195.842 48.53 191.11 53.2489 191.11 59.07C191.11 64.8911 195.842 69.61 201.68 69.61Z" fill="#4590BF"/>
<path id="Vector_168" d="M167.38 70.62C173.218 70.62 177.95 65.9011 177.95 60.08C177.95 54.259 173.218 49.54 167.38 49.54C161.542 49.54 156.81 54.259 156.81 60.08C156.81 65.9011 161.542 70.62 167.38 70.62Z" fill="#4590BF"/>
<path id="Vector_169" d="M133.09 71.63C138.928 71.63 143.66 66.9111 143.66 61.09C143.66 55.269 138.928 50.55 133.09 50.55C127.252 50.55 122.52 55.269 122.52 61.09C122.52 66.9111 127.252 71.63 133.09 71.63Z" fill="#4590BF"/>
<path id="Vector_170" d="M98.8 72.6401C104.638 72.6401 109.37 67.9211 109.37 62.1001C109.37 56.279 104.638 51.5601 98.8 51.5601C92.9623 51.5601 88.23 56.279 88.23 62.1001C88.23 67.9211 92.9623 72.6401 98.8 72.6401Z" fill="#4590BF"/>
<path id="Vector_171" d="M64.51 73.6401C70.3477 73.6401 75.08 68.9211 75.08 63.1001C75.08 57.279 70.3477 52.5601 64.51 52.5601C58.6724 52.5601 53.94 57.279 53.94 63.1001C53.94 68.9211 58.6724 73.6401 64.51 73.6401Z" fill="#4590BF"/>
<path id="Vector_172" d="M340.87 133.99C346.708 133.99 351.44 129.271 351.44 123.45C351.44 117.629 346.708 112.91 340.87 112.91C335.032 112.91 330.3 117.629 330.3 123.45C330.3 129.271 335.032 133.99 340.87 133.99Z" fill="#4590BF"/>
<path id="Vector_173" d="M306.58 135C312.418 135 317.15 130.281 317.15 124.46C317.15 118.639 312.418 113.92 306.58 113.92C300.742 113.92 296.01 118.639 296.01 124.46C296.01 130.281 300.742 135 306.58 135Z" fill="#4590BF"/>
<path id="Vector_174" d="M272.28 136C278.118 136 282.85 131.281 282.85 125.46C282.85 119.639 278.118 114.92 272.28 114.92C266.442 114.92 261.71 119.639 261.71 125.46C261.71 131.281 266.442 136 272.28 136Z" fill="#4590BF"/>
<path id="Vector_175" d="M237.99 137.01C243.828 137.01 248.56 132.291 248.56 126.47C248.56 120.649 243.828 115.93 237.99 115.93C232.152 115.93 227.42 120.649 227.42 126.47C227.42 132.291 232.152 137.01 237.99 137.01Z" fill="#4590BF"/>
<path id="Vector_176" d="M203.7 138.02C209.538 138.02 214.27 133.301 214.27 127.48C214.27 121.659 209.538 116.94 203.7 116.94C197.862 116.94 193.13 121.659 193.13 127.48C193.13 133.301 197.862 138.02 203.7 138.02Z" fill="#4590BF"/>
<path id="Vector_177" d="M169.41 139.02C175.248 139.02 179.98 134.301 179.98 128.48C179.98 122.659 175.248 117.94 169.41 117.94C163.572 117.94 158.84 122.659 158.84 128.48C158.84 134.301 163.572 139.02 169.41 139.02Z" fill="#4590BF"/>
<path id="Vector_178" d="M135.11 140.03C140.948 140.03 145.68 135.311 145.68 129.49C145.68 123.669 140.948 118.95 135.11 118.95C129.272 118.95 124.54 123.669 124.54 129.49C124.54 135.311 129.272 140.03 135.11 140.03Z" fill="#4590BF"/>
<path id="Vector_179" d="M100.82 141.04C106.658 141.04 111.39 136.321 111.39 130.5C111.39 124.679 106.658 119.96 100.82 119.96C94.9823 119.96 90.25 124.679 90.25 130.5C90.25 136.321 94.9823 141.04 100.82 141.04Z" fill="#4590BF"/>
<path id="Vector_180" d="M66.53 142.05C72.3677 142.05 77.1 137.331 77.1 131.51C77.1 125.689 72.3677 120.97 66.53 120.97C60.6924 120.97 55.96 125.689 55.96 131.51C55.96 137.331 60.6924 142.05 66.53 142.05Z" fill="#4590BF"/>
<path id="Vector_181" d="M342.89 202.39C348.728 202.39 353.46 197.671 353.46 191.85C353.46 186.029 348.728 181.31 342.89 181.31C337.052 181.31 332.32 186.029 332.32 191.85C332.32 197.671 337.052 202.39 342.89 202.39Z" fill="#4590BF"/>
<path id="Vector_182" d="M308.6 203.4C314.438 203.4 319.17 198.681 319.17 192.86C319.17 187.039 314.438 182.32 308.6 182.32C302.762 182.32 298.03 187.039 298.03 192.86C298.03 198.681 302.762 203.4 308.6 203.4Z" fill="#4590BF"/>
<path id="Vector_183" d="M274.31 204.41C280.148 204.41 284.88 199.691 284.88 193.87C284.88 188.049 280.148 183.33 274.31 183.33C268.472 183.33 263.74 188.049 263.74 193.87C263.74 199.691 268.472 204.41 274.31 204.41Z" fill="#4590BF"/>
<path id="Vector_184" d="M240.01 205.41C245.848 205.41 250.58 200.691 250.58 194.87C250.58 189.049 245.848 184.33 240.01 184.33C234.172 184.33 229.44 189.049 229.44 194.87C229.44 200.691 234.172 205.41 240.01 205.41Z" fill="#4590BF"/>
<path id="Vector_185" d="M205.72 206.42C211.558 206.42 216.29 201.701 216.29 195.88C216.29 190.059 211.558 185.34 205.72 185.34C199.882 185.34 195.15 190.059 195.15 195.88C195.15 201.701 199.882 206.42 205.72 206.42Z" fill="#4590BF"/>
<path id="Vector_186" d="M171.43 207.43C177.268 207.43 182 202.711 182 196.89C182 191.069 177.268 186.35 171.43 186.35C165.592 186.35 160.86 191.069 160.86 196.89C160.86 202.711 165.592 207.43 171.43 207.43Z" fill="#4590BF"/>
<path id="Vector_187" d="M137.13 208.44C142.968 208.44 147.7 203.721 147.7 197.9C147.7 192.079 142.968 187.36 137.13 187.36C131.292 187.36 126.56 192.079 126.56 197.9C126.56 203.721 131.292 208.44 137.13 208.44Z" fill="#4590BF"/>
<path id="Vector_188" d="M102.84 209.44C108.678 209.44 113.41 204.721 113.41 198.9C113.41 193.079 108.678 188.36 102.84 188.36C97.0024 188.36 92.27 193.079 92.27 198.9C92.27 204.721 97.0024 209.44 102.84 209.44Z" fill="#4590BF"/>
<path id="Vector_189" d="M68.55 210.45C74.3876 210.45 79.12 205.731 79.12 199.91C79.12 194.089 74.3876 189.37 68.55 189.37C62.7123 189.37 57.98 194.089 57.98 199.91C57.98 205.731 62.7123 210.45 68.55 210.45Z" fill="#4590BF"/>
<path id="Vector_190" d="M344.91 270.79C350.748 270.79 355.48 266.071 355.48 260.25C355.48 254.429 350.748 249.71 344.91 249.71C339.072 249.71 334.34 254.429 334.34 260.25C334.34 266.071 339.072 270.79 344.91 270.79Z" fill="#4590BF"/>
<path id="Vector_191" d="M310.62 271.8C316.458 271.8 321.19 267.081 321.19 261.26C321.19 255.439 316.458 250.72 310.62 250.72C304.782 250.72 300.05 255.439 300.05 261.26C300.05 267.081 304.782 271.8 310.62 271.8Z" fill="#4590BF"/>
<path id="Vector_192" d="M276.33 272.81C282.168 272.81 286.9 268.091 286.9 262.27C286.9 256.449 282.168 251.73 276.33 251.73C270.492 251.73 265.76 256.449 265.76 262.27C265.76 268.091 270.492 272.81 276.33 272.81Z" fill="#4590BF"/>
<path id="Vector_193" d="M242.03 273.82C247.868 273.82 252.6 269.101 252.6 263.28C252.6 257.459 247.868 252.74 242.03 252.74C236.192 252.74 231.46 257.459 231.46 263.28C231.46 269.101 236.192 273.82 242.03 273.82Z" fill="#4590BF"/>
<path id="Vector_194" d="M207.74 274.82C213.578 274.82 218.31 270.101 218.31 264.28C218.31 258.459 213.578 253.74 207.74 253.74C201.902 253.74 197.17 258.459 197.17 264.28C197.17 270.101 201.902 274.82 207.74 274.82Z" fill="#4590BF"/>
<path id="Vector_195" d="M173.45 275.83C179.288 275.83 184.02 271.111 184.02 265.29C184.02 259.469 179.288 254.75 173.45 254.75C167.612 254.75 162.88 259.469 162.88 265.29C162.88 271.111 167.612 275.83 173.45 275.83Z" fill="#4590BF"/>
<path id="Vector_196" d="M139.15 276.84C144.988 276.84 149.72 272.121 149.72 266.3C149.72 260.479 144.988 255.76 139.15 255.76C133.312 255.76 128.58 260.479 128.58 266.3C128.58 272.121 133.312 276.84 139.15 276.84Z" fill="#4590BF"/>
<path id="Vector_197" d="M104.86 277.85C110.698 277.85 115.43 273.131 115.43 267.31C115.43 261.489 110.698 256.77 104.86 256.77C99.0223 256.77 94.29 261.489 94.29 267.31C94.29 273.131 99.0223 277.85 104.86 277.85Z" fill="#4590BF"/>
<path id="Vector_198" d="M70.57 278.85C76.4076 278.85 81.14 274.131 81.14 268.31C81.14 262.489 76.4076 257.77 70.57 257.77C64.7323 257.77 60 262.489 60 268.31C60 274.131 64.7323 278.85 70.57 278.85Z" fill="#4590BF"/>
<path id="Vector_199" d="M284.92 32.94C290.758 32.94 295.49 28.2211 295.49 22.4C295.49 16.5789 290.758 11.86 284.92 11.86C279.082 11.86 274.35 16.5789 274.35 22.4C274.35 28.2211 279.082 32.94 284.92 32.94Z" fill="#4590BF"/>
<path id="Vector_200" d="M250.63 33.95C256.468 33.95 261.2 29.2311 261.2 23.41C261.2 17.5889 256.468 12.87 250.63 12.87C244.792 12.87 240.06 17.5889 240.06 23.41C240.06 29.2311 244.792 33.95 250.63 33.95Z" fill="#4590BF"/>
<path id="Vector_201" d="M216.33 34.95C222.168 34.95 226.9 30.2311 226.9 24.41C226.9 18.5889 222.168 13.87 216.33 13.87C210.492 13.87 205.76 18.5889 205.76 24.41C205.76 30.2311 210.492 34.95 216.33 34.95Z" fill="#4590BF"/>
<path id="Vector_202" d="M182.04 35.96C187.878 35.96 192.61 31.2411 192.61 25.42C192.61 19.5989 187.878 14.88 182.04 14.88C176.202 14.88 171.47 19.5989 171.47 25.42C171.47 31.2411 176.202 35.96 182.04 35.96Z" fill="#4590BF"/>
<path id="Vector_203" d="M147.75 36.97C153.588 36.97 158.32 32.2511 158.32 26.43C158.32 20.6089 153.588 15.89 147.75 15.89C141.912 15.89 137.18 20.6089 137.18 26.43C137.18 32.2511 141.912 36.97 147.75 36.97Z" fill="#4590BF"/>
<path id="Vector_204" d="M113.45 37.97C119.288 37.97 124.02 33.2511 124.02 27.43C124.02 21.6089 119.288 16.89 113.45 16.89C107.612 16.89 102.88 21.6089 102.88 27.43C102.88 33.2511 107.612 37.97 113.45 37.97Z" fill="#4590BF"/>
<path id="Vector_205" d="M79.16 38.98C84.9976 38.98 89.73 34.2611 89.73 28.44C89.73 22.6189 84.9976 17.9 79.16 17.9C73.3223 17.9 68.59 22.6189 68.59 28.44C68.59 34.2611 73.3223 38.98 79.16 38.98Z" fill="#4590BF"/>
<path id="Vector_206" d="M44.87 39.99C50.7076 39.99 55.44 35.2711 55.44 29.45C55.44 23.629 50.7076 18.91 44.87 18.91C39.0323 18.91 34.3 23.629 34.3 29.45C34.3 35.2711 39.0323 39.99 44.87 39.99Z" fill="#4590BF"/>
<path id="Vector_207" d="M10.57 41C16.4076 41 21.14 36.2811 21.14 30.46C21.14 24.639 16.4076 19.92 10.57 19.92C4.73235 19.92 0 24.639 0 30.46C0 36.2811 4.73235 41 10.57 41Z" fill="#4590BF"/>
<path id="Vector_208" d="M286.94 101.34C292.778 101.34 297.51 96.6211 297.51 90.8C297.51 84.9789 292.778 80.26 286.94 80.26C281.102 80.26 276.37 84.9789 276.37 90.8C276.37 96.6211 281.102 101.34 286.94 101.34Z" fill="#4590BF"/>
<path id="Vector_209" d="M252.65 102.35C258.488 102.35 263.22 97.6311 263.22 91.81C263.22 85.9889 258.488 81.27 252.65 81.27C246.812 81.27 242.08 85.9889 242.08 91.81C242.08 97.6311 246.812 102.35 252.65 102.35Z" fill="#4590BF"/>
<path id="Vector_210" d="M218.35 103.36C224.188 103.36 228.92 98.6411 228.92 92.82C228.92 86.9989 224.188 82.28 218.35 82.28C212.512 82.28 207.78 86.9989 207.78 92.82C207.78 98.6411 212.512 103.36 218.35 103.36Z" fill="#4590BF"/>
<path id="Vector_211" d="M184.06 104.36C189.898 104.36 194.63 99.6411 194.63 93.82C194.63 87.9989 189.898 83.28 184.06 83.28C178.222 83.28 173.49 87.9989 173.49 93.82C173.49 99.6411 178.222 104.36 184.06 104.36Z" fill="#4590BF"/>
<path id="Vector_212" d="M149.77 105.37C155.608 105.37 160.34 100.651 160.34 94.83C160.34 89.009 155.608 84.29 149.77 84.29C143.932 84.29 139.2 89.009 139.2 94.83C139.2 100.651 143.932 105.37 149.77 105.37Z" fill="#4590BF"/>
<path id="Vector_213" d="M115.47 106.38C121.308 106.38 126.04 101.661 126.04 95.84C126.04 90.019 121.308 85.3 115.47 85.3C109.632 85.3 104.9 90.019 104.9 95.84C104.9 101.661 109.632 106.38 115.47 106.38Z" fill="#4590BF"/>
<path id="Vector_214" d="M81.18 107.39C87.0176 107.39 91.75 102.671 91.75 96.8501C91.75 91.029 87.0176 86.3101 81.18 86.3101C75.3423 86.3101 70.61 91.029 70.61 96.8501C70.61 102.671 75.3423 107.39 81.18 107.39Z" fill="#4590BF"/>
<path id="Vector_215" d="M46.89 108.39C52.7277 108.39 57.46 103.671 57.46 97.8501C57.46 92.029 52.7277 87.3101 46.89 87.3101C41.0524 87.3101 36.32 92.029 36.32 97.8501C36.32 103.671 41.0524 108.39 46.89 108.39Z" fill="#4590BF"/>
<path id="Vector_216" d="M12.59 109.4C18.4277 109.4 23.16 104.681 23.16 98.8599C23.16 93.0389 18.4277 88.3199 12.59 88.3199C6.75237 88.3199 2.02002 93.0389 2.02002 98.8599C2.02002 104.681 6.75237 109.4 12.59 109.4Z" fill="#4590BF"/>
<path id="Vector_217" d="M288.96 169.74C294.798 169.74 299.53 165.021 299.53 159.2C299.53 153.379 294.798 148.66 288.96 148.66C283.122 148.66 278.39 153.379 278.39 159.2C278.39 165.021 283.122 169.74 288.96 169.74Z" fill="#4590BF"/>
<path id="Vector_218" d="M254.67 170.75C260.508 170.75 265.24 166.031 265.24 160.21C265.24 154.389 260.508 149.67 254.67 149.67C248.832 149.67 244.1 154.389 244.1 160.21C244.1 166.031 248.832 170.75 254.67 170.75Z" fill="#4590BF"/>
<path id="Vector_219" d="M220.37 171.76C226.208 171.76 230.94 167.041 230.94 161.22C230.94 155.399 226.208 150.68 220.37 150.68C214.532 150.68 209.8 155.399 209.8 161.22C209.8 167.041 214.532 171.76 220.37 171.76Z" fill="#4590BF"/>
<path id="Vector_220" d="M186.08 172.77C191.918 172.77 196.65 168.051 196.65 162.23C196.65 156.409 191.918 151.69 186.08 151.69C180.242 151.69 175.51 156.409 175.51 162.23C175.51 168.051 180.242 172.77 186.08 172.77Z" fill="#4590BF"/>
<path id="Vector_221" d="M151.79 173.77C157.628 173.77 162.36 169.051 162.36 163.23C162.36 157.409 157.628 152.69 151.79 152.69C145.952 152.69 141.22 157.409 141.22 163.23C141.22 169.051 145.952 173.77 151.79 173.77Z" fill="#4590BF"/>
<path id="Vector_222" d="M117.49 174.78C123.328 174.78 128.06 170.061 128.06 164.24C128.06 158.419 123.328 153.7 117.49 153.7C111.652 153.7 106.92 158.419 106.92 164.24C106.92 170.061 111.652 174.78 117.49 174.78Z" fill="#4590BF"/>
<path id="Vector_223" d="M83.2 175.79C89.0377 175.79 93.77 171.071 93.77 165.25C93.77 159.429 89.0377 154.71 83.2 154.71C77.3624 154.71 72.63 159.429 72.63 165.25C72.63 171.071 77.3624 175.79 83.2 175.79Z" fill="#4590BF"/>
<path id="Vector_224" d="M48.91 176.8C54.7477 176.8 59.48 172.081 59.48 166.26C59.48 160.439 54.7477 155.72 48.91 155.72C43.0724 155.72 38.34 160.439 38.34 166.26C38.34 172.081 43.0724 176.8 48.91 176.8Z" fill="#4590BF"/>
<path id="Vector_225" d="M14.61 177.8C20.4476 177.8 25.18 173.081 25.18 167.26C25.18 161.439 20.4476 156.72 14.61 156.72C8.77233 156.72 4.03998 161.439 4.03998 167.26C4.03998 173.081 8.77233 177.8 14.61 177.8Z" fill="#4590BF"/>
<path id="Vector_226" d="M290.98 238.15C296.818 238.15 301.55 233.431 301.55 227.61C301.55 221.789 296.818 217.07 290.98 217.07C285.142 217.07 280.41 221.789 280.41 227.61C280.41 233.431 285.142 238.15 290.98 238.15Z" fill="#4590BF"/>
<path id="Vector_227" d="M256.69 239.15C262.528 239.15 267.26 234.431 267.26 228.61C267.26 222.789 262.528 218.07 256.69 218.07C250.852 218.07 246.12 222.789 246.12 228.61C246.12 234.431 250.852 239.15 256.69 239.15Z" fill="#4590BF"/>
<path id="Vector_228" d="M222.39 240.16C228.228 240.16 232.96 235.441 232.96 229.62C232.96 223.799 228.228 219.08 222.39 219.08C216.552 219.08 211.82 223.799 211.82 229.62C211.82 235.441 216.552 240.16 222.39 240.16Z" fill="#4590BF"/>
<path id="Vector_229" d="M188.1 241.17C193.938 241.17 198.67 236.451 198.67 230.63C198.67 224.809 193.938 220.09 188.1 220.09C182.262 220.09 177.53 224.809 177.53 230.63C177.53 236.451 182.262 241.17 188.1 241.17Z" fill="#4590BF"/>
<path id="Vector_230" d="M153.81 242.18C159.648 242.18 164.38 237.461 164.38 231.64C164.38 225.819 159.648 221.1 153.81 221.1C147.972 221.1 143.24 225.819 143.24 231.64C143.24 237.461 147.972 242.18 153.81 242.18Z" fill="#4590BF"/>
<path id="Vector_231" d="M119.51 243.18C125.348 243.18 130.08 238.461 130.08 232.64C130.08 226.819 125.348 222.1 119.51 222.1C113.672 222.1 108.94 226.819 108.94 232.64C108.94 238.461 113.672 243.18 119.51 243.18Z" fill="#4590BF"/>
<path id="Vector_232" d="M85.22 244.19C91.0577 244.19 95.79 239.471 95.79 233.65C95.79 227.829 91.0577 223.11 85.22 223.11C79.3824 223.11 74.65 227.829 74.65 233.65C74.65 239.471 79.3824 244.19 85.22 244.19Z" fill="#4590BF"/>
<path id="Vector_233" d="M50.93 245.2C56.7676 245.2 61.5 240.481 61.5 234.66C61.5 228.839 56.7676 224.12 50.93 224.12C45.0923 224.12 40.36 228.839 40.36 234.66C40.36 240.481 45.0923 245.2 50.93 245.2Z" fill="#4590BF"/>
<path id="Vector_234" d="M16.63 246.21C22.4676 246.21 27.2 241.491 27.2 235.67C27.2 229.849 22.4676 225.13 16.63 225.13C10.7923 225.13 6.06 229.849 6.06 235.67C6.06 241.491 10.7923 246.21 16.63 246.21Z" fill="#4590BF"/>
<path id="Vector_235" d="M293 306.55C298.838 306.55 303.57 301.831 303.57 296.01C303.57 290.189 298.838 285.47 293 285.47C287.162 285.47 282.43 290.189 282.43 296.01C282.43 301.831 287.162 306.55 293 306.55Z" fill="#4590BF"/>
<path id="Vector_236" d="M258.71 307.56C264.548 307.56 269.28 302.841 269.28 297.02C269.28 291.199 264.548 286.48 258.71 286.48C252.872 286.48 248.14 291.199 248.14 297.02C248.14 302.841 252.872 307.56 258.71 307.56Z" fill="#4590BF"/>
<path id="Vector_237" d="M224.41 308.57C230.248 308.57 234.98 303.851 234.98 298.03C234.98 292.209 230.248 287.49 224.41 287.49C218.572 287.49 213.84 292.209 213.84 298.03C213.84 303.851 218.572 308.57 224.41 308.57Z" fill="#4590BF"/>
<path id="Vector_238" d="M190.12 309.57C195.958 309.57 200.69 304.851 200.69 299.03C200.69 293.209 195.958 288.49 190.12 288.49C184.282 288.49 179.55 293.209 179.55 299.03C179.55 304.851 184.282 309.57 190.12 309.57Z" fill="#4590BF"/>
<path id="Vector_239" d="M155.83 310.58C161.668 310.58 166.4 305.861 166.4 300.04C166.4 294.219 161.668 289.5 155.83 289.5C149.992 289.5 145.26 294.219 145.26 300.04C145.26 305.861 149.992 310.58 155.83 310.58Z" fill="#4590BF"/>
<path id="Vector_240" d="M121.53 311.59C127.368 311.59 132.1 306.871 132.1 301.05C132.1 295.229 127.368 290.51 121.53 290.51C115.692 290.51 110.96 295.229 110.96 301.05C110.96 306.871 115.692 311.59 121.53 311.59Z" fill="#4590BF"/>
<path id="Vector_241" d="M87.24 312.59C93.0776 312.59 97.81 307.871 97.81 302.05C97.81 296.229 93.0776 291.51 87.24 291.51C81.4023 291.51 76.67 296.229 76.67 302.05C76.67 307.871 81.4023 312.59 87.24 312.59Z" fill="#4590BF"/>
<path id="Vector_242" d="M52.95 313.6C58.7877 313.6 63.52 308.881 63.52 303.06C63.52 297.239 58.7877 292.52 52.95 292.52C47.1124 292.52 42.38 297.239 42.38 303.06C42.38 308.881 47.1124 313.6 52.95 313.6Z" fill="#4590BF"/>
<path id="Vector_243" d="M18.65 314.61C24.4877 314.61 29.22 309.891 29.22 304.07C29.22 298.249 24.4877 293.53 18.65 293.53C12.8124 293.53 8.08002 298.249 8.08002 304.07C8.08002 309.891 12.8124 314.61 18.65 314.61Z" fill="#4590BF"/>
<path id="Vector_244" d="M130.63 88.46C130.4 88.94 130.17 89.4 129.96 89.86C100.23 152.45 115.64 224.98 163.35 270.53C174.89 281.53 188.32 290.97 203.47 298.31C238 315.03 275.63 318.04 310.17 309.47C312.76 308.83 313.4 305.49 311.24 303.92C298.19 294.44 288.46 281.65 282.66 267.31C279.2 258.78 277.14 249.69 276.62 240.43C275.94 228.63 282.9 205.98 285.22 199C285.51 198.14 284.71 197.32 283.84 197.57C274.19 200.32 263.54 199.67 253.79 194.95C232.8 184.79 224.04 159.59 234.24 138.64C239.48 127.88 248.7 120.35 259.29 116.95C260.92 116.43 261.77 114.64 261.18 113.04C253.54 92.27 254.04 68.55 264.5 47.08C268.25 39.38 273.02 32.51 278.56 26.55C281.89 22.96 285.51 19.7 289.36 16.79C294.92 12.56 300.97 9.06001 307.35 6.34001C308.5 5.85001 308.35 4.19001 307.13 3.91001C237.33 -11.97 163.25 21.49 130.63 88.47V88.46Z" fill="#F299B9"/>
<path id="Vector_245" d="M255.67 22.79C249.07 29.2 246.3 44.12 242.82 49C240.57 51.95 240.04 52.42 236.92 54.27H236.96C236.96 54.27 236.85 54.32 236.8 54.35C236.8 54.33 236.84 54.32 236.85 54.31C236.87 54.3 236.89 54.29 236.91 54.27C234.79 55.09 232.69 56 230.43 56.43C222.71 58.21 208.82 55.39 197.84 56.31C161.59 58.73 135.25 97.5499 146.42 132.04C151.88 149.36 163.9 163.84 157.36 179.81C141.73 209.96 152.86 255.24 188.14 270.11C215.33 282.87 231.58 271.9 247.44 249.5C251.55 245.35 254.31 242.55 258.24 242.45C260.31 242.63 267.67 248.07 272.91 254.03C275.76 257.16 279.03 262.3 282.65 267.32C279.19 258.79 277.13 249.7 276.61 240.44C269.91 233.84 262.03 229.27 252.82 231.28C240.25 235.44 234.19 248.33 225.35 257.15C223.67 258.72 222.29 259.98 219.04 261.72C219.08 261.69 219.12 261.66 219.15 261.64C217.84 262.23 216.47 262.68 215.07 263.03C215.13 263.03 215.18 263.01 215.24 263C215.88 262.9 214.8 263.14 214.76 263.12C214.78 263.11 214.84 263.09 214.93 263.06C214.98 263.06 215.02 263.04 215.07 263.03C213.37 263.3 211.68 263.49 209.95 263.5C209.58 263.5 209.2 263.48 208.84 263.48C208.93 263.49 209.02 263.5 209.12 263.5C208.97 263.5 208.71 263.5 208.59 263.49C208.62 263.49 208.66 263.49 208.72 263.48C208.76 263.48 208.8 263.48 208.84 263.48C199.81 262.64 193.94 260.19 185.87 255.23C167.52 243.74 156.65 217.01 164.85 194.11C185.81 151.94 145.71 137.85 158.55 99.53C163.99 81.4 185.87 65.89 207.2 68.1C266.78 74.57 249.87 39.95 267.96 28.27C269.25 27.7 270.59 27.2 271.97 26.86C273.48 26.48 275.82 26.3 278.55 26.55C281.88 22.96 285.5 19.7 289.35 16.79C277.65 12.85 265.27 13.58 255.67 22.8V22.79Z" fill="white"/>
<path id="Vector_246" d="M434.65 211.65L117.65 296.36L96.85 218.97L413.86 134.26L434.65 211.65Z" fill="#B3B3B3"/>
<path id="Vector_247" d="M202.25 223.52C218.37 219.21 223.32 228.86 227.54 244.57C231.56 259.55 233.04 270.9 216.19 275.41L205.2 278.35C200.8 279.52 200.02 276.6 199.23 273.68L188.43 233.49C187.64 230.57 186.86 227.64 191.26 226.47L202.25 223.53V223.52ZM202.5 236.45C204.72 244.71 207.21 253.68 209.52 262.3C210.03 264.2 210.65 265.91 211.97 265.56C217.46 264.09 216.65 259.61 213.51 247.92C210.76 237.69 208.92 232.31 203.43 233.78C202.11 234.13 202.09 234.92 202.5 236.46V236.45Z" fill="black"/>
<path id="Vector_248" d="M232.32 236.94C229.16 225.18 227.94 216.26 243.4 212.13C258.13 208.19 261.43 216.4 264.55 228.02C265.73 232.4 267.11 236.66 268.15 240.53C271.25 252.08 271.68 260.97 257.54 264.75C242.08 268.88 238.66 260.55 235.52 248.86C234.99 246.89 234.53 244.89 233.98 242.85C233.43 240.81 232.83 238.85 232.32 236.95V236.94ZM243.2 227.45L249.38 250.47C249.97 252.66 250.75 255.58 254.42 254.61C258.09 253.64 257.3 250.71 256.71 248.52L250.53 225.5C250.04 223.67 249.45 221.48 245.79 222.46C242.13 223.44 242.72 225.63 243.21 227.46L243.2 227.45Z" fill="black"/>
<path id="Vector_249" d="M295.06 223.78C295.28 223.72 295.37 223.46 295.23 222.95L290.71 206.14C289.92 203.22 289.14 200.29 293.54 199.12L297.2 198.14C301.6 196.97 302.38 199.89 303.17 202.81L313.97 243C314.76 245.92 315.54 248.85 311.14 250.02C304.55 251.78 303.72 250.75 302.1 248.83L286.68 230.32C286.34 229.94 286.04 229.71 285.9 229.75C285.68 229.81 285.69 230.12 285.8 230.56L290.88 249.17C291.67 252.09 292.45 255.02 288.05 256.19L284.39 257.17C279.99 258.34 279.21 255.42 278.42 252.5L267.62 212.31C266.83 209.39 266.05 206.46 270.45 205.29L274.33 204.25C276.75 203.6 277.63 203.68 279.34 205.65L294.19 223.22C294.55 223.67 294.83 223.83 295.05 223.77L295.06 223.78Z" fill="black"/>
<path id="Vector_250" d="M350.68 223.56C353.11 232.62 353.74 239.03 339.01 242.97C323.55 247.1 320.78 241.18 318.23 231.68C312.03 208.59 310.06 200.97 310.06 200.97C309.27 198.05 308.49 195.12 312.89 193.95L316.55 192.97C320.95 191.8 321.73 194.72 322.52 197.64L331.16 229.79C331.75 231.98 332.24 233.81 336.27 232.73C339.57 231.85 339.08 230.02 338.49 227.83L329.83 195.61C329.06 192.76 328.28 189.84 332.67 188.66L336.33 187.68C340.73 186.51 341.51 189.43 342.28 192.28L350.68 223.55V223.56Z" fill="black"/>
<path id="Vector_251" d="M379.24 226.11C379.84 228.93 380.38 231.52 376.28 232.62L372.62 233.6C368.22 234.77 367.44 231.85 366.65 228.93L357.68 195.54C357.19 193.71 356.71 193.37 355.17 193.78C354.66 193.92 353.94 194.19 353.06 194.42C351.23 194.91 349.68 195.01 349.21 193.25L347.54 187.04C347.15 185.58 348.56 184.42 350.4 183.93L370.62 178.53C372.45 178.04 374.26 178.34 374.65 179.8L376.32 186.01C376.79 187.76 375.4 188.45 373.57 188.94C373.06 189.08 372.38 189.18 371.5 189.42C369.67 189.91 369.64 190.39 370.13 192.21L379.24 226.12V226.11Z" fill="black"/>
<path id="Vector_252" d="M395.51 171.48C401.59 169.85 405.99 169.85 406.54 171.9L408.05 177.53C408.27 178.33 408.35 179.8 405.85 180.47L405.26 180.63C404.09 180.94 401.23 180.84 399.11 181.41C397.35 181.88 396.12 182.84 396.74 185.17C397.36 187.5 398.32 188.43 401.81 190C412.45 194.83 415.59 199.48 417.18 205.39C418.08 208.75 418.83 211.84 417.69 215.2C416.25 219.5 412.82 221.91 411.32 222.78C409.48 223.82 406.77 224.86 404.5 225.46C399.08 226.91 393.53 227.3 392.74 224.37L391.23 218.74C390.99 217.86 391.49 216.79 393.47 216.26C395.45 215.73 397.28 216.42 401.46 215.3C403.51 214.75 405.86 212.4 405.26 210.13C404.81 208.45 404.4 207.23 398.75 204.04C390.15 199.21 386.1 197 384.49 191.01C380.62 176.61 389.63 173.03 395.49 171.47L395.51 171.48Z" fill="black"/>
</g>
<defs>
<clipPath id="clip0_12_268">
<rect width="434.65" height="320" fill="white"/>
</clipPath>
</defs>
</svg>
