<svg width="435" height="320" viewBox="0 0 435 320" fill="none" xmlns="http://www.w3.org/2000/svg">
<g id="donut-off" clip-path="url(#clip0_12_2)">
<path id="Vector" d="M342.45 70.98C348.288 70.98 353.02 66.2566 353.02 60.43C353.02 54.6034 348.288 49.88 342.45 49.88C336.612 49.88 331.88 54.6034 331.88 60.43C331.88 66.2566 336.612 70.98 342.45 70.98Z" fill="#F2C53D"/>
<path id="Vector_2" d="M308.16 71.98C313.998 71.98 318.73 67.2566 318.73 61.43C318.73 55.6034 313.998 50.88 308.16 50.88C302.322 50.88 297.59 55.6034 297.59 61.43C297.59 67.2566 302.322 71.98 308.16 71.98Z" fill="#F2C53D"/>
<path id="Vector_3" d="M273.86 72.99C279.698 72.99 284.43 68.2666 284.43 62.44C284.43 56.6134 279.698 51.89 273.86 51.89C268.022 51.89 263.29 56.6134 263.29 62.44C263.29 68.2666 268.022 72.99 273.86 72.99Z" fill="#F2C53D"/>
<path id="Vector_4" d="M239.57 74C245.408 74 250.14 69.2766 250.14 63.45C250.14 57.6234 245.408 52.9 239.57 52.9C233.732 52.9 229 57.6234 229 63.45C229 69.2766 233.732 74 239.57 74Z" fill="#F2C53D"/>
<path id="Vector_5" d="M205.28 75.01C211.118 75.01 215.85 70.2866 215.85 64.46C215.85 58.6334 211.118 53.91 205.28 53.91C199.442 53.91 194.71 58.6334 194.71 64.46C194.71 70.2866 199.442 75.01 205.28 75.01Z" fill="#F2C53D"/>
<path id="Vector_6" d="M170.98 76.01C176.818 76.01 181.55 71.2866 181.55 65.46C181.55 59.6334 176.818 54.91 170.98 54.91C165.142 54.91 160.41 59.6334 160.41 65.46C160.41 71.2866 165.142 76.01 170.98 76.01Z" fill="#F2C53D"/>
<path id="Vector_7" d="M136.69 77.02C142.528 77.02 147.26 72.2966 147.26 66.47C147.26 60.6434 142.528 55.92 136.69 55.92C130.852 55.92 126.12 60.6434 126.12 66.47C126.12 72.2966 130.852 77.02 136.69 77.02Z" fill="#F2C53D"/>
<path id="Vector_8" d="M102.4 78.0301C108.238 78.0301 112.97 73.3067 112.97 67.4801C112.97 61.6535 108.238 56.9301 102.4 56.9301C96.5623 56.9301 91.83 61.6535 91.83 67.4801C91.83 73.3067 96.5623 78.0301 102.4 78.0301Z" fill="#F2C53D"/>
<path id="Vector_9" d="M68.11 79.0301C73.9477 79.0301 78.68 74.3067 78.68 68.4801C78.68 62.6535 73.9477 57.9301 68.11 57.9301C62.2724 57.9301 57.54 62.6535 57.54 68.4801C57.54 74.3067 62.2724 79.0301 68.11 79.0301Z" fill="#F2C53D"/>
<path id="Vector_10" d="M344.47 139.38C350.308 139.38 355.04 134.657 355.04 128.83C355.04 123.003 350.308 118.28 344.47 118.28C338.632 118.28 333.9 123.003 333.9 128.83C333.9 134.657 338.632 139.38 344.47 139.38Z" fill="#F2C53D"/>
<path id="Vector_11" d="M310.18 140.39C316.018 140.39 320.75 135.667 320.75 129.84C320.75 124.013 316.018 119.29 310.18 119.29C304.342 119.29 299.61 124.013 299.61 129.84C299.61 135.667 304.342 140.39 310.18 140.39Z" fill="#F2C53D"/>
<path id="Vector_12" d="M275.88 141.39C281.718 141.39 286.45 136.667 286.45 130.84C286.45 125.013 281.718 120.29 275.88 120.29C270.042 120.29 265.31 125.013 265.31 130.84C265.31 136.667 270.042 141.39 275.88 141.39Z" fill="#F2C53D"/>
<path id="Vector_13" d="M241.59 142.4C247.428 142.4 252.16 137.677 252.16 131.85C252.16 126.023 247.428 121.3 241.59 121.3C235.752 121.3 231.02 126.023 231.02 131.85C231.02 137.677 235.752 142.4 241.59 142.4Z" fill="#F2C53D"/>
<path id="Vector_14" d="M207.3 143.41C213.138 143.41 217.87 138.687 217.87 132.86C217.87 127.033 213.138 122.31 207.3 122.31C201.462 122.31 196.73 127.033 196.73 132.86C196.73 138.687 201.462 143.41 207.3 143.41Z" fill="#F2C53D"/>
<path id="Vector_15" d="M173.01 144.42C178.848 144.42 183.58 139.697 183.58 133.87C183.58 128.043 178.848 123.32 173.01 123.32C167.172 123.32 162.44 128.043 162.44 133.87C162.44 139.697 167.172 144.42 173.01 144.42Z" fill="#F2C53D"/>
<path id="Vector_16" d="M138.71 145.42C144.548 145.42 149.28 140.697 149.28 134.87C149.28 129.043 144.548 124.32 138.71 124.32C132.872 124.32 128.14 129.043 128.14 134.87C128.14 140.697 132.872 145.42 138.71 145.42Z" fill="#F2C53D"/>
<path id="Vector_17" d="M104.42 146.43C110.258 146.43 114.99 141.707 114.99 135.88C114.99 130.053 110.258 125.33 104.42 125.33C98.5823 125.33 93.85 130.053 93.85 135.88C93.85 141.707 98.5823 146.43 104.42 146.43Z" fill="#F2C53D"/>
<path id="Vector_18" d="M70.1301 147.44C75.9677 147.44 80.7001 142.717 80.7001 136.89C80.7001 131.063 75.9677 126.34 70.1301 126.34C64.2924 126.34 59.5601 131.063 59.5601 136.89C59.5601 142.717 64.2924 147.44 70.1301 147.44Z" fill="#F2C53D"/>
<path id="Vector_19" d="M346.49 207.78C352.328 207.78 357.06 203.057 357.06 197.23C357.06 191.403 352.328 186.68 346.49 186.68C340.652 186.68 335.92 191.403 335.92 197.23C335.92 203.057 340.652 207.78 346.49 207.78Z" fill="#F2C53D"/>
<path id="Vector_20" d="M312.2 208.79C318.038 208.79 322.77 204.067 322.77 198.24C322.77 192.413 318.038 187.69 312.2 187.69C306.362 187.69 301.63 192.413 301.63 198.24C301.63 204.067 306.362 208.79 312.2 208.79Z" fill="#F2C53D"/>
<path id="Vector_21" d="M277.91 209.8C283.748 209.8 288.48 205.077 288.48 199.25C288.48 193.423 283.748 188.7 277.91 188.7C272.072 188.7 267.34 193.423 267.34 199.25C267.34 205.077 272.072 209.8 277.91 209.8Z" fill="#F2C53D"/>
<path id="Vector_22" d="M243.61 210.81C249.448 210.81 254.18 206.087 254.18 200.26C254.18 194.433 249.448 189.71 243.61 189.71C237.772 189.71 233.04 194.433 233.04 200.26C233.04 206.087 237.772 210.81 243.61 210.81Z" fill="#F2C53D"/>
<path id="Vector_23" d="M209.32 211.81C215.158 211.81 219.89 207.087 219.89 201.26C219.89 195.433 215.158 190.71 209.32 190.71C203.482 190.71 198.75 195.433 198.75 201.26C198.75 207.087 203.482 211.81 209.32 211.81Z" fill="#F2C53D"/>
<path id="Vector_24" d="M175.03 212.82C180.868 212.82 185.6 208.097 185.6 202.27C185.6 196.443 180.868 191.72 175.03 191.72C169.192 191.72 164.46 196.443 164.46 202.27C164.46 208.097 169.192 212.82 175.03 212.82Z" fill="#F2C53D"/>
<path id="Vector_25" d="M140.73 213.83C146.568 213.83 151.3 209.107 151.3 203.28C151.3 197.453 146.568 192.73 140.73 192.73C134.892 192.73 130.16 197.453 130.16 203.28C130.16 209.107 134.892 213.83 140.73 213.83Z" fill="#F2C53D"/>
<path id="Vector_26" d="M106.44 214.84C112.278 214.84 117.01 210.117 117.01 204.29C117.01 198.463 112.278 193.74 106.44 193.74C100.602 193.74 95.87 198.463 95.87 204.29C95.87 210.117 100.602 214.84 106.44 214.84Z" fill="#F2C53D"/>
<path id="Vector_27" d="M72.15 215.84C77.9876 215.84 82.72 211.117 82.72 205.29C82.72 199.463 77.9876 194.74 72.15 194.74C66.3123 194.74 61.58 199.463 61.58 205.29C61.58 211.117 66.3123 215.84 72.15 215.84Z" fill="#F2C53D"/>
<path id="Vector_28" d="M348.51 276.19C354.348 276.19 359.08 271.467 359.08 265.64C359.08 259.813 354.348 255.09 348.51 255.09C342.672 255.09 337.94 259.813 337.94 265.64C337.94 271.467 342.672 276.19 348.51 276.19Z" fill="#F2C53D"/>
<path id="Vector_29" d="M314.22 277.2C320.058 277.2 324.79 272.477 324.79 266.65C324.79 260.823 320.058 256.1 314.22 256.1C308.382 256.1 303.65 260.823 303.65 266.65C303.65 272.477 308.382 277.2 314.22 277.2Z" fill="#F2C53D"/>
<path id="Vector_30" d="M279.93 278.2C285.768 278.2 290.5 273.477 290.5 267.65C290.5 261.823 285.768 257.1 279.93 257.1C274.092 257.1 269.36 261.823 269.36 267.65C269.36 273.477 274.092 278.2 279.93 278.2Z" fill="#F2C53D"/>
<path id="Vector_31" d="M245.63 279.21C251.468 279.21 256.2 274.487 256.2 268.66C256.2 262.833 251.468 258.11 245.63 258.11C239.792 258.11 235.06 262.833 235.06 268.66C235.06 274.487 239.792 279.21 245.63 279.21Z" fill="#F2C53D"/>
<path id="Vector_32" d="M211.34 280.22C217.178 280.22 221.91 275.497 221.91 269.67C221.91 263.843 217.178 259.12 211.34 259.12C205.502 259.12 200.77 263.843 200.77 269.67C200.77 275.497 205.502 280.22 211.34 280.22Z" fill="#F2C53D"/>
<path id="Vector_33" d="M177.05 281.23C182.888 281.23 187.62 276.507 187.62 270.68C187.62 264.853 182.888 260.13 177.05 260.13C171.212 260.13 166.48 264.853 166.48 270.68C166.48 276.507 171.212 281.23 177.05 281.23Z" fill="#F2C53D"/>
<path id="Vector_34" d="M142.75 282.23C148.588 282.23 153.32 277.507 153.32 271.68C153.32 265.853 148.588 261.13 142.75 261.13C136.912 261.13 132.18 265.853 132.18 271.68C132.18 277.507 136.912 282.23 142.75 282.23Z" fill="#F2C53D"/>
<path id="Vector_35" d="M108.46 283.24C114.298 283.24 119.03 278.517 119.03 272.69C119.03 266.863 114.298 262.14 108.46 262.14C102.622 262.14 97.89 266.863 97.89 272.69C97.89 278.517 102.622 283.24 108.46 283.24Z" fill="#F2C53D"/>
<path id="Vector_36" d="M74.17 284.25C80.0076 284.25 84.74 279.527 84.74 273.7C84.74 267.873 80.0076 263.15 74.17 263.15C68.3323 263.15 63.6 267.873 63.6 273.7C63.6 279.527 68.3323 284.25 74.17 284.25Z" fill="#F2C53D"/>
<path id="Vector_37" d="M288.52 38.33C294.358 38.33 299.09 33.6066 299.09 27.78C299.09 21.9534 294.358 17.23 288.52 17.23C282.682 17.23 277.95 21.9534 277.95 27.78C277.95 33.6066 282.682 38.33 288.52 38.33Z" fill="#F2C53D"/>
<path id="Vector_38" d="M254.23 39.34C260.068 39.34 264.8 34.6166 264.8 28.79C264.8 22.9634 260.068 18.24 254.23 18.24C248.392 18.24 243.66 22.9634 243.66 28.79C243.66 34.6166 248.392 39.34 254.23 39.34Z" fill="#F2C53D"/>
<path id="Vector_39" d="M219.93 40.34C225.768 40.34 230.5 35.6166 230.5 29.79C230.5 23.9634 225.768 19.24 219.93 19.24C214.092 19.24 209.36 23.9634 209.36 29.79C209.36 35.6166 214.092 40.34 219.93 40.34Z" fill="#F2C53D"/>
<path id="Vector_40" d="M185.64 41.35C191.478 41.35 196.21 36.6266 196.21 30.8C196.21 24.9734 191.478 20.25 185.64 20.25C179.802 20.25 175.07 24.9734 175.07 30.8C175.07 36.6266 179.802 41.35 185.64 41.35Z" fill="#F2C53D"/>
<path id="Vector_41" d="M151.35 42.36C157.188 42.36 161.92 37.6366 161.92 31.81C161.92 25.9834 157.188 21.26 151.35 21.26C145.512 21.26 140.78 25.9834 140.78 31.81C140.78 37.6366 145.512 42.36 151.35 42.36Z" fill="#F2C53D"/>
<path id="Vector_42" d="M117.05 43.36C122.888 43.36 127.62 38.6366 127.62 32.81C127.62 26.9834 122.888 22.26 117.05 22.26C111.212 22.26 106.48 26.9834 106.48 32.81C106.48 38.6366 111.212 43.36 117.05 43.36Z" fill="#F2C53D"/>
<path id="Vector_43" d="M82.7599 44.37C88.5976 44.37 93.3299 39.6466 93.3299 33.82C93.3299 27.9934 88.5976 23.27 82.7599 23.27C76.9223 23.27 72.1899 27.9934 72.1899 33.82C72.1899 39.6466 76.9223 44.37 82.7599 44.37Z" fill="#F2C53D"/>
<path id="Vector_44" d="M48.47 45.38C54.3077 45.38 59.04 40.6566 59.04 34.83C59.04 29.0034 54.3077 24.28 48.47 24.28C42.6324 24.28 37.9 29.0034 37.9 34.83C37.9 40.6566 42.6324 45.38 48.47 45.38Z" fill="#F2C53D"/>
<path id="Vector_45" d="M14.17 46.39C20.0076 46.39 24.74 41.6666 24.74 35.84C24.74 30.0134 20.0076 25.29 14.17 25.29C8.33233 25.29 3.59998 30.0134 3.59998 35.84C3.59998 41.6666 8.33233 46.39 14.17 46.39Z" fill="#F2C53D"/>
<path id="Vector_46" d="M290.54 106.73C296.378 106.73 301.11 102.007 301.11 96.18C301.11 90.3534 296.378 85.63 290.54 85.63C284.702 85.63 279.97 90.3534 279.97 96.18C279.97 102.007 284.702 106.73 290.54 106.73Z" fill="#F2C53D"/>
<path id="Vector_47" d="M256.25 107.74C262.088 107.74 266.82 103.017 266.82 97.19C266.82 91.3634 262.088 86.64 256.25 86.64C250.412 86.64 245.68 91.3634 245.68 97.19C245.68 103.017 250.412 107.74 256.25 107.74Z" fill="#F2C53D"/>
<path id="Vector_48" d="M221.95 108.75C227.788 108.75 232.52 104.027 232.52 98.2C232.52 92.3734 227.788 87.65 221.95 87.65C216.112 87.65 211.38 92.3734 211.38 98.2C211.38 104.027 216.112 108.75 221.95 108.75Z" fill="#F2C53D"/>
<path id="Vector_49" d="M187.66 109.75C193.498 109.75 198.23 105.027 198.23 99.2C198.23 93.3734 193.498 88.65 187.66 88.65C181.822 88.65 177.09 93.3734 177.09 99.2C177.09 105.027 181.822 109.75 187.66 109.75Z" fill="#F2C53D"/>
<path id="Vector_50" d="M153.37 110.76C159.208 110.76 163.94 106.037 163.94 100.21C163.94 94.3834 159.208 89.66 153.37 89.66C147.532 89.66 142.8 94.3834 142.8 100.21C142.8 106.037 147.532 110.76 153.37 110.76Z" fill="#F2C53D"/>
<path id="Vector_51" d="M119.07 111.77C124.908 111.77 129.64 107.047 129.64 101.22C129.64 95.3934 124.908 90.67 119.07 90.67C113.232 90.67 108.5 95.3934 108.5 101.22C108.5 107.047 113.232 111.77 119.07 111.77Z" fill="#F2C53D"/>
<path id="Vector_52" d="M84.78 112.78C90.6176 112.78 95.35 108.057 95.35 102.23C95.35 96.4033 90.6176 91.6799 84.78 91.6799C78.9423 91.6799 74.21 96.4033 74.21 102.23C74.21 108.057 78.9423 112.78 84.78 112.78Z" fill="#F2C53D"/>
<path id="Vector_53" d="M50.49 113.78C56.3277 113.78 61.06 109.057 61.06 103.23C61.06 97.4033 56.3277 92.6799 50.49 92.6799C44.6524 92.6799 39.92 97.4033 39.92 103.23C39.92 109.057 44.6524 113.78 50.49 113.78Z" fill="#F2C53D"/>
<path id="Vector_54" d="M16.19 114.79C22.0276 114.79 26.76 110.067 26.76 104.24C26.76 98.4133 22.0276 93.6899 16.19 93.6899C10.3523 93.6899 5.62 98.4133 5.62 104.24C5.62 110.067 10.3523 114.79 16.19 114.79Z" fill="#F2C53D"/>
<path id="Vector_55" d="M292.56 175.14C298.398 175.14 303.13 170.417 303.13 164.59C303.13 158.763 298.398 154.04 292.56 154.04C286.722 154.04 281.99 158.763 281.99 164.59C281.99 170.417 286.722 175.14 292.56 175.14Z" fill="#F2C53D"/>
<path id="Vector_56" d="M258.27 176.14C264.108 176.14 268.84 171.417 268.84 165.59C268.84 159.763 264.108 155.04 258.27 155.04C252.432 155.04 247.7 159.763 247.7 165.59C247.7 171.417 252.432 176.14 258.27 176.14Z" fill="#F2C53D"/>
<path id="Vector_57" d="M223.97 177.15C229.808 177.15 234.54 172.427 234.54 166.6C234.54 160.773 229.808 156.05 223.97 156.05C218.132 156.05 213.4 160.773 213.4 166.6C213.4 172.427 218.132 177.15 223.97 177.15Z" fill="#F2C53D"/>
<path id="Vector_58" d="M189.68 178.16C195.518 178.16 200.25 173.437 200.25 167.61C200.25 161.783 195.518 157.06 189.68 157.06C183.842 157.06 179.11 161.783 179.11 167.61C179.11 173.437 183.842 178.16 189.68 178.16Z" fill="#F2C53D"/>
<path id="Vector_59" d="M155.39 179.17C161.228 179.17 165.96 174.447 165.96 168.62C165.96 162.793 161.228 158.07 155.39 158.07C149.552 158.07 144.82 162.793 144.82 168.62C144.82 174.447 149.552 179.17 155.39 179.17Z" fill="#F2C53D"/>
<path id="Vector_60" d="M121.09 180.17C126.928 180.17 131.66 175.447 131.66 169.62C131.66 163.793 126.928 159.07 121.09 159.07C115.252 159.07 110.52 163.793 110.52 169.62C110.52 175.447 115.252 180.17 121.09 180.17Z" fill="#F2C53D"/>
<path id="Vector_61" d="M86.8 181.18C92.6376 181.18 97.37 176.457 97.37 170.63C97.37 164.803 92.6376 160.08 86.8 160.08C80.9623 160.08 76.23 164.803 76.23 170.63C76.23 176.457 80.9623 181.18 86.8 181.18Z" fill="#F2C53D"/>
<path id="Vector_62" d="M52.5099 182.19C58.3476 182.19 63.0799 177.467 63.0799 171.64C63.0799 165.813 58.3476 161.09 52.5099 161.09C46.6723 161.09 41.9399 165.813 41.9399 171.64C41.9399 177.467 46.6723 182.19 52.5099 182.19Z" fill="#F2C53D"/>
<path id="Vector_63" d="M18.21 183.2C24.0477 183.2 28.78 178.477 28.78 172.65C28.78 166.823 24.0477 162.1 18.21 162.1C12.3724 162.1 7.64001 166.823 7.64001 172.65C7.64001 178.477 12.3724 183.2 18.21 183.2Z" fill="#F2C53D"/>
<path id="Vector_64" d="M294.58 243.54C300.418 243.54 305.15 238.817 305.15 232.99C305.15 227.163 300.418 222.44 294.58 222.44C288.742 222.44 284.01 227.163 284.01 232.99C284.01 238.817 288.742 243.54 294.58 243.54Z" fill="#F2C53D"/>
<path id="Vector_65" d="M260.29 244.55C266.128 244.55 270.86 239.827 270.86 234C270.86 228.173 266.128 223.45 260.29 223.45C254.452 223.45 249.72 228.173 249.72 234C249.72 239.827 254.452 244.55 260.29 244.55Z" fill="#F2C53D"/>
<path id="Vector_66" d="M225.99 245.56C231.828 245.56 236.56 240.837 236.56 235.01C236.56 229.183 231.828 224.46 225.99 224.46C220.152 224.46 215.42 229.183 215.42 235.01C215.42 240.837 220.152 245.56 225.99 245.56Z" fill="#F2C53D"/>
<path id="Vector_67" d="M191.7 246.56C197.538 246.56 202.27 241.837 202.27 236.01C202.27 230.183 197.538 225.46 191.7 225.46C185.862 225.46 181.13 230.183 181.13 236.01C181.13 241.837 185.862 246.56 191.7 246.56Z" fill="#F2C53D"/>
<path id="Vector_68" d="M157.41 247.57C163.248 247.57 167.98 242.847 167.98 237.02C167.98 231.193 163.248 226.47 157.41 226.47C151.572 226.47 146.84 231.193 146.84 237.02C146.84 242.847 151.572 247.57 157.41 247.57Z" fill="#F2C53D"/>
<path id="Vector_69" d="M123.11 248.58C128.948 248.58 133.68 243.857 133.68 238.03C133.68 232.203 128.948 227.48 123.11 227.48C117.272 227.48 112.54 232.203 112.54 238.03C112.54 243.857 117.272 248.58 123.11 248.58Z" fill="#F2C53D"/>
<path id="Vector_70" d="M88.82 249.59C94.6576 249.59 99.39 244.867 99.39 239.04C99.39 233.213 94.6576 228.49 88.82 228.49C82.9823 228.49 78.25 233.213 78.25 239.04C78.25 244.867 82.9823 249.59 88.82 249.59Z" fill="#F2C53D"/>
<path id="Vector_71" d="M54.53 250.59C60.3676 250.59 65.1 245.867 65.1 240.04C65.1 234.213 60.3676 229.49 54.53 229.49C48.6923 229.49 43.96 234.213 43.96 240.04C43.96 245.867 48.6923 250.59 54.53 250.59Z" fill="#F2C53D"/>
<path id="Vector_72" d="M20.23 251.6C26.0677 251.6 30.8 246.877 30.8 241.05C30.8 235.223 26.0677 230.5 20.23 230.5C14.3924 230.5 9.66003 235.223 9.66003 241.05C9.66003 246.877 14.3924 251.6 20.23 251.6Z" fill="#F2C53D"/>
<path id="Vector_73" d="M296.6 311.95C302.438 311.95 307.17 307.227 307.17 301.4C307.17 295.573 302.438 290.85 296.6 290.85C290.762 290.85 286.03 295.573 286.03 301.4C286.03 307.227 290.762 311.95 296.6 311.95Z" fill="#F2C53D"/>
<path id="Vector_74" d="M262.31 312.95C268.148 312.95 272.88 308.227 272.88 302.4C272.88 296.573 268.148 291.85 262.31 291.85C256.472 291.85 251.74 296.573 251.74 302.4C251.74 308.227 256.472 312.95 262.31 312.95Z" fill="#F2C53D"/>
<path id="Vector_75" d="M228.01 313.96C233.848 313.96 238.58 309.237 238.58 303.41C238.58 297.583 233.848 292.86 228.01 292.86C222.172 292.86 217.44 297.583 217.44 303.41C217.44 309.237 222.172 313.96 228.01 313.96Z" fill="#F2C53D"/>
<path id="Vector_76" d="M193.72 314.97C199.558 314.97 204.29 310.247 204.29 304.42C204.29 298.593 199.558 293.87 193.72 293.87C187.882 293.87 183.15 298.593 183.15 304.42C183.15 310.247 187.882 314.97 193.72 314.97Z" fill="#F2C53D"/>
<path id="Vector_77" d="M159.43 315.98C165.268 315.98 170 311.257 170 305.43C170 299.603 165.268 294.88 159.43 294.88C153.592 294.88 148.86 299.603 148.86 305.43C148.86 311.257 153.592 315.98 159.43 315.98Z" fill="#F2C53D"/>
<path id="Vector_78" d="M125.13 316.98C130.968 316.98 135.7 312.257 135.7 306.43C135.7 300.603 130.968 295.88 125.13 295.88C119.292 295.88 114.56 300.603 114.56 306.43C114.56 312.257 119.292 316.98 125.13 316.98Z" fill="#F2C53D"/>
<path id="Vector_79" d="M90.84 317.99C96.6777 317.99 101.41 313.267 101.41 307.44C101.41 301.613 96.6777 296.89 90.84 296.89C85.0024 296.89 80.27 301.613 80.27 307.44C80.27 313.267 85.0024 317.99 90.84 317.99Z" fill="#F2C53D"/>
<path id="Vector_80" d="M56.55 319C62.3876 319 67.12 314.277 67.12 308.45C67.12 302.623 62.3876 297.9 56.55 297.9C50.7123 297.9 45.98 302.623 45.98 308.45C45.98 314.277 50.7123 319 56.55 319Z" fill="#F2C53D"/>
<path id="Vector_81" d="M22.2501 320C28.0877 320 32.8201 315.277 32.8201 309.45C32.8201 303.623 28.0877 298.9 22.2501 298.9C16.4124 298.9 11.6801 303.623 11.6801 309.45C11.6801 315.277 16.4124 320 22.2501 320Z" fill="#F2C53D"/>
<path id="Vector_82" d="M342.45 70.98C348.288 70.98 353.02 66.2566 353.02 60.43C353.02 54.6034 348.288 49.88 342.45 49.88C336.612 49.88 331.88 54.6034 331.88 60.43C331.88 66.2566 336.612 70.98 342.45 70.98Z" fill="#F2C53D"/>
<path id="Vector_83" d="M308.16 71.98C313.998 71.98 318.73 67.2566 318.73 61.43C318.73 55.6034 313.998 50.88 308.16 50.88C302.322 50.88 297.59 55.6034 297.59 61.43C297.59 67.2566 302.322 71.98 308.16 71.98Z" fill="#F2C53D"/>
<path id="Vector_84" d="M273.86 72.99C279.698 72.99 284.43 68.2666 284.43 62.44C284.43 56.6134 279.698 51.89 273.86 51.89C268.022 51.89 263.29 56.6134 263.29 62.44C263.29 68.2666 268.022 72.99 273.86 72.99Z" fill="#F2C53D"/>
<path id="Vector_85" d="M239.57 74C245.408 74 250.14 69.2766 250.14 63.45C250.14 57.6234 245.408 52.9 239.57 52.9C233.732 52.9 229 57.6234 229 63.45C229 69.2766 233.732 74 239.57 74Z" fill="#F2C53D"/>
<path id="Vector_86" d="M205.28 75.01C211.118 75.01 215.85 70.2866 215.85 64.46C215.85 58.6334 211.118 53.91 205.28 53.91C199.442 53.91 194.71 58.6334 194.71 64.46C194.71 70.2866 199.442 75.01 205.28 75.01Z" fill="#F2C53D"/>
<path id="Vector_87" d="M170.98 76.01C176.818 76.01 181.55 71.2866 181.55 65.46C181.55 59.6334 176.818 54.91 170.98 54.91C165.142 54.91 160.41 59.6334 160.41 65.46C160.41 71.2866 165.142 76.01 170.98 76.01Z" fill="#F2C53D"/>
<path id="Vector_88" d="M136.69 77.02C142.528 77.02 147.26 72.2966 147.26 66.47C147.26 60.6434 142.528 55.92 136.69 55.92C130.852 55.92 126.12 60.6434 126.12 66.47C126.12 72.2966 130.852 77.02 136.69 77.02Z" fill="#F2C53D"/>
<path id="Vector_89" d="M102.4 78.0301C108.238 78.0301 112.97 73.3067 112.97 67.4801C112.97 61.6535 108.238 56.9301 102.4 56.9301C96.5623 56.9301 91.83 61.6535 91.83 67.4801C91.83 73.3067 96.5623 78.0301 102.4 78.0301Z" fill="#F2C53D"/>
<path id="Vector_90" d="M68.11 79.0301C73.9477 79.0301 78.68 74.3067 78.68 68.4801C78.68 62.6535 73.9477 57.9301 68.11 57.9301C62.2724 57.9301 57.54 62.6535 57.54 68.4801C57.54 74.3067 62.2724 79.0301 68.11 79.0301Z" fill="#F2C53D"/>
<path id="Vector_91" d="M344.47 139.38C350.308 139.38 355.04 134.657 355.04 128.83C355.04 123.003 350.308 118.28 344.47 118.28C338.632 118.28 333.9 123.003 333.9 128.83C333.9 134.657 338.632 139.38 344.47 139.38Z" fill="#F2C53D"/>
<path id="Vector_92" d="M310.18 140.39C316.018 140.39 320.75 135.667 320.75 129.84C320.75 124.013 316.018 119.29 310.18 119.29C304.342 119.29 299.61 124.013 299.61 129.84C299.61 135.667 304.342 140.39 310.18 140.39Z" fill="#F2C53D"/>
<path id="Vector_93" d="M275.88 141.39C281.718 141.39 286.45 136.667 286.45 130.84C286.45 125.013 281.718 120.29 275.88 120.29C270.042 120.29 265.31 125.013 265.31 130.84C265.31 136.667 270.042 141.39 275.88 141.39Z" fill="#F2C53D"/>
<path id="Vector_94" d="M241.59 142.4C247.428 142.4 252.16 137.677 252.16 131.85C252.16 126.023 247.428 121.3 241.59 121.3C235.752 121.3 231.02 126.023 231.02 131.85C231.02 137.677 235.752 142.4 241.59 142.4Z" fill="#F2C53D"/>
<path id="Vector_95" d="M207.3 143.41C213.138 143.41 217.87 138.687 217.87 132.86C217.87 127.033 213.138 122.31 207.3 122.31C201.462 122.31 196.73 127.033 196.73 132.86C196.73 138.687 201.462 143.41 207.3 143.41Z" fill="#F2C53D"/>
<path id="Vector_96" d="M173.01 144.42C178.848 144.42 183.58 139.697 183.58 133.87C183.58 128.043 178.848 123.32 173.01 123.32C167.172 123.32 162.44 128.043 162.44 133.87C162.44 139.697 167.172 144.42 173.01 144.42Z" fill="#F2C53D"/>
<path id="Vector_97" d="M138.71 145.42C144.548 145.42 149.28 140.697 149.28 134.87C149.28 129.043 144.548 124.32 138.71 124.32C132.872 124.32 128.14 129.043 128.14 134.87C128.14 140.697 132.872 145.42 138.71 145.42Z" fill="#F2C53D"/>
<path id="Vector_98" d="M104.42 146.43C110.258 146.43 114.99 141.707 114.99 135.88C114.99 130.053 110.258 125.33 104.42 125.33C98.5823 125.33 93.85 130.053 93.85 135.88C93.85 141.707 98.5823 146.43 104.42 146.43Z" fill="#F2C53D"/>
<path id="Vector_99" d="M70.1301 147.44C75.9677 147.44 80.7001 142.717 80.7001 136.89C80.7001 131.063 75.9677 126.34 70.1301 126.34C64.2924 126.34 59.5601 131.063 59.5601 136.89C59.5601 142.717 64.2924 147.44 70.1301 147.44Z" fill="#F2C53D"/>
<path id="Vector_100" d="M346.49 207.78C352.328 207.78 357.06 203.057 357.06 197.23C357.06 191.403 352.328 186.68 346.49 186.68C340.652 186.68 335.92 191.403 335.92 197.23C335.92 203.057 340.652 207.78 346.49 207.78Z" fill="#F2C53D"/>
<path id="Vector_101" d="M312.2 208.79C318.038 208.79 322.77 204.067 322.77 198.24C322.77 192.413 318.038 187.69 312.2 187.69C306.362 187.69 301.63 192.413 301.63 198.24C301.63 204.067 306.362 208.79 312.2 208.79Z" fill="#F2C53D"/>
<path id="Vector_102" d="M277.91 209.8C283.748 209.8 288.48 205.077 288.48 199.25C288.48 193.423 283.748 188.7 277.91 188.7C272.072 188.7 267.34 193.423 267.34 199.25C267.34 205.077 272.072 209.8 277.91 209.8Z" fill="#F2C53D"/>
<path id="Vector_103" d="M243.61 210.81C249.448 210.81 254.18 206.087 254.18 200.26C254.18 194.433 249.448 189.71 243.61 189.71C237.772 189.71 233.04 194.433 233.04 200.26C233.04 206.087 237.772 210.81 243.61 210.81Z" fill="#F2C53D"/>
<path id="Vector_104" d="M209.32 211.81C215.158 211.81 219.89 207.087 219.89 201.26C219.89 195.433 215.158 190.71 209.32 190.71C203.482 190.71 198.75 195.433 198.75 201.26C198.75 207.087 203.482 211.81 209.32 211.81Z" fill="#F2C53D"/>
<path id="Vector_105" d="M175.03 212.82C180.868 212.82 185.6 208.097 185.6 202.27C185.6 196.443 180.868 191.72 175.03 191.72C169.192 191.72 164.46 196.443 164.46 202.27C164.46 208.097 169.192 212.82 175.03 212.82Z" fill="#F2C53D"/>
<path id="Vector_106" d="M140.73 213.83C146.568 213.83 151.3 209.107 151.3 203.28C151.3 197.453 146.568 192.73 140.73 192.73C134.892 192.73 130.16 197.453 130.16 203.28C130.16 209.107 134.892 213.83 140.73 213.83Z" fill="#F2C53D"/>
<path id="Vector_107" d="M106.44 214.84C112.278 214.84 117.01 210.117 117.01 204.29C117.01 198.463 112.278 193.74 106.44 193.74C100.602 193.74 95.87 198.463 95.87 204.29C95.87 210.117 100.602 214.84 106.44 214.84Z" fill="#F2C53D"/>
<path id="Vector_108" d="M72.15 215.84C77.9876 215.84 82.72 211.117 82.72 205.29C82.72 199.463 77.9876 194.74 72.15 194.74C66.3123 194.74 61.58 199.463 61.58 205.29C61.58 211.117 66.3123 215.84 72.15 215.84Z" fill="#F2C53D"/>
<path id="Vector_109" d="M348.51 276.19C354.348 276.19 359.08 271.467 359.08 265.64C359.08 259.813 354.348 255.09 348.51 255.09C342.672 255.09 337.94 259.813 337.94 265.64C337.94 271.467 342.672 276.19 348.51 276.19Z" fill="#F2C53D"/>
<path id="Vector_110" d="M314.22 277.2C320.058 277.2 324.79 272.477 324.79 266.65C324.79 260.823 320.058 256.1 314.22 256.1C308.382 256.1 303.65 260.823 303.65 266.65C303.65 272.477 308.382 277.2 314.22 277.2Z" fill="#F2C53D"/>
<path id="Vector_111" d="M279.93 278.2C285.768 278.2 290.5 273.477 290.5 267.65C290.5 261.823 285.768 257.1 279.93 257.1C274.092 257.1 269.36 261.823 269.36 267.65C269.36 273.477 274.092 278.2 279.93 278.2Z" fill="#F2C53D"/>
<path id="Vector_112" d="M245.63 279.21C251.468 279.21 256.2 274.487 256.2 268.66C256.2 262.833 251.468 258.11 245.63 258.11C239.792 258.11 235.06 262.833 235.06 268.66C235.06 274.487 239.792 279.21 245.63 279.21Z" fill="#F2C53D"/>
<path id="Vector_113" d="M211.34 280.22C217.178 280.22 221.91 275.497 221.91 269.67C221.91 263.843 217.178 259.12 211.34 259.12C205.502 259.12 200.77 263.843 200.77 269.67C200.77 275.497 205.502 280.22 211.34 280.22Z" fill="#F2C53D"/>
<path id="Vector_114" d="M177.05 281.23C182.888 281.23 187.62 276.507 187.62 270.68C187.62 264.853 182.888 260.13 177.05 260.13C171.212 260.13 166.48 264.853 166.48 270.68C166.48 276.507 171.212 281.23 177.05 281.23Z" fill="#F2C53D"/>
<path id="Vector_115" d="M142.75 282.23C148.588 282.23 153.32 277.507 153.32 271.68C153.32 265.853 148.588 261.13 142.75 261.13C136.912 261.13 132.18 265.853 132.18 271.68C132.18 277.507 136.912 282.23 142.75 282.23Z" fill="#F2C53D"/>
<path id="Vector_116" d="M108.46 283.24C114.298 283.24 119.03 278.517 119.03 272.69C119.03 266.863 114.298 262.14 108.46 262.14C102.622 262.14 97.89 266.863 97.89 272.69C97.89 278.517 102.622 283.24 108.46 283.24Z" fill="#F2C53D"/>
<path id="Vector_117" d="M74.17 284.25C80.0076 284.25 84.74 279.527 84.74 273.7C84.74 267.873 80.0076 263.15 74.17 263.15C68.3323 263.15 63.6 267.873 63.6 273.7C63.6 279.527 68.3323 284.25 74.17 284.25Z" fill="#F2C53D"/>
<path id="Vector_118" d="M288.52 38.33C294.358 38.33 299.09 33.6066 299.09 27.78C299.09 21.9534 294.358 17.23 288.52 17.23C282.682 17.23 277.95 21.9534 277.95 27.78C277.95 33.6066 282.682 38.33 288.52 38.33Z" fill="#F2C53D"/>
<path id="Vector_119" d="M254.23 39.34C260.068 39.34 264.8 34.6166 264.8 28.79C264.8 22.9634 260.068 18.24 254.23 18.24C248.392 18.24 243.66 22.9634 243.66 28.79C243.66 34.6166 248.392 39.34 254.23 39.34Z" fill="#F2C53D"/>
<path id="Vector_120" d="M219.93 40.34C225.768 40.34 230.5 35.6166 230.5 29.79C230.5 23.9634 225.768 19.24 219.93 19.24C214.092 19.24 209.36 23.9634 209.36 29.79C209.36 35.6166 214.092 40.34 219.93 40.34Z" fill="#F2C53D"/>
<path id="Vector_121" d="M185.64 41.35C191.478 41.35 196.21 36.6266 196.21 30.8C196.21 24.9734 191.478 20.25 185.64 20.25C179.802 20.25 175.07 24.9734 175.07 30.8C175.07 36.6266 179.802 41.35 185.64 41.35Z" fill="#F2C53D"/>
<path id="Vector_122" d="M151.35 42.36C157.188 42.36 161.92 37.6366 161.92 31.81C161.92 25.9834 157.188 21.26 151.35 21.26C145.512 21.26 140.78 25.9834 140.78 31.81C140.78 37.6366 145.512 42.36 151.35 42.36Z" fill="#F2C53D"/>
<path id="Vector_123" d="M117.05 43.36C122.888 43.36 127.62 38.6366 127.62 32.81C127.62 26.9834 122.888 22.26 117.05 22.26C111.212 22.26 106.48 26.9834 106.48 32.81C106.48 38.6366 111.212 43.36 117.05 43.36Z" fill="#F2C53D"/>
<path id="Vector_124" d="M82.7599 44.37C88.5976 44.37 93.3299 39.6466 93.3299 33.82C93.3299 27.9934 88.5976 23.27 82.7599 23.27C76.9223 23.27 72.1899 27.9934 72.1899 33.82C72.1899 39.6466 76.9223 44.37 82.7599 44.37Z" fill="#F2C53D"/>
<path id="Vector_125" d="M48.47 45.38C54.3077 45.38 59.04 40.6566 59.04 34.83C59.04 29.0034 54.3077 24.28 48.47 24.28C42.6324 24.28 37.9 29.0034 37.9 34.83C37.9 40.6566 42.6324 45.38 48.47 45.38Z" fill="#F2C53D"/>
<path id="Vector_126" d="M14.17 46.39C20.0076 46.39 24.74 41.6666 24.74 35.84C24.74 30.0134 20.0076 25.29 14.17 25.29C8.33233 25.29 3.59998 30.0134 3.59998 35.84C3.59998 41.6666 8.33233 46.39 14.17 46.39Z" fill="#F2C53D"/>
<path id="Vector_127" d="M290.54 106.73C296.378 106.73 301.11 102.007 301.11 96.18C301.11 90.3534 296.378 85.63 290.54 85.63C284.702 85.63 279.97 90.3534 279.97 96.18C279.97 102.007 284.702 106.73 290.54 106.73Z" fill="#F2C53D"/>
<path id="Vector_128" d="M256.25 107.74C262.088 107.74 266.82 103.017 266.82 97.19C266.82 91.3634 262.088 86.64 256.25 86.64C250.412 86.64 245.68 91.3634 245.68 97.19C245.68 103.017 250.412 107.74 256.25 107.74Z" fill="#F2C53D"/>
<path id="Vector_129" d="M221.95 108.75C227.788 108.75 232.52 104.027 232.52 98.2C232.52 92.3734 227.788 87.65 221.95 87.65C216.112 87.65 211.38 92.3734 211.38 98.2C211.38 104.027 216.112 108.75 221.95 108.75Z" fill="#F2C53D"/>
<path id="Vector_130" d="M187.66 109.75C193.498 109.75 198.23 105.027 198.23 99.2C198.23 93.3734 193.498 88.65 187.66 88.65C181.822 88.65 177.09 93.3734 177.09 99.2C177.09 105.027 181.822 109.75 187.66 109.75Z" fill="#F2C53D"/>
<path id="Vector_131" d="M153.37 110.76C159.208 110.76 163.94 106.037 163.94 100.21C163.94 94.3834 159.208 89.66 153.37 89.66C147.532 89.66 142.8 94.3834 142.8 100.21C142.8 106.037 147.532 110.76 153.37 110.76Z" fill="#F2C53D"/>
<path id="Vector_132" d="M119.07 111.77C124.908 111.77 129.64 107.047 129.64 101.22C129.64 95.3934 124.908 90.67 119.07 90.67C113.232 90.67 108.5 95.3934 108.5 101.22C108.5 107.047 113.232 111.77 119.07 111.77Z" fill="#F2C53D"/>
<path id="Vector_133" d="M84.78 112.78C90.6176 112.78 95.35 108.057 95.35 102.23C95.35 96.4035 90.6176 91.6801 84.78 91.6801C78.9423 91.6801 74.21 96.4035 74.21 102.23C74.21 108.057 78.9423 112.78 84.78 112.78Z" fill="#F2C53D"/>
<path id="Vector_134" d="M50.49 113.78C56.3277 113.78 61.06 109.057 61.06 103.23C61.06 97.4035 56.3277 92.6801 50.49 92.6801C44.6524 92.6801 39.92 97.4035 39.92 103.23C39.92 109.057 44.6524 113.78 50.49 113.78Z" fill="#F2C53D"/>
<path id="Vector_135" d="M16.19 114.79C22.0276 114.79 26.76 110.067 26.76 104.24C26.76 98.4133 22.0276 93.6899 16.19 93.6899C10.3523 93.6899 5.62 98.4133 5.62 104.24C5.62 110.067 10.3523 114.79 16.19 114.79Z" fill="#F2C53D"/>
<path id="Vector_136" d="M292.56 175.14C298.398 175.14 303.13 170.417 303.13 164.59C303.13 158.763 298.398 154.04 292.56 154.04C286.722 154.04 281.99 158.763 281.99 164.59C281.99 170.417 286.722 175.14 292.56 175.14Z" fill="#F2C53D"/>
<path id="Vector_137" d="M258.27 176.14C264.108 176.14 268.84 171.417 268.84 165.59C268.84 159.763 264.108 155.04 258.27 155.04C252.432 155.04 247.7 159.763 247.7 165.59C247.7 171.417 252.432 176.14 258.27 176.14Z" fill="#F2C53D"/>
<path id="Vector_138" d="M223.97 177.15C229.808 177.15 234.54 172.427 234.54 166.6C234.54 160.773 229.808 156.05 223.97 156.05C218.132 156.05 213.4 160.773 213.4 166.6C213.4 172.427 218.132 177.15 223.97 177.15Z" fill="#F2C53D"/>
<path id="Vector_139" d="M189.68 178.16C195.518 178.16 200.25 173.437 200.25 167.61C200.25 161.783 195.518 157.06 189.68 157.06C183.842 157.06 179.11 161.783 179.11 167.61C179.11 173.437 183.842 178.16 189.68 178.16Z" fill="#F2C53D"/>
<path id="Vector_140" d="M155.39 179.17C161.228 179.17 165.96 174.447 165.96 168.62C165.96 162.793 161.228 158.07 155.39 158.07C149.552 158.07 144.82 162.793 144.82 168.62C144.82 174.447 149.552 179.17 155.39 179.17Z" fill="#F2C53D"/>
<path id="Vector_141" d="M121.09 180.17C126.928 180.17 131.66 175.447 131.66 169.62C131.66 163.793 126.928 159.07 121.09 159.07C115.252 159.07 110.52 163.793 110.52 169.62C110.52 175.447 115.252 180.17 121.09 180.17Z" fill="#F2C53D"/>
<path id="Vector_142" d="M86.8 181.18C92.6376 181.18 97.37 176.457 97.37 170.63C97.37 164.803 92.6376 160.08 86.8 160.08C80.9623 160.08 76.23 164.803 76.23 170.63C76.23 176.457 80.9623 181.18 86.8 181.18Z" fill="#F2C53D"/>
<path id="Vector_143" d="M52.5099 182.19C58.3476 182.19 63.0799 177.467 63.0799 171.64C63.0799 165.813 58.3476 161.09 52.5099 161.09C46.6723 161.09 41.9399 165.813 41.9399 171.64C41.9399 177.467 46.6723 182.19 52.5099 182.19Z" fill="#F2C53D"/>
<path id="Vector_144" d="M18.21 183.2C24.0477 183.2 28.78 178.477 28.78 172.65C28.78 166.823 24.0477 162.1 18.21 162.1C12.3724 162.1 7.64001 166.823 7.64001 172.65C7.64001 178.477 12.3724 183.2 18.21 183.2Z" fill="#F2C53D"/>
<path id="Vector_145" d="M294.58 243.54C300.418 243.54 305.15 238.817 305.15 232.99C305.15 227.163 300.418 222.44 294.58 222.44C288.742 222.44 284.01 227.163 284.01 232.99C284.01 238.817 288.742 243.54 294.58 243.54Z" fill="#F2C53D"/>
<path id="Vector_146" d="M260.29 244.55C266.128 244.55 270.86 239.827 270.86 234C270.86 228.173 266.128 223.45 260.29 223.45C254.452 223.45 249.72 228.173 249.72 234C249.72 239.827 254.452 244.55 260.29 244.55Z" fill="#F2C53D"/>
<path id="Vector_147" d="M225.99 245.56C231.828 245.56 236.56 240.837 236.56 235.01C236.56 229.183 231.828 224.46 225.99 224.46C220.152 224.46 215.42 229.183 215.42 235.01C215.42 240.837 220.152 245.56 225.99 245.56Z" fill="#F2C53D"/>
<path id="Vector_148" d="M191.7 246.56C197.538 246.56 202.27 241.837 202.27 236.01C202.27 230.183 197.538 225.46 191.7 225.46C185.862 225.46 181.13 230.183 181.13 236.01C181.13 241.837 185.862 246.56 191.7 246.56Z" fill="#F2C53D"/>
<path id="Vector_149" d="M157.41 247.57C163.248 247.57 167.98 242.847 167.98 237.02C167.98 231.193 163.248 226.47 157.41 226.47C151.572 226.47 146.84 231.193 146.84 237.02C146.84 242.847 151.572 247.57 157.41 247.57Z" fill="#F2C53D"/>
<path id="Vector_150" d="M123.11 248.58C128.948 248.58 133.68 243.857 133.68 238.03C133.68 232.203 128.948 227.48 123.11 227.48C117.272 227.48 112.54 232.203 112.54 238.03C112.54 243.857 117.272 248.58 123.11 248.58Z" fill="#F2C53D"/>
<path id="Vector_151" d="M88.82 249.59C94.6576 249.59 99.39 244.867 99.39 239.04C99.39 233.213 94.6576 228.49 88.82 228.49C82.9823 228.49 78.25 233.213 78.25 239.04C78.25 244.867 82.9823 249.59 88.82 249.59Z" fill="#F2C53D"/>
<path id="Vector_152" d="M54.53 250.59C60.3676 250.59 65.1 245.867 65.1 240.04C65.1 234.213 60.3676 229.49 54.53 229.49C48.6923 229.49 43.96 234.213 43.96 240.04C43.96 245.867 48.6923 250.59 54.53 250.59Z" fill="#F2C53D"/>
<path id="Vector_153" d="M20.23 251.6C26.0677 251.6 30.8 246.877 30.8 241.05C30.8 235.223 26.0677 230.5 20.23 230.5C14.3924 230.5 9.66003 235.223 9.66003 241.05C9.66003 246.877 14.3924 251.6 20.23 251.6Z" fill="#F2C53D"/>
<path id="Vector_154" d="M296.6 311.95C302.438 311.95 307.17 307.227 307.17 301.4C307.17 295.573 302.438 290.85 296.6 290.85C290.762 290.85 286.03 295.573 286.03 301.4C286.03 307.227 290.762 311.95 296.6 311.95Z" fill="#F2C53D"/>
<path id="Vector_155" d="M262.31 312.95C268.148 312.95 272.88 308.227 272.88 302.4C272.88 296.573 268.148 291.85 262.31 291.85C256.472 291.85 251.74 296.573 251.74 302.4C251.74 308.227 256.472 312.95 262.31 312.95Z" fill="#F2C53D"/>
<path id="Vector_156" d="M228.01 313.96C233.848 313.96 238.58 309.237 238.58 303.41C238.58 297.583 233.848 292.86 228.01 292.86C222.172 292.86 217.44 297.583 217.44 303.41C217.44 309.237 222.172 313.96 228.01 313.96Z" fill="#F2C53D"/>
<path id="Vector_157" d="M193.72 314.97C199.558 314.97 204.29 310.247 204.29 304.42C204.29 298.593 199.558 293.87 193.72 293.87C187.882 293.87 183.15 298.593 183.15 304.42C183.15 310.247 187.882 314.97 193.72 314.97Z" fill="#F2C53D"/>
<path id="Vector_158" d="M159.43 315.98C165.268 315.98 170 311.257 170 305.43C170 299.603 165.268 294.88 159.43 294.88C153.592 294.88 148.86 299.603 148.86 305.43C148.86 311.257 153.592 315.98 159.43 315.98Z" fill="#F2C53D"/>
<path id="Vector_159" d="M125.13 316.98C130.968 316.98 135.7 312.257 135.7 306.43C135.7 300.603 130.968 295.88 125.13 295.88C119.292 295.88 114.56 300.603 114.56 306.43C114.56 312.257 119.292 316.98 125.13 316.98Z" fill="#F2C53D"/>
<path id="Vector_160" d="M90.84 317.99C96.6777 317.99 101.41 313.267 101.41 307.44C101.41 301.613 96.6777 296.89 90.84 296.89C85.0024 296.89 80.27 301.613 80.27 307.44C80.27 313.267 85.0024 317.99 90.84 317.99Z" fill="#F2C53D"/>
<path id="Vector_161" d="M56.55 319C62.3876 319 67.12 314.277 67.12 308.45C67.12 302.623 62.3876 297.9 56.55 297.9C50.7123 297.9 45.98 302.623 45.98 308.45C45.98 314.277 50.7123 319 56.55 319Z" fill="#F2C53D"/>
<path id="Vector_162" d="M22.2501 320C28.0877 320 32.8201 315.277 32.8201 309.45C32.8201 303.623 28.0877 298.9 22.2501 298.9C16.4124 298.9 11.6801 303.623 11.6801 309.45C11.6801 315.277 16.4124 320 22.2501 320Z" fill="#F2C53D"/>
<path id="Vector_163" d="M338.85 65.59C344.688 65.59 349.42 60.8666 349.42 55.04C349.42 49.2134 344.688 44.49 338.85 44.49C333.012 44.49 328.28 49.2134 328.28 55.04C328.28 60.8666 333.012 65.59 338.85 65.59Z" fill="#4590BF"/>
<path id="Vector_164" d="M304.56 66.6C310.398 66.6 315.13 61.8766 315.13 56.05C315.13 50.2234 310.398 45.5 304.56 45.5C298.722 45.5 293.99 50.2234 293.99 56.05C293.99 61.8766 298.722 66.6 304.56 66.6Z" fill="#4590BF"/>
<path id="Vector_165" d="M270.26 67.6C276.098 67.6 280.83 62.8766 280.83 57.05C280.83 51.2234 276.098 46.5 270.26 46.5C264.422 46.5 259.69 51.2234 259.69 57.05C259.69 62.8766 264.422 67.6 270.26 67.6Z" fill="#4590BF"/>
<path id="Vector_166" d="M235.97 68.61C241.808 68.61 246.54 63.8866 246.54 58.06C246.54 52.2334 241.808 47.51 235.97 47.51C230.132 47.51 225.4 52.2334 225.4 58.06C225.4 63.8866 230.132 68.61 235.97 68.61Z" fill="#4590BF"/>
<path id="Vector_167" d="M201.68 69.62C207.518 69.62 212.25 64.8966 212.25 59.07C212.25 53.2434 207.518 48.52 201.68 48.52C195.842 48.52 191.11 53.2434 191.11 59.07C191.11 64.8966 195.842 69.62 201.68 69.62Z" fill="#4590BF"/>
<path id="Vector_168" d="M167.38 70.63C173.218 70.63 177.95 65.9066 177.95 60.08C177.95 54.2534 173.218 49.53 167.38 49.53C161.542 49.53 156.81 54.2534 156.81 60.08C156.81 65.9066 161.542 70.63 167.38 70.63Z" fill="#4590BF"/>
<path id="Vector_169" d="M133.09 71.63C138.928 71.63 143.66 66.9066 143.66 61.08C143.66 55.2534 138.928 50.53 133.09 50.53C127.252 50.53 122.52 55.2534 122.52 61.08C122.52 66.9066 127.252 71.63 133.09 71.63Z" fill="#4590BF"/>
<path id="Vector_170" d="M98.8 72.64C104.638 72.64 109.37 67.9166 109.37 62.09C109.37 56.2634 104.638 51.54 98.8 51.54C92.9623 51.54 88.23 56.2634 88.23 62.09C88.23 67.9166 92.9623 72.64 98.8 72.64Z" fill="#4590BF"/>
<path id="Vector_171" d="M64.5099 73.6501C70.3476 73.6501 75.0799 68.9267 75.0799 63.1C75.0799 57.2734 70.3476 52.55 64.5099 52.55C58.6723 52.55 53.9399 57.2734 53.9399 63.1C53.9399 68.9267 58.6723 73.6501 64.5099 73.6501Z" fill="#4590BF"/>
<path id="Vector_172" d="M340.87 133.99C346.708 133.99 351.44 129.267 351.44 123.44C351.44 117.613 346.708 112.89 340.87 112.89C335.032 112.89 330.3 117.613 330.3 123.44C330.3 129.267 335.032 133.99 340.87 133.99Z" fill="#4590BF"/>
<path id="Vector_173" d="M306.58 135C312.418 135 317.15 130.277 317.15 124.45C317.15 118.623 312.418 113.9 306.58 113.9C300.742 113.9 296.01 118.623 296.01 124.45C296.01 130.277 300.742 135 306.58 135Z" fill="#4590BF"/>
<path id="Vector_174" d="M272.28 136.01C278.118 136.01 282.85 131.287 282.85 125.46C282.85 119.633 278.118 114.91 272.28 114.91C266.442 114.91 261.71 119.633 261.71 125.46C261.71 131.287 266.442 136.01 272.28 136.01Z" fill="#4590BF"/>
<path id="Vector_175" d="M237.99 137.02C243.828 137.02 248.56 132.297 248.56 126.47C248.56 120.643 243.828 115.92 237.99 115.92C232.152 115.92 227.42 120.643 227.42 126.47C227.42 132.297 232.152 137.02 237.99 137.02Z" fill="#4590BF"/>
<path id="Vector_176" d="M203.7 138.02C209.538 138.02 214.27 133.297 214.27 127.47C214.27 121.643 209.538 116.92 203.7 116.92C197.862 116.92 193.13 121.643 193.13 127.47C193.13 133.297 197.862 138.02 203.7 138.02Z" fill="#4590BF"/>
<path id="Vector_177" d="M169.41 139.03C175.248 139.03 179.98 134.307 179.98 128.48C179.98 122.653 175.248 117.93 169.41 117.93C163.572 117.93 158.84 122.653 158.84 128.48C158.84 134.307 163.572 139.03 169.41 139.03Z" fill="#4590BF"/>
<path id="Vector_178" d="M135.11 140.04C140.948 140.04 145.68 135.317 145.68 129.49C145.68 123.663 140.948 118.94 135.11 118.94C129.272 118.94 124.54 123.663 124.54 129.49C124.54 135.317 129.272 140.04 135.11 140.04Z" fill="#4590BF"/>
<path id="Vector_179" d="M100.82 141.05C106.658 141.05 111.39 136.327 111.39 130.5C111.39 124.673 106.658 119.95 100.82 119.95C94.9823 119.95 90.25 124.673 90.25 130.5C90.25 136.327 94.9823 141.05 100.82 141.05Z" fill="#4590BF"/>
<path id="Vector_180" d="M66.53 142.05C72.3676 142.05 77.1 137.327 77.1 131.5C77.1 125.673 72.3676 120.95 66.53 120.95C60.6923 120.95 55.96 125.673 55.96 131.5C55.96 137.327 60.6923 142.05 66.53 142.05Z" fill="#4590BF"/>
<path id="Vector_181" d="M342.89 202.4C348.728 202.4 353.46 197.677 353.46 191.85C353.46 186.023 348.728 181.3 342.89 181.3C337.052 181.3 332.32 186.023 332.32 191.85C332.32 197.677 337.052 202.4 342.89 202.4Z" fill="#4590BF"/>
<path id="Vector_182" d="M308.6 203.41C314.438 203.41 319.17 198.687 319.17 192.86C319.17 187.033 314.438 182.31 308.6 182.31C302.762 182.31 298.03 187.033 298.03 192.86C298.03 198.687 302.762 203.41 308.6 203.41Z" fill="#4590BF"/>
<path id="Vector_183" d="M274.31 204.41C280.148 204.41 284.88 199.687 284.88 193.86C284.88 188.033 280.148 183.31 274.31 183.31C268.472 183.31 263.74 188.033 263.74 193.86C263.74 199.687 268.472 204.41 274.31 204.41Z" fill="#4590BF"/>
<path id="Vector_184" d="M240.01 205.42C245.848 205.42 250.58 200.697 250.58 194.87C250.58 189.043 245.848 184.32 240.01 184.32C234.172 184.32 229.44 189.043 229.44 194.87C229.44 200.697 234.172 205.42 240.01 205.42Z" fill="#4590BF"/>
<path id="Vector_185" d="M205.72 206.43C211.558 206.43 216.29 201.707 216.29 195.88C216.29 190.053 211.558 185.33 205.72 185.33C199.882 185.33 195.15 190.053 195.15 195.88C195.15 201.707 199.882 206.43 205.72 206.43Z" fill="#4590BF"/>
<path id="Vector_186" d="M171.43 207.44C177.268 207.44 182 202.717 182 196.89C182 191.063 177.268 186.34 171.43 186.34C165.592 186.34 160.86 191.063 160.86 196.89C160.86 202.717 165.592 207.44 171.43 207.44Z" fill="#4590BF"/>
<path id="Vector_187" d="M137.13 208.44C142.968 208.44 147.7 203.717 147.7 197.89C147.7 192.063 142.968 187.34 137.13 187.34C131.292 187.34 126.56 192.063 126.56 197.89C126.56 203.717 131.292 208.44 137.13 208.44Z" fill="#4590BF"/>
<path id="Vector_188" d="M102.84 209.45C108.678 209.45 113.41 204.727 113.41 198.9C113.41 193.073 108.678 188.35 102.84 188.35C97.0024 188.35 92.27 193.073 92.27 198.9C92.27 204.727 97.0024 209.45 102.84 209.45Z" fill="#4590BF"/>
<path id="Vector_189" d="M68.55 210.46C74.3876 210.46 79.12 205.737 79.12 199.91C79.12 194.083 74.3876 189.36 68.55 189.36C62.7123 189.36 57.98 194.083 57.98 199.91C57.98 205.737 62.7123 210.46 68.55 210.46Z" fill="#4590BF"/>
<path id="Vector_190" d="M344.91 270.8C350.748 270.8 355.48 266.077 355.48 260.25C355.48 254.423 350.748 249.7 344.91 249.7C339.072 249.7 334.34 254.423 334.34 260.25C334.34 266.077 339.072 270.8 344.91 270.8Z" fill="#4590BF"/>
<path id="Vector_191" d="M310.62 271.81C316.458 271.81 321.19 267.087 321.19 261.26C321.19 255.433 316.458 250.71 310.62 250.71C304.782 250.71 300.05 255.433 300.05 261.26C300.05 267.087 304.782 271.81 310.62 271.81Z" fill="#4590BF"/>
<path id="Vector_192" d="M276.33 272.82C282.168 272.82 286.9 268.097 286.9 262.27C286.9 256.443 282.168 251.72 276.33 251.72C270.492 251.72 265.76 256.443 265.76 262.27C265.76 268.097 270.492 272.82 276.33 272.82Z" fill="#4590BF"/>
<path id="Vector_193" d="M242.03 273.83C247.868 273.83 252.6 269.107 252.6 263.28C252.6 257.453 247.868 252.73 242.03 252.73C236.192 252.73 231.46 257.453 231.46 263.28C231.46 269.107 236.192 273.83 242.03 273.83Z" fill="#4590BF"/>
<path id="Vector_194" d="M207.74 274.83C213.578 274.83 218.31 270.107 218.31 264.28C218.31 258.453 213.578 253.73 207.74 253.73C201.902 253.73 197.17 258.453 197.17 264.28C197.17 270.107 201.902 274.83 207.74 274.83Z" fill="#4590BF"/>
<path id="Vector_195" d="M173.45 275.84C179.288 275.84 184.02 271.117 184.02 265.29C184.02 259.463 179.288 254.74 173.45 254.74C167.612 254.74 162.88 259.463 162.88 265.29C162.88 271.117 167.612 275.84 173.45 275.84Z" fill="#4590BF"/>
<path id="Vector_196" d="M139.15 276.85C144.988 276.85 149.72 272.127 149.72 266.3C149.72 260.473 144.988 255.75 139.15 255.75C133.312 255.75 128.58 260.473 128.58 266.3C128.58 272.127 133.312 276.85 139.15 276.85Z" fill="#4590BF"/>
<path id="Vector_197" d="M104.86 277.85C110.698 277.85 115.43 273.127 115.43 267.3C115.43 261.473 110.698 256.75 104.86 256.75C99.0224 256.75 94.29 261.473 94.29 267.3C94.29 273.127 99.0224 277.85 104.86 277.85Z" fill="#4590BF"/>
<path id="Vector_198" d="M70.57 278.86C76.4076 278.86 81.14 274.137 81.14 268.31C81.14 262.483 76.4076 257.76 70.57 257.76C64.7323 257.76 60 262.483 60 268.31C60 274.137 64.7323 278.86 70.57 278.86Z" fill="#4590BF"/>
<path id="Vector_199" d="M284.92 32.94C290.758 32.94 295.49 28.2166 295.49 22.39C295.49 16.5634 290.758 11.84 284.92 11.84C279.082 11.84 274.35 16.5634 274.35 22.39C274.35 28.2166 279.082 32.94 284.92 32.94Z" fill="#4590BF"/>
<path id="Vector_200" d="M250.63 33.95C256.468 33.95 261.2 29.2266 261.2 23.4C261.2 17.5734 256.468 12.85 250.63 12.85C244.792 12.85 240.06 17.5734 240.06 23.4C240.06 29.2266 244.792 33.95 250.63 33.95Z" fill="#4590BF"/>
<path id="Vector_201" d="M216.33 34.96C222.168 34.96 226.9 30.2366 226.9 24.41C226.9 18.5834 222.168 13.86 216.33 13.86C210.492 13.86 205.76 18.5834 205.76 24.41C205.76 30.2366 210.492 34.96 216.33 34.96Z" fill="#4590BF"/>
<path id="Vector_202" d="M182.04 35.96C187.878 35.96 192.61 31.2366 192.61 25.41C192.61 19.5834 187.878 14.86 182.04 14.86C176.202 14.86 171.47 19.5834 171.47 25.41C171.47 31.2366 176.202 35.96 182.04 35.96Z" fill="#4590BF"/>
<path id="Vector_203" d="M147.75 36.97C153.588 36.97 158.32 32.2466 158.32 26.42C158.32 20.5934 153.588 15.87 147.75 15.87C141.912 15.87 137.18 20.5934 137.18 26.42C137.18 32.2466 141.912 36.97 147.75 36.97Z" fill="#4590BF"/>
<path id="Vector_204" d="M113.45 37.98C119.288 37.98 124.02 33.2566 124.02 27.43C124.02 21.6034 119.288 16.88 113.45 16.88C107.612 16.88 102.88 21.6034 102.88 27.43C102.88 33.2566 107.612 37.98 113.45 37.98Z" fill="#4590BF"/>
<path id="Vector_205" d="M79.16 38.99C84.9976 38.99 89.73 34.2666 89.73 28.44C89.73 22.6134 84.9976 17.89 79.16 17.89C73.3223 17.89 68.59 22.6134 68.59 28.44C68.59 34.2666 73.3223 38.99 79.16 38.99Z" fill="#4590BF"/>
<path id="Vector_206" d="M44.87 39.99C50.7077 39.99 55.44 35.2666 55.44 29.44C55.44 23.6134 50.7077 18.89 44.87 18.89C39.0324 18.89 34.3 23.6134 34.3 29.44C34.3 35.2666 39.0324 39.99 44.87 39.99Z" fill="#4590BF"/>
<path id="Vector_207" d="M10.57 41C16.4076 41 21.14 36.2766 21.14 30.45C21.14 24.6234 16.4076 19.9 10.57 19.9C4.73235 19.9 0 24.6234 0 30.45C0 36.2766 4.73235 41 10.57 41Z" fill="#4590BF"/>
<path id="Vector_208" d="M286.94 101.35C292.778 101.35 297.51 96.6266 297.51 90.8C297.51 84.9734 292.778 80.25 286.94 80.25C281.102 80.25 276.37 84.9734 276.37 90.8C276.37 96.6266 281.102 101.35 286.94 101.35Z" fill="#4590BF"/>
<path id="Vector_209" d="M252.65 102.35C258.488 102.35 263.22 97.6266 263.22 91.8C263.22 85.9734 258.488 81.25 252.65 81.25C246.812 81.25 242.08 85.9734 242.08 91.8C242.08 97.6266 246.812 102.35 252.65 102.35Z" fill="#4590BF"/>
<path id="Vector_210" d="M218.35 103.36C224.188 103.36 228.92 98.6366 228.92 92.81C228.92 86.9834 224.188 82.26 218.35 82.26C212.512 82.26 207.78 86.9834 207.78 92.81C207.78 98.6366 212.512 103.36 218.35 103.36Z" fill="#4590BF"/>
<path id="Vector_211" d="M184.06 104.37C189.898 104.37 194.63 99.6466 194.63 93.82C194.63 87.9934 189.898 83.27 184.06 83.27C178.222 83.27 173.49 87.9934 173.49 93.82C173.49 99.6466 178.222 104.37 184.06 104.37Z" fill="#4590BF"/>
<path id="Vector_212" d="M149.77 105.38C155.608 105.38 160.34 100.657 160.34 94.83C160.34 89.0034 155.608 84.28 149.77 84.28C143.932 84.28 139.2 89.0034 139.2 94.83C139.2 100.657 143.932 105.38 149.77 105.38Z" fill="#4590BF"/>
<path id="Vector_213" d="M115.47 106.38C121.308 106.38 126.04 101.657 126.04 95.83C126.04 90.0034 121.308 85.28 115.47 85.28C109.632 85.28 104.9 90.0034 104.9 95.83C104.9 101.657 109.632 106.38 115.47 106.38Z" fill="#4590BF"/>
<path id="Vector_214" d="M81.18 107.39C87.0176 107.39 91.75 102.667 91.75 96.84C91.75 91.0134 87.0176 86.29 81.18 86.29C75.3423 86.29 70.61 91.0134 70.61 96.84C70.61 102.667 75.3423 107.39 81.18 107.39Z" fill="#4590BF"/>
<path id="Vector_215" d="M46.8899 108.4C52.7276 108.4 57.4599 103.677 57.4599 97.85C57.4599 92.0234 52.7276 87.3 46.8899 87.3C41.0523 87.3 36.3199 92.0234 36.3199 97.85C36.3199 103.677 41.0523 108.4 46.8899 108.4Z" fill="#4590BF"/>
<path id="Vector_216" d="M12.59 109.41C18.4277 109.41 23.16 104.687 23.16 98.8601C23.16 93.0335 18.4277 88.3101 12.59 88.3101C6.75237 88.3101 2.02002 93.0335 2.02002 98.8601C2.02002 104.687 6.75237 109.41 12.59 109.41Z" fill="#4590BF"/>
<path id="Vector_217" d="M288.96 169.75C294.798 169.75 299.53 165.027 299.53 159.2C299.53 153.373 294.798 148.65 288.96 148.65C283.122 148.65 278.39 153.373 278.39 159.2C278.39 165.027 283.122 169.75 288.96 169.75Z" fill="#4590BF"/>
<path id="Vector_218" d="M254.67 170.76C260.508 170.76 265.24 166.037 265.24 160.21C265.24 154.383 260.508 149.66 254.67 149.66C248.832 149.66 244.1 154.383 244.1 160.21C244.1 166.037 248.832 170.76 254.67 170.76Z" fill="#4590BF"/>
<path id="Vector_219" d="M220.37 171.77C226.208 171.77 230.94 167.047 230.94 161.22C230.94 155.393 226.208 150.67 220.37 150.67C214.532 150.67 209.8 155.393 209.8 161.22C209.8 167.047 214.532 171.77 220.37 171.77Z" fill="#4590BF"/>
<path id="Vector_220" d="M186.08 172.77C191.918 172.77 196.65 168.047 196.65 162.22C196.65 156.393 191.918 151.67 186.08 151.67C180.242 151.67 175.51 156.393 175.51 162.22C175.51 168.047 180.242 172.77 186.08 172.77Z" fill="#4590BF"/>
<path id="Vector_221" d="M151.79 173.78C157.628 173.78 162.36 169.057 162.36 163.23C162.36 157.403 157.628 152.68 151.79 152.68C145.952 152.68 141.22 157.403 141.22 163.23C141.22 169.057 145.952 173.78 151.79 173.78Z" fill="#4590BF"/>
<path id="Vector_222" d="M117.49 174.79C123.328 174.79 128.06 170.067 128.06 164.24C128.06 158.413 123.328 153.69 117.49 153.69C111.652 153.69 106.92 158.413 106.92 164.24C106.92 170.067 111.652 174.79 117.49 174.79Z" fill="#4590BF"/>
<path id="Vector_223" d="M83.2 175.8C89.0377 175.8 93.77 171.077 93.77 165.25C93.77 159.423 89.0377 154.7 83.2 154.7C77.3624 154.7 72.63 159.423 72.63 165.25C72.63 171.077 77.3624 175.8 83.2 175.8Z" fill="#4590BF"/>
<path id="Vector_224" d="M48.91 176.8C54.7476 176.8 59.48 172.077 59.48 166.25C59.48 160.423 54.7476 155.7 48.91 155.7C43.0723 155.7 38.34 160.423 38.34 166.25C38.34 172.077 43.0723 176.8 48.91 176.8Z" fill="#4590BF"/>
<path id="Vector_225" d="M14.61 177.81C20.4477 177.81 25.18 173.087 25.18 167.26C25.18 161.433 20.4477 156.71 14.61 156.71C8.77239 156.71 4.04004 161.433 4.04004 167.26C4.04004 173.087 8.77239 177.81 14.61 177.81Z" fill="#4590BF"/>
<path id="Vector_226" d="M290.98 238.16C296.818 238.16 301.55 233.437 301.55 227.61C301.55 221.783 296.818 217.06 290.98 217.06C285.142 217.06 280.41 221.783 280.41 227.61C280.41 233.437 285.142 238.16 290.98 238.16Z" fill="#4590BF"/>
<path id="Vector_227" d="M256.69 239.16C262.528 239.16 267.26 234.437 267.26 228.61C267.26 222.783 262.528 218.06 256.69 218.06C250.852 218.06 246.12 222.783 246.12 228.61C246.12 234.437 250.852 239.16 256.69 239.16Z" fill="#4590BF"/>
<path id="Vector_228" d="M222.39 240.17C228.228 240.17 232.96 235.447 232.96 229.62C232.96 223.793 228.228 219.07 222.39 219.07C216.552 219.07 211.82 223.793 211.82 229.62C211.82 235.447 216.552 240.17 222.39 240.17Z" fill="#4590BF"/>
<path id="Vector_229" d="M188.1 241.18C193.938 241.18 198.67 236.457 198.67 230.63C198.67 224.803 193.938 220.08 188.1 220.08C182.262 220.08 177.53 224.803 177.53 230.63C177.53 236.457 182.262 241.18 188.1 241.18Z" fill="#4590BF"/>
<path id="Vector_230" d="M153.81 242.19C159.648 242.19 164.38 237.467 164.38 231.64C164.38 225.813 159.648 221.09 153.81 221.09C147.972 221.09 143.24 225.813 143.24 231.64C143.24 237.467 147.972 242.19 153.81 242.19Z" fill="#4590BF"/>
<path id="Vector_231" d="M119.51 243.19C125.348 243.19 130.08 238.467 130.08 232.64C130.08 226.813 125.348 222.09 119.51 222.09C113.672 222.09 108.94 226.813 108.94 232.64C108.94 238.467 113.672 243.19 119.51 243.19Z" fill="#4590BF"/>
<path id="Vector_232" d="M85.22 244.2C91.0577 244.2 95.79 239.477 95.79 233.65C95.79 227.823 91.0577 223.1 85.22 223.1C79.3824 223.1 74.65 227.823 74.65 233.65C74.65 239.477 79.3824 244.2 85.22 244.2Z" fill="#4590BF"/>
<path id="Vector_233" d="M50.93 245.21C56.7676 245.21 61.5 240.487 61.5 234.66C61.5 228.833 56.7676 224.11 50.93 224.11C45.0923 224.11 40.36 228.833 40.36 234.66C40.36 240.487 45.0923 245.21 50.93 245.21Z" fill="#4590BF"/>
<path id="Vector_234" d="M16.6301 246.21C22.4677 246.21 27.2001 241.487 27.2001 235.66C27.2001 229.833 22.4677 225.11 16.6301 225.11C10.7924 225.11 6.06006 229.833 6.06006 235.66C6.06006 241.487 10.7924 246.21 16.6301 246.21Z" fill="#4590BF"/>
<path id="Vector_235" d="M293 306.56C298.838 306.56 303.57 301.837 303.57 296.01C303.57 290.183 298.838 285.46 293 285.46C287.162 285.46 282.43 290.183 282.43 296.01C282.43 301.837 287.162 306.56 293 306.56Z" fill="#4590BF"/>
<path id="Vector_236" d="M258.71 307.57C264.548 307.57 269.28 302.847 269.28 297.02C269.28 291.193 264.548 286.47 258.71 286.47C252.872 286.47 248.14 291.193 248.14 297.02C248.14 302.847 252.872 307.57 258.71 307.57Z" fill="#4590BF"/>
<path id="Vector_237" d="M224.41 308.57C230.248 308.57 234.98 303.847 234.98 298.02C234.98 292.193 230.248 287.47 224.41 287.47C218.572 287.47 213.84 292.193 213.84 298.02C213.84 303.847 218.572 308.57 224.41 308.57Z" fill="#4590BF"/>
<path id="Vector_238" d="M190.12 309.58C195.958 309.58 200.69 304.857 200.69 299.03C200.69 293.203 195.958 288.48 190.12 288.48C184.282 288.48 179.55 293.203 179.55 299.03C179.55 304.857 184.282 309.58 190.12 309.58Z" fill="#4590BF"/>
<path id="Vector_239" d="M155.83 310.59C161.668 310.59 166.4 305.867 166.4 300.04C166.4 294.213 161.668 289.49 155.83 289.49C149.992 289.49 145.26 294.213 145.26 300.04C145.26 305.867 149.992 310.59 155.83 310.59Z" fill="#4590BF"/>
<path id="Vector_240" d="M121.53 311.6C127.368 311.6 132.1 306.877 132.1 301.05C132.1 295.223 127.368 290.5 121.53 290.5C115.692 290.5 110.96 295.223 110.96 301.05C110.96 306.877 115.692 311.6 121.53 311.6Z" fill="#4590BF"/>
<path id="Vector_241" d="M87.24 312.6C93.0777 312.6 97.81 307.877 97.81 302.05C97.81 296.223 93.0777 291.5 87.24 291.5C81.4024 291.5 76.67 296.223 76.67 302.05C76.67 307.877 81.4024 312.6 87.24 312.6Z" fill="#4590BF"/>
<path id="Vector_242" d="M52.95 313.61C58.7877 313.61 63.52 308.887 63.52 303.06C63.52 297.233 58.7877 292.51 52.95 292.51C47.1124 292.51 42.38 297.233 42.38 303.06C42.38 308.887 47.1124 313.61 52.95 313.61Z" fill="#4590BF"/>
<path id="Vector_243" d="M18.65 314.62C24.4876 314.62 29.22 309.897 29.22 304.07C29.22 298.243 24.4876 293.52 18.65 293.52C12.8123 293.52 8.07996 298.243 8.07996 304.07C8.07996 309.897 12.8123 314.62 18.65 314.62Z" fill="#4590BF"/>
<path id="Vector_244" d="M130.62 88.47C130.39 88.94 130.17 89.4 129.95 89.87C100.22 152.46 115.63 224.99 163.35 270.53C174.89 281.54 188.32 290.97 203.47 298.31C250.17 320.92 302.54 318.45 345.27 296.19C374.13 281.15 398.57 257.09 413.88 225.64C428.72 195.16 432.79 162.26 427.57 131.22C419.42 82.79 388.69 38.88 341.02 15.8C262.8 -22.08 168.6 10.45 130.62 88.46V88.47ZM253.79 194.96C232.8 184.8 224.04 159.59 234.24 138.65C244.43 117.72 269.71 108.99 290.7 119.15C311.7 129.32 320.44 154.53 310.25 175.46C300.06 196.39 274.78 205.13 253.79 194.96V194.96Z" fill="#F299B9"/>
<path id="Vector_245" d="M255.67 22.79C249.07 29.2 246.3 44.12 242.82 49C240.57 51.95 240.04 52.42 236.92 54.27C236.95 54.27 236.96 54.25 237 54.24C236.94 54.28 236.87 54.31 236.8 54.34C236.8 54.32 236.84 54.31 236.85 54.3C236.87 54.29 236.89 54.28 236.91 54.26C234.79 55.08 232.69 55.99 230.43 56.42C222.71 58.2 208.82 55.38 197.84 56.3C161.59 58.72 135.25 97.54 146.42 132.03C151.88 149.35 163.9 163.83 157.36 179.8C141.73 209.95 152.86 255.23 188.14 270.1C215.33 282.86 231.58 271.89 247.44 249.49C251.55 245.34 254.31 242.54 258.24 242.44C260.31 242.62 267.67 248.06 272.91 254.02C277.98 259.6 284.45 271.57 291.7 277.87C321.06 300.91 354.68 277.97 355.23 243.13C357.07 228.08 361.61 215.34 371.52 206.72C374.64 203.86 382.38 199.26 385.76 197.92C386.19 197.72 386.62 197.52 387.05 197.3C425.72 177.91 423.18 108 381.35 93.64C370.75 90.57 354.22 96.02 348.15 93.57C343.65 91.83 342.96 91.12 339.41 87.61C330.49 78.55 329.18 56.22 321.08 41.85C308.62 21.75 275.94 3.29999 255.65 22.78L255.67 22.79ZM382.67 186.24C382.67 186.24 382.77 186.19 382.82 186.17C382.82 186.19 382.79 186.19 382.77 186.2C382.73 186.21 382.7 186.23 382.67 186.24V186.24ZM306.86 42.4C308.87 44.6 310.51 47.35 311.92 49.98C319.15 66.21 321.23 98.7 345.25 105.11C353.67 107.95 368.53 104.23 374 104.56C378.73 104.93 380.2 105.46 384.19 107.94C392.72 113.52 400.88 126.86 401.99 138.29C403.38 153.82 400.4 171.28 388.85 182.14C388.89 182.11 388.91 182.09 388.94 182.06C389.41 181.7 388.73 182.27 388.57 182.39C388.67 182.3 388.76 182.23 388.85 182.14C387.22 183.48 385.49 184.69 383.63 185.72C383.51 185.78 382.79 186.16 382.61 186.26C382.63 186.26 382.65 186.26 382.66 186.24C382.62 186.26 382.58 186.28 382.57 186.29C382.27 186.42 381.92 186.58 381.84 186.62C381.6 186.72 381.38 186.81 381.15 186.91C348.31 200.81 345.9 226.65 340.23 257.67C335.51 274.85 309.79 282.33 296.43 265.65C287.3 255.08 273.39 226.8 252.83 231.29C240.26 235.45 234.2 248.34 225.36 257.16C223.68 258.73 222.3 259.99 219.05 261.73C219.09 261.7 219.13 261.67 219.16 261.65C217.85 262.24 216.48 262.69 215.08 263.04C215.14 263.04 215.19 263.02 215.25 263.01C215.89 262.91 214.81 263.15 214.77 263.13C214.79 263.12 214.85 263.1 214.94 263.07C214.99 263.07 215.03 263.05 215.08 263.04C213.38 263.31 211.69 263.5 209.96 263.51C209.59 263.51 209.21 263.49 208.85 263.49C208.97 263.5 209.08 263.51 209.2 263.52C208.99 263.52 208.13 263.5 208.73 263.49C208.77 263.49 208.81 263.49 208.85 263.49C199.82 262.65 193.95 260.2 185.88 255.24C167.53 243.75 156.66 217.02 164.86 194.12C185.82 151.95 145.72 137.86 158.56 99.54C164 81.41 185.88 65.9 207.21 68.11C266.79 74.58 249.88 39.96 267.97 28.27C269.26 27.7 270.6 27.2 271.98 26.86C274.6 26.2 279.82 26.12 285.08 27.96C290.59 29.53 303.4 37.84 306.85 42.41L306.86 42.4Z" fill="white"/>
<path id="Vector_246" d="M434.65 211.65L117.65 296.36L96.85 218.97L413.86 134.25L434.65 211.65Z" fill="#B3B3B3"/>
<path id="Vector_247" d="M202.25 223.52C218.37 219.21 223.32 228.86 227.54 244.57C231.56 259.55 233.04 270.9 216.19 275.41L205.2 278.35C200.8 279.52 200.02 276.6 199.23 273.68L188.43 233.49C187.64 230.57 186.86 227.64 191.26 226.47L202.25 223.53V223.52ZM202.5 236.45C204.72 244.71 207.21 253.68 209.52 262.3C210.03 264.2 210.65 265.91 211.97 265.56C217.46 264.09 216.65 259.61 213.51 247.92C210.76 237.69 208.92 232.31 203.43 233.78C202.11 234.13 202.09 234.92 202.5 236.46V236.45Z" fill="black"/>
<path id="Vector_248" d="M232.32 236.94C229.16 225.18 227.94 216.26 243.4 212.13C258.13 208.19 261.43 216.4 264.55 228.02C265.73 232.4 267.11 236.66 268.15 240.53C271.25 252.08 271.68 260.97 257.54 264.75C242.08 268.88 238.66 260.55 235.52 248.86C234.99 246.89 234.53 244.89 233.98 242.85C233.43 240.81 232.83 238.85 232.32 236.95V236.94ZM243.2 227.45L249.38 250.47C249.97 252.66 250.75 255.59 254.42 254.61C258.09 253.63 257.3 250.71 256.71 248.52L250.53 225.5C250.04 223.67 249.45 221.48 245.79 222.46C242.13 223.44 242.72 225.63 243.21 227.46L243.2 227.45Z" fill="black"/>
<path id="Vector_249" d="M295.06 223.78C295.28 223.72 295.37 223.46 295.23 222.95L290.71 206.14C289.92 203.22 289.14 200.29 293.54 199.12L297.2 198.14C301.6 196.97 302.38 199.89 303.17 202.81L313.97 243C314.76 245.92 315.54 248.85 311.14 250.02C304.55 251.78 303.72 250.75 302.1 248.83L286.68 230.32C286.34 229.94 286.04 229.71 285.9 229.75C285.68 229.81 285.69 230.12 285.8 230.56L290.88 249.17C291.67 252.09 292.45 255.02 288.05 256.19L284.39 257.17C279.99 258.34 279.21 255.42 278.42 252.5L267.62 212.31C266.83 209.39 266.05 206.46 270.45 205.29L274.33 204.25C276.75 203.6 277.63 203.68 279.34 205.65L294.19 223.22C294.55 223.67 294.83 223.83 295.05 223.77L295.06 223.78Z" fill="black"/>
<path id="Vector_250" d="M350.68 223.56C353.11 232.62 353.74 239.03 339.01 242.97C323.55 247.1 320.78 241.18 318.23 231.68C312.03 208.59 310.06 200.97 310.06 200.97C309.27 198.05 308.49 195.12 312.89 193.95L316.55 192.97C320.95 191.8 321.73 194.72 322.52 197.64L331.16 229.79C331.75 231.98 332.24 233.81 336.27 232.73C339.57 231.85 339.08 230.02 338.49 227.83L329.83 195.6C329.06 192.75 328.28 189.83 332.67 188.65L336.33 187.67C340.73 186.5 341.51 189.42 342.28 192.27L350.68 223.54V223.56Z" fill="black"/>
<path id="Vector_251" d="M379.24 226.11C379.84 228.93 380.38 231.52 376.28 232.62L372.62 233.6C368.22 234.77 367.44 231.85 366.65 228.93L357.68 195.54C357.19 193.71 356.71 193.37 355.17 193.78C354.66 193.92 353.94 194.19 353.06 194.42C351.23 194.91 349.68 195.01 349.21 193.25L347.54 187.04C347.15 185.58 348.56 184.42 350.4 183.93L370.62 178.53C372.45 178.04 374.26 178.34 374.65 179.8L376.32 186.01C376.79 187.76 375.4 188.45 373.57 188.94C373.06 189.08 372.38 189.18 371.5 189.42C369.67 189.91 369.64 190.39 370.13 192.21L379.24 226.12V226.11Z" fill="black"/>
<path id="Vector_252" d="M395.51 171.48C401.59 169.85 405.99 169.85 406.54 171.9L408.05 177.53C408.27 178.33 408.35 179.8 405.85 180.47L405.26 180.63C404.09 180.94 401.23 180.84 399.11 181.41C397.35 181.88 396.12 182.84 396.74 185.17C397.36 187.5 398.32 188.43 401.81 190C412.45 194.83 415.59 199.48 417.18 205.39C418.08 208.75 418.83 211.84 417.69 215.2C416.25 219.5 412.82 221.91 411.32 222.78C409.48 223.82 406.77 224.86 404.5 225.46C399.08 226.91 393.53 227.3 392.74 224.37L391.23 218.74C390.99 217.86 391.49 216.79 393.47 216.26C395.45 215.73 397.28 216.42 401.46 215.3C403.51 214.75 405.86 212.4 405.26 210.13C404.81 208.45 404.4 207.23 398.75 204.04C390.15 199.21 386.1 197 384.49 191.01C380.62 176.61 389.63 173.03 395.49 171.47L395.51 171.48Z" fill="black"/>
</g>
<defs>
<clipPath id="clip0_12_2">
<rect width="434.65" height="320" fill="white"/>
</clipPath>
</defs>
</svg>
