<svg width="435" height="321" viewBox="0 0 435 321" fill="none" xmlns="http://www.w3.org/2000/svg">
<g id="donut 1" clip-path="url(#clip0_4_31)">
<g id="donutbkg">
<path id="Vector" d="M342.45 71.12C348.288 71.12 353.02 66.3876 353.02 60.55C353.02 54.7123 348.288 49.98 342.45 49.98C336.612 49.98 331.88 54.7123 331.88 60.55C331.88 66.3876 336.612 71.12 342.45 71.12Z" fill="#F2C53D"/>
<path id="Vector_2" d="M308.16 72.13C313.998 72.13 318.73 67.3976 318.73 61.56C318.73 55.7223 313.998 50.99 308.16 50.99C302.322 50.99 297.59 55.7223 297.59 61.56C297.59 67.3976 302.322 72.13 308.16 72.13Z" fill="#F2C53D"/>
<path id="Vector_3" d="M273.86 73.14C279.698 73.14 284.43 68.4076 284.43 62.57C284.43 56.7323 279.698 52 273.86 52C268.022 52 263.29 56.7323 263.29 62.57C263.29 68.4076 268.022 73.14 273.86 73.14Z" fill="#F2C53D"/>
<path id="Vector_4" d="M239.57 74.15C245.408 74.15 250.14 69.4177 250.14 63.58C250.14 57.7424 245.408 53.01 239.57 53.01C233.732 53.01 229 57.7424 229 63.58C229 69.4177 233.732 74.15 239.57 74.15Z" fill="#F2C53D"/>
<path id="Vector_5" d="M205.28 75.16C211.118 75.16 215.85 70.4276 215.85 64.59C215.85 58.7523 211.118 54.02 205.28 54.02C199.442 54.02 194.71 58.7523 194.71 64.59C194.71 70.4276 199.442 75.16 205.28 75.16Z" fill="#F2C53D"/>
<path id="Vector_6" d="M170.98 76.17C176.818 76.17 181.55 71.4376 181.55 65.6C181.55 59.7623 176.818 55.03 170.98 55.03C165.142 55.03 160.41 59.7623 160.41 65.6C160.41 71.4376 165.142 76.17 170.98 76.17Z" fill="#F2C53D"/>
<path id="Vector_7" d="M136.69 77.18C142.528 77.18 147.26 72.4476 147.26 66.61C147.26 60.7723 142.528 56.04 136.69 56.04C130.852 56.04 126.12 60.7723 126.12 66.61C126.12 72.4476 130.852 77.18 136.69 77.18Z" fill="#F2C53D"/>
<path id="Vector_8" d="M102.4 78.19C108.238 78.19 112.97 73.4576 112.97 67.62C112.97 61.7823 108.238 57.05 102.4 57.05C96.5624 57.05 91.83 61.7823 91.83 67.62C91.83 73.4576 96.5624 78.19 102.4 78.19Z" fill="#F2C53D"/>
<path id="Vector_9" d="M68.11 79.2C73.9477 79.2 78.68 74.4676 78.68 68.63C78.68 62.7923 73.9477 58.06 68.11 58.06C62.2724 58.06 57.54 62.7923 57.54 68.63C57.54 74.4676 62.2724 79.2 68.11 79.2Z" fill="#F2C53D"/>
<path id="Vector_10" d="M344.47 139.71C350.308 139.71 355.04 134.978 355.04 129.14C355.04 123.302 350.308 118.57 344.47 118.57C338.632 118.57 333.9 123.302 333.9 129.14C333.9 134.978 338.632 139.71 344.47 139.71Z" fill="#F2C53D"/>
<path id="Vector_11" d="M310.18 140.72C316.018 140.72 320.75 135.988 320.75 130.15C320.75 124.312 316.018 119.58 310.18 119.58C304.342 119.58 299.61 124.312 299.61 130.15C299.61 135.988 304.342 140.72 310.18 140.72Z" fill="#F2C53D"/>
<path id="Vector_12" d="M275.88 141.73C281.718 141.73 286.45 136.998 286.45 131.16C286.45 125.322 281.718 120.59 275.88 120.59C270.042 120.59 265.31 125.322 265.31 131.16C265.31 136.998 270.042 141.73 275.88 141.73Z" fill="#F2C53D"/>
<path id="Vector_13" d="M241.59 142.74C247.428 142.74 252.16 138.008 252.16 132.17C252.16 126.332 247.428 121.6 241.59 121.6C235.752 121.6 231.02 126.332 231.02 132.17C231.02 138.008 235.752 142.74 241.59 142.74Z" fill="#F2C53D"/>
<path id="Vector_14" d="M207.3 143.75C213.138 143.75 217.87 139.018 217.87 133.18C217.87 127.342 213.138 122.61 207.3 122.61C201.462 122.61 196.73 127.342 196.73 133.18C196.73 139.018 201.462 143.75 207.3 143.75Z" fill="#F2C53D"/>
<path id="Vector_15" d="M173.01 144.76C178.848 144.76 183.58 140.028 183.58 134.19C183.58 128.352 178.848 123.62 173.01 123.62C167.172 123.62 162.44 128.352 162.44 134.19C162.44 140.028 167.172 144.76 173.01 144.76Z" fill="#F2C53D"/>
<path id="Vector_16" d="M138.71 145.77C144.548 145.77 149.28 141.038 149.28 135.2C149.28 129.362 144.548 124.63 138.71 124.63C132.872 124.63 128.14 129.362 128.14 135.2C128.14 141.038 132.872 145.77 138.71 145.77Z" fill="#F2C53D"/>
<path id="Vector_17" d="M104.42 146.78C110.258 146.78 114.99 142.048 114.99 136.21C114.99 130.372 110.258 125.64 104.42 125.64C98.5824 125.64 93.85 130.372 93.85 136.21C93.85 142.048 98.5824 146.78 104.42 146.78Z" fill="#F2C53D"/>
<path id="Vector_18" d="M70.13 147.79C75.9676 147.79 80.7 143.058 80.7 137.22C80.7 131.382 75.9676 126.65 70.13 126.65C64.2923 126.65 59.56 131.382 59.56 137.22C59.56 143.058 64.2923 147.79 70.13 147.79Z" fill="#F2C53D"/>
<path id="Vector_19" d="M346.49 208.29C352.328 208.29 357.06 203.558 357.06 197.72C357.06 191.882 352.328 187.15 346.49 187.15C340.652 187.15 335.92 191.882 335.92 197.72C335.92 203.558 340.652 208.29 346.49 208.29Z" fill="#F2C53D"/>
<path id="Vector_20" d="M312.2 209.3C318.038 209.3 322.77 204.568 322.77 198.73C322.77 192.892 318.038 188.16 312.2 188.16C306.362 188.16 301.63 192.892 301.63 198.73C301.63 204.568 306.362 209.3 312.2 209.3Z" fill="#F2C53D"/>
<path id="Vector_21" d="M277.91 210.31C283.748 210.31 288.48 205.578 288.48 199.74C288.48 193.902 283.748 189.17 277.91 189.17C272.072 189.17 267.34 193.902 267.34 199.74C267.34 205.578 272.072 210.31 277.91 210.31Z" fill="#F2C53D"/>
<path id="Vector_22" d="M243.61 211.32C249.448 211.32 254.18 206.588 254.18 200.75C254.18 194.912 249.448 190.18 243.61 190.18C237.772 190.18 233.04 194.912 233.04 200.75C233.04 206.588 237.772 211.32 243.61 211.32Z" fill="#F2C53D"/>
<path id="Vector_23" d="M209.32 212.33C215.158 212.33 219.89 207.598 219.89 201.76C219.89 195.922 215.158 191.19 209.32 191.19C203.482 191.19 198.75 195.922 198.75 201.76C198.75 207.598 203.482 212.33 209.32 212.33Z" fill="#F2C53D"/>
<path id="Vector_24" d="M175.03 213.34C180.868 213.34 185.6 208.608 185.6 202.77C185.6 196.932 180.868 192.2 175.03 192.2C169.192 192.2 164.46 196.932 164.46 202.77C164.46 208.608 169.192 213.34 175.03 213.34Z" fill="#F2C53D"/>
<path id="Vector_25" d="M140.73 214.35C146.568 214.35 151.3 209.618 151.3 203.78C151.3 197.942 146.568 193.21 140.73 193.21C134.892 193.21 130.16 197.942 130.16 203.78C130.16 209.618 134.892 214.35 140.73 214.35Z" fill="#F2C53D"/>
<path id="Vector_26" d="M106.44 215.36C112.278 215.36 117.01 210.628 117.01 204.79C117.01 198.952 112.278 194.22 106.44 194.22C100.602 194.22 95.87 198.952 95.87 204.79C95.87 210.628 100.602 215.36 106.44 215.36Z" fill="#F2C53D"/>
<path id="Vector_27" d="M72.15 216.37C77.9877 216.37 82.72 211.638 82.72 205.8C82.72 199.962 77.9877 195.23 72.15 195.23C66.3124 195.23 61.58 199.962 61.58 205.8C61.58 211.638 66.3124 216.37 72.15 216.37Z" fill="#F2C53D"/>
<path id="Vector_28" d="M348.51 276.88C354.348 276.88 359.08 272.148 359.08 266.31C359.08 260.472 354.348 255.74 348.51 255.74C342.672 255.74 337.94 260.472 337.94 266.31C337.94 272.148 342.672 276.88 348.51 276.88Z" fill="#F2C53D"/>
<path id="Vector_29" d="M314.22 277.89C320.058 277.89 324.79 273.158 324.79 267.32C324.79 261.482 320.058 256.75 314.22 256.75C308.382 256.75 303.65 261.482 303.65 267.32C303.65 273.158 308.382 277.89 314.22 277.89Z" fill="#F2C53D"/>
<path id="Vector_30" d="M279.93 278.9C285.768 278.9 290.5 274.168 290.5 268.33C290.5 262.492 285.768 257.76 279.93 257.76C274.092 257.76 269.36 262.492 269.36 268.33C269.36 274.168 274.092 278.9 279.93 278.9Z" fill="#F2C53D"/>
<path id="Vector_31" d="M245.63 279.91C251.468 279.91 256.2 275.178 256.2 269.34C256.2 263.502 251.468 258.77 245.63 258.77C239.792 258.77 235.06 263.502 235.06 269.34C235.06 275.178 239.792 279.91 245.63 279.91Z" fill="#F2C53D"/>
<path id="Vector_32" d="M211.34 280.92C217.178 280.92 221.91 276.188 221.91 270.35C221.91 264.512 217.178 259.78 211.34 259.78C205.502 259.78 200.77 264.512 200.77 270.35C200.77 276.188 205.502 280.92 211.34 280.92Z" fill="#F2C53D"/>
<path id="Vector_33" d="M177.05 281.93C182.888 281.93 187.62 277.198 187.62 271.36C187.62 265.522 182.888 260.79 177.05 260.79C171.212 260.79 166.48 265.522 166.48 271.36C166.48 277.198 171.212 281.93 177.05 281.93Z" fill="#F2C53D"/>
<path id="Vector_34" d="M142.75 282.94C148.588 282.94 153.32 278.208 153.32 272.37C153.32 266.532 148.588 261.8 142.75 261.8C136.912 261.8 132.18 266.532 132.18 272.37C132.18 278.208 136.912 282.94 142.75 282.94Z" fill="#F2C53D"/>
<path id="Vector_35" d="M108.46 283.95C114.298 283.95 119.03 279.218 119.03 273.38C119.03 267.542 114.298 262.81 108.46 262.81C102.622 262.81 97.89 267.542 97.89 273.38C97.89 279.218 102.622 283.95 108.46 283.95Z" fill="#F2C53D"/>
<path id="Vector_36" d="M74.17 284.96C80.0077 284.96 84.74 280.228 84.74 274.39C84.74 268.552 80.0077 263.82 74.17 263.82C68.3324 263.82 63.6 268.552 63.6 274.39C63.6 280.228 68.3324 284.96 74.17 284.96Z" fill="#F2C53D"/>
<path id="Vector_37" d="M288.52 38.39C294.358 38.39 299.09 33.6576 299.09 27.82C299.09 21.9823 294.358 17.25 288.52 17.25C282.682 17.25 277.95 21.9823 277.95 27.82C277.95 33.6576 282.682 38.39 288.52 38.39Z" fill="#F2C53D"/>
<path id="Vector_38" d="M254.23 39.4C260.068 39.4 264.8 34.6677 264.8 28.83C264.8 22.9924 260.068 18.26 254.23 18.26C248.392 18.26 243.66 22.9924 243.66 28.83C243.66 34.6677 248.392 39.4 254.23 39.4Z" fill="#F2C53D"/>
<path id="Vector_39" d="M219.93 40.41C225.768 40.41 230.5 35.6777 230.5 29.84C230.5 24.0024 225.768 19.27 219.93 19.27C214.092 19.27 209.36 24.0024 209.36 29.84C209.36 35.6777 214.092 40.41 219.93 40.41Z" fill="#F2C53D"/>
<path id="Vector_40" d="M185.64 41.42C191.478 41.42 196.21 36.6877 196.21 30.85C196.21 25.0124 191.478 20.28 185.64 20.28C179.802 20.28 175.07 25.0124 175.07 30.85C175.07 36.6877 179.802 41.42 185.64 41.42Z" fill="#F2C53D"/>
<path id="Vector_41" d="M151.35 42.43C157.188 42.43 161.92 37.6977 161.92 31.86C161.92 26.0224 157.188 21.29 151.35 21.29C145.512 21.29 140.78 26.0224 140.78 31.86C140.78 37.6977 145.512 42.43 151.35 42.43Z" fill="#F2C53D"/>
<path id="Vector_42" d="M117.05 43.44C122.888 43.44 127.62 38.7076 127.62 32.87C127.62 27.0323 122.888 22.3 117.05 22.3C111.212 22.3 106.48 27.0323 106.48 32.87C106.48 38.7076 111.212 43.44 117.05 43.44Z" fill="#F2C53D"/>
<path id="Vector_43" d="M82.76 44.45C88.5977 44.45 93.33 39.7177 93.33 33.88C93.33 28.0424 88.5977 23.31 82.76 23.31C76.9224 23.31 72.19 28.0424 72.19 33.88C72.19 39.7177 76.9224 44.45 82.76 44.45Z" fill="#F2C53D"/>
<path id="Vector_44" d="M48.47 45.46C54.3076 45.46 59.04 40.7276 59.04 34.89C59.04 29.0523 54.3076 24.32 48.47 24.32C42.6323 24.32 37.9 29.0523 37.9 34.89C37.9 40.7276 42.6323 45.46 48.47 45.46Z" fill="#F2C53D"/>
<path id="Vector_45" d="M14.17 46.47C20.0076 46.47 24.74 41.7377 24.74 35.9C24.74 30.0624 20.0076 25.33 14.17 25.33C8.33233 25.33 3.59998 30.0624 3.59998 35.9C3.59998 41.7377 8.33233 46.47 14.17 46.47Z" fill="#F2C53D"/>
<path id="Vector_46" d="M290.54 106.97C296.378 106.97 301.11 102.238 301.11 96.4C301.11 90.5624 296.378 85.83 290.54 85.83C284.702 85.83 279.97 90.5624 279.97 96.4C279.97 102.238 284.702 106.97 290.54 106.97Z" fill="#F2C53D"/>
<path id="Vector_47" d="M256.25 107.98C262.088 107.98 266.82 103.248 266.82 97.41C266.82 91.5724 262.088 86.84 256.25 86.84C250.412 86.84 245.68 91.5724 245.68 97.41C245.68 103.248 250.412 107.98 256.25 107.98Z" fill="#F2C53D"/>
<path id="Vector_48" d="M221.95 108.99C227.788 108.99 232.52 104.258 232.52 98.42C232.52 92.5823 227.788 87.85 221.95 87.85C216.112 87.85 211.38 92.5823 211.38 98.42C211.38 104.258 216.112 108.99 221.95 108.99Z" fill="#F2C53D"/>
<path id="Vector_49" d="M187.66 110C193.498 110 198.23 105.268 198.23 99.43C198.23 93.5924 193.498 88.86 187.66 88.86C181.822 88.86 177.09 93.5924 177.09 99.43C177.09 105.268 181.822 110 187.66 110Z" fill="#F2C53D"/>
<path id="Vector_50" d="M153.37 111.01C159.208 111.01 163.94 106.278 163.94 100.44C163.94 94.6024 159.208 89.87 153.37 89.87C147.532 89.87 142.8 94.6024 142.8 100.44C142.8 106.278 147.532 111.01 153.37 111.01Z" fill="#F2C53D"/>
<path id="Vector_51" d="M119.07 112.02C124.908 112.02 129.64 107.288 129.64 101.45C129.64 95.6123 124.908 90.88 119.07 90.88C113.232 90.88 108.5 95.6123 108.5 101.45C108.5 107.288 113.232 112.02 119.07 112.02Z" fill="#F2C53D"/>
<path id="Vector_52" d="M84.78 113.03C90.6176 113.03 95.35 108.298 95.35 102.46C95.35 96.6223 90.6176 91.89 84.78 91.89C78.9423 91.89 74.21 96.6223 74.21 102.46C74.21 108.298 78.9423 113.03 84.78 113.03Z" fill="#F2C53D"/>
<path id="Vector_53" d="M50.49 114.04C56.3276 114.04 61.06 109.308 61.06 103.47C61.06 97.6324 56.3276 92.9 50.49 92.9C44.6523 92.9 39.92 97.6324 39.92 103.47C39.92 109.308 44.6523 114.04 50.49 114.04Z" fill="#F2C53D"/>
<path id="Vector_54" d="M16.19 115.05C22.0276 115.05 26.76 110.318 26.76 104.48C26.76 98.6424 22.0276 93.91 16.19 93.91C10.3523 93.91 5.62 98.6424 5.62 104.48C5.62 110.318 10.3523 115.05 16.19 115.05Z" fill="#F2C53D"/>
<path id="Vector_55" d="M292.56 175.56C298.398 175.56 303.13 170.828 303.13 164.99C303.13 159.152 298.398 154.42 292.56 154.42C286.722 154.42 281.99 159.152 281.99 164.99C281.99 170.828 286.722 175.56 292.56 175.56Z" fill="#F2C53D"/>
<path id="Vector_56" d="M258.27 176.57C264.108 176.57 268.84 171.838 268.84 166C268.84 160.162 264.108 155.43 258.27 155.43C252.432 155.43 247.7 160.162 247.7 166C247.7 171.838 252.432 176.57 258.27 176.57Z" fill="#F2C53D"/>
<path id="Vector_57" d="M223.97 177.58C229.808 177.58 234.54 172.848 234.54 167.01C234.54 161.172 229.808 156.44 223.97 156.44C218.132 156.44 213.4 161.172 213.4 167.01C213.4 172.848 218.132 177.58 223.97 177.58Z" fill="#F2C53D"/>
<path id="Vector_58" d="M189.68 178.59C195.518 178.59 200.25 173.858 200.25 168.02C200.25 162.182 195.518 157.45 189.68 157.45C183.842 157.45 179.11 162.182 179.11 168.02C179.11 173.858 183.842 178.59 189.68 178.59Z" fill="#F2C53D"/>
<path id="Vector_59" d="M155.39 179.6C161.228 179.6 165.96 174.868 165.96 169.03C165.96 163.192 161.228 158.46 155.39 158.46C149.552 158.46 144.82 163.192 144.82 169.03C144.82 174.868 149.552 179.6 155.39 179.6Z" fill="#F2C53D"/>
<path id="Vector_60" d="M121.09 180.61C126.928 180.61 131.66 175.878 131.66 170.04C131.66 164.202 126.928 159.47 121.09 159.47C115.252 159.47 110.52 164.202 110.52 170.04C110.52 175.878 115.252 180.61 121.09 180.61Z" fill="#F2C53D"/>
<path id="Vector_61" d="M86.8 181.62C92.6377 181.62 97.37 176.888 97.37 171.05C97.37 165.212 92.6377 160.48 86.8 160.48C80.9624 160.48 76.23 165.212 76.23 171.05C76.23 176.888 80.9624 181.62 86.8 181.62Z" fill="#F2C53D"/>
<path id="Vector_62" d="M52.51 182.63C58.3477 182.63 63.08 177.898 63.08 172.06C63.08 166.222 58.3477 161.49 52.51 161.49C46.6724 161.49 41.94 166.222 41.94 172.06C41.94 177.898 46.6724 182.63 52.51 182.63Z" fill="#F2C53D"/>
<path id="Vector_63" d="M18.21 183.64C24.0477 183.64 28.78 178.908 28.78 173.07C28.78 167.232 24.0477 162.5 18.21 162.5C12.3724 162.5 7.64001 167.232 7.64001 173.07C7.64001 178.908 12.3724 183.64 18.21 183.64Z" fill="#F2C53D"/>
<path id="Vector_64" d="M294.58 244.15C300.418 244.15 305.15 239.418 305.15 233.58C305.15 227.742 300.418 223.01 294.58 223.01C288.742 223.01 284.01 227.742 284.01 233.58C284.01 239.418 288.742 244.15 294.58 244.15Z" fill="#F2C53D"/>
<path id="Vector_65" d="M260.29 245.16C266.128 245.16 270.86 240.428 270.86 234.59C270.86 228.752 266.128 224.02 260.29 224.02C254.452 224.02 249.72 228.752 249.72 234.59C249.72 240.428 254.452 245.16 260.29 245.16Z" fill="#F2C53D"/>
<path id="Vector_66" d="M225.99 246.17C231.828 246.17 236.56 241.438 236.56 235.6C236.56 229.762 231.828 225.03 225.99 225.03C220.152 225.03 215.42 229.762 215.42 235.6C215.42 241.438 220.152 246.17 225.99 246.17Z" fill="#F2C53D"/>
<path id="Vector_67" d="M191.7 247.18C197.538 247.18 202.27 242.448 202.27 236.61C202.27 230.772 197.538 226.04 191.7 226.04C185.862 226.04 181.13 230.772 181.13 236.61C181.13 242.448 185.862 247.18 191.7 247.18Z" fill="#F2C53D"/>
<path id="Vector_68" d="M157.41 248.19C163.248 248.19 167.98 243.458 167.98 237.62C167.98 231.782 163.248 227.05 157.41 227.05C151.572 227.05 146.84 231.782 146.84 237.62C146.84 243.458 151.572 248.19 157.41 248.19Z" fill="#F2C53D"/>
<path id="Vector_69" d="M123.11 249.2C128.948 249.2 133.68 244.468 133.68 238.63C133.68 232.792 128.948 228.06 123.11 228.06C117.272 228.06 112.54 232.792 112.54 238.63C112.54 244.468 117.272 249.2 123.11 249.2Z" fill="#F2C53D"/>
<path id="Vector_70" d="M88.82 250.21C94.6576 250.21 99.39 245.478 99.39 239.64C99.39 233.802 94.6576 229.07 88.82 229.07C82.9823 229.07 78.25 233.802 78.25 239.64C78.25 245.478 82.9823 250.21 88.82 250.21Z" fill="#F2C53D"/>
<path id="Vector_71" d="M54.53 251.22C60.3676 251.22 65.1 246.488 65.1 240.65C65.1 234.812 60.3676 230.08 54.53 230.08C48.6923 230.08 43.96 234.812 43.96 240.65C43.96 246.488 48.6923 251.22 54.53 251.22Z" fill="#F2C53D"/>
<path id="Vector_72" d="M20.23 252.23C26.0676 252.23 30.8 247.498 30.8 241.66C30.8 235.822 26.0676 231.09 20.23 231.09C14.3923 231.09 9.65997 235.822 9.65997 241.66C9.65997 247.498 14.3923 252.23 20.23 252.23Z" fill="#F2C53D"/>
<path id="Vector_73" d="M296.6 312.73C302.438 312.73 307.17 307.998 307.17 302.16C307.17 296.322 302.438 291.59 296.6 291.59C290.762 291.59 286.03 296.322 286.03 302.16C286.03 307.998 290.762 312.73 296.6 312.73Z" fill="#F2C53D"/>
<path id="Vector_74" d="M262.31 313.74C268.148 313.74 272.88 309.008 272.88 303.17C272.88 297.332 268.148 292.6 262.31 292.6C256.472 292.6 251.74 297.332 251.74 303.17C251.74 309.008 256.472 313.74 262.31 313.74Z" fill="#F2C53D"/>
<path id="Vector_75" d="M228.01 314.75C233.848 314.75 238.58 310.018 238.58 304.18C238.58 298.342 233.848 293.61 228.01 293.61C222.172 293.61 217.44 298.342 217.44 304.18C217.44 310.018 222.172 314.75 228.01 314.75Z" fill="#F2C53D"/>
<path id="Vector_76" d="M193.72 315.76C199.558 315.76 204.29 311.028 204.29 305.19C204.29 299.352 199.558 294.62 193.72 294.62C187.882 294.62 183.15 299.352 183.15 305.19C183.15 311.028 187.882 315.76 193.72 315.76Z" fill="#F2C53D"/>
<path id="Vector_77" d="M159.43 316.77C165.268 316.77 170 312.038 170 306.2C170 300.362 165.268 295.63 159.43 295.63C153.592 295.63 148.86 300.362 148.86 306.2C148.86 312.038 153.592 316.77 159.43 316.77Z" fill="#F2C53D"/>
<path id="Vector_78" d="M125.13 317.78C130.968 317.78 135.7 313.048 135.7 307.21C135.7 301.372 130.968 296.64 125.13 296.64C119.292 296.64 114.56 301.372 114.56 307.21C114.56 313.048 119.292 317.78 125.13 317.78Z" fill="#F2C53D"/>
<path id="Vector_79" d="M90.84 318.79C96.6776 318.79 101.41 314.058 101.41 308.22C101.41 302.382 96.6776 297.65 90.84 297.65C85.0023 297.65 80.27 302.382 80.27 308.22C80.27 314.058 85.0023 318.79 90.84 318.79Z" fill="#F2C53D"/>
<path id="Vector_80" d="M56.55 319.8C62.3877 319.8 67.12 315.068 67.12 309.23C67.12 303.392 62.3877 298.66 56.55 298.66C50.7124 298.66 45.98 303.392 45.98 309.23C45.98 315.068 50.7124 319.8 56.55 319.8Z" fill="#F2C53D"/>
<path id="Vector_81" d="M22.25 320.81C28.0876 320.81 32.82 316.078 32.82 310.24C32.82 304.402 28.0876 299.67 22.25 299.67C16.4123 299.67 11.68 304.402 11.68 310.24C11.68 316.078 16.4123 320.81 22.25 320.81Z" fill="#F2C53D"/>
<path id="Vector_82" d="M342.45 71.12C348.288 71.12 353.02 66.3876 353.02 60.55C353.02 54.7123 348.288 49.98 342.45 49.98C336.612 49.98 331.88 54.7123 331.88 60.55C331.88 66.3876 336.612 71.12 342.45 71.12Z" fill="#F2C53D"/>
<path id="Vector_83" d="M308.16 72.13C313.998 72.13 318.73 67.3976 318.73 61.56C318.73 55.7223 313.998 50.99 308.16 50.99C302.322 50.99 297.59 55.7223 297.59 61.56C297.59 67.3976 302.322 72.13 308.16 72.13Z" fill="#F2C53D"/>
<path id="Vector_84" d="M273.86 73.14C279.698 73.14 284.43 68.4077 284.43 62.57C284.43 56.7324 279.698 52 273.86 52C268.022 52 263.29 56.7324 263.29 62.57C263.29 68.4077 268.022 73.14 273.86 73.14Z" fill="#F2C53D"/>
<path id="Vector_85" d="M239.57 74.15C245.408 74.15 250.14 69.4177 250.14 63.58C250.14 57.7424 245.408 53.01 239.57 53.01C233.732 53.01 229 57.7424 229 63.58C229 69.4177 233.732 74.15 239.57 74.15Z" fill="#F2C53D"/>
<path id="Vector_86" d="M205.28 75.16C211.118 75.16 215.85 70.4276 215.85 64.59C215.85 58.7523 211.118 54.02 205.28 54.02C199.442 54.02 194.71 58.7523 194.71 64.59C194.71 70.4276 199.442 75.16 205.28 75.16Z" fill="#F2C53D"/>
<path id="Vector_87" d="M170.98 76.17C176.818 76.17 181.55 71.4377 181.55 65.6C181.55 59.7624 176.818 55.03 170.98 55.03C165.142 55.03 160.41 59.7624 160.41 65.6C160.41 71.4377 165.142 76.17 170.98 76.17Z" fill="#F2C53D"/>
<path id="Vector_88" d="M136.69 77.18C142.528 77.18 147.26 72.4477 147.26 66.61C147.26 60.7724 142.528 56.04 136.69 56.04C130.852 56.04 126.12 60.7724 126.12 66.61C126.12 72.4477 130.852 77.18 136.69 77.18Z" fill="#F2C53D"/>
<path id="Vector_89" d="M102.4 78.19C108.238 78.19 112.97 73.4576 112.97 67.62C112.97 61.7823 108.238 57.05 102.4 57.05C96.5624 57.05 91.83 61.7823 91.83 67.62C91.83 73.4576 96.5624 78.19 102.4 78.19Z" fill="#F2C53D"/>
<path id="Vector_90" d="M68.11 79.2C73.9477 79.2 78.68 74.4676 78.68 68.63C78.68 62.7923 73.9477 58.06 68.11 58.06C62.2724 58.06 57.54 62.7923 57.54 68.63C57.54 74.4676 62.2724 79.2 68.11 79.2Z" fill="#F2C53D"/>
<path id="Vector_91" d="M344.47 139.71C350.308 139.71 355.04 134.978 355.04 129.14C355.04 123.302 350.308 118.57 344.47 118.57C338.632 118.57 333.9 123.302 333.9 129.14C333.9 134.978 338.632 139.71 344.47 139.71Z" fill="#F2C53D"/>
<path id="Vector_92" d="M310.18 140.72C316.018 140.72 320.75 135.988 320.75 130.15C320.75 124.312 316.018 119.58 310.18 119.58C304.342 119.58 299.61 124.312 299.61 130.15C299.61 135.988 304.342 140.72 310.18 140.72Z" fill="#F2C53D"/>
<path id="Vector_93" d="M275.88 141.73C281.718 141.73 286.45 136.998 286.45 131.16C286.45 125.322 281.718 120.59 275.88 120.59C270.042 120.59 265.31 125.322 265.31 131.16C265.31 136.998 270.042 141.73 275.88 141.73Z" fill="#F2C53D"/>
<path id="Vector_94" d="M241.59 142.74C247.428 142.74 252.16 138.008 252.16 132.17C252.16 126.332 247.428 121.6 241.59 121.6C235.752 121.6 231.02 126.332 231.02 132.17C231.02 138.008 235.752 142.74 241.59 142.74Z" fill="#F2C53D"/>
<path id="Vector_95" d="M207.3 143.75C213.138 143.75 217.87 139.018 217.87 133.18C217.87 127.342 213.138 122.61 207.3 122.61C201.462 122.61 196.73 127.342 196.73 133.18C196.73 139.018 201.462 143.75 207.3 143.75Z" fill="#F2C53D"/>
<path id="Vector_96" d="M173.01 144.76C178.848 144.76 183.58 140.028 183.58 134.19C183.58 128.352 178.848 123.62 173.01 123.62C167.172 123.62 162.44 128.352 162.44 134.19C162.44 140.028 167.172 144.76 173.01 144.76Z" fill="#F2C53D"/>
<path id="Vector_97" d="M138.71 145.77C144.548 145.77 149.28 141.038 149.28 135.2C149.28 129.362 144.548 124.63 138.71 124.63C132.872 124.63 128.14 129.362 128.14 135.2C128.14 141.038 132.872 145.77 138.71 145.77Z" fill="#F2C53D"/>
<path id="Vector_98" d="M104.42 146.78C110.258 146.78 114.99 142.048 114.99 136.21C114.99 130.372 110.258 125.64 104.42 125.64C98.5824 125.64 93.85 130.372 93.85 136.21C93.85 142.048 98.5824 146.78 104.42 146.78Z" fill="#F2C53D"/>
<path id="Vector_99" d="M70.13 147.79C75.9676 147.79 80.7 143.058 80.7 137.22C80.7 131.382 75.9676 126.65 70.13 126.65C64.2923 126.65 59.56 131.382 59.56 137.22C59.56 143.058 64.2923 147.79 70.13 147.79Z" fill="#F2C53D"/>
<path id="Vector_100" d="M346.49 208.29C352.328 208.29 357.06 203.558 357.06 197.72C357.06 191.882 352.328 187.15 346.49 187.15C340.652 187.15 335.92 191.882 335.92 197.72C335.92 203.558 340.652 208.29 346.49 208.29Z" fill="#F2C53D"/>
<path id="Vector_101" d="M312.2 209.3C318.038 209.3 322.77 204.568 322.77 198.73C322.77 192.892 318.038 188.16 312.2 188.16C306.362 188.16 301.63 192.892 301.63 198.73C301.63 204.568 306.362 209.3 312.2 209.3Z" fill="#F2C53D"/>
<path id="Vector_102" d="M277.91 210.31C283.748 210.31 288.48 205.578 288.48 199.74C288.48 193.902 283.748 189.17 277.91 189.17C272.072 189.17 267.34 193.902 267.34 199.74C267.34 205.578 272.072 210.31 277.91 210.31Z" fill="#F2C53D"/>
<path id="Vector_103" d="M243.61 211.32C249.448 211.32 254.18 206.588 254.18 200.75C254.18 194.912 249.448 190.18 243.61 190.18C237.772 190.18 233.04 194.912 233.04 200.75C233.04 206.588 237.772 211.32 243.61 211.32Z" fill="#F2C53D"/>
<path id="Vector_104" d="M209.32 212.33C215.158 212.33 219.89 207.598 219.89 201.76C219.89 195.922 215.158 191.19 209.32 191.19C203.482 191.19 198.75 195.922 198.75 201.76C198.75 207.598 203.482 212.33 209.32 212.33Z" fill="#F2C53D"/>
<path id="Vector_105" d="M175.03 213.34C180.868 213.34 185.6 208.608 185.6 202.77C185.6 196.932 180.868 192.2 175.03 192.2C169.192 192.2 164.46 196.932 164.46 202.77C164.46 208.608 169.192 213.34 175.03 213.34Z" fill="#F2C53D"/>
<path id="Vector_106" d="M140.73 214.35C146.568 214.35 151.3 209.618 151.3 203.78C151.3 197.942 146.568 193.21 140.73 193.21C134.892 193.21 130.16 197.942 130.16 203.78C130.16 209.618 134.892 214.35 140.73 214.35Z" fill="#F2C53D"/>
<path id="Vector_107" d="M106.44 215.36C112.278 215.36 117.01 210.628 117.01 204.79C117.01 198.952 112.278 194.22 106.44 194.22C100.602 194.22 95.87 198.952 95.87 204.79C95.87 210.628 100.602 215.36 106.44 215.36Z" fill="#F2C53D"/>
<path id="Vector_108" d="M72.15 216.37C77.9877 216.37 82.72 211.638 82.72 205.8C82.72 199.962 77.9877 195.23 72.15 195.23C66.3124 195.23 61.58 199.962 61.58 205.8C61.58 211.638 66.3124 216.37 72.15 216.37Z" fill="#F2C53D"/>
<path id="Vector_109" d="M348.51 276.88C354.348 276.88 359.08 272.148 359.08 266.31C359.08 260.472 354.348 255.74 348.51 255.74C342.672 255.74 337.94 260.472 337.94 266.31C337.94 272.148 342.672 276.88 348.51 276.88Z" fill="#F2C53D"/>
<path id="Vector_110" d="M314.22 277.89C320.058 277.89 324.79 273.158 324.79 267.32C324.79 261.482 320.058 256.75 314.22 256.75C308.382 256.75 303.65 261.482 303.65 267.32C303.65 273.158 308.382 277.89 314.22 277.89Z" fill="#F2C53D"/>
<path id="Vector_111" d="M279.93 278.9C285.768 278.9 290.5 274.168 290.5 268.33C290.5 262.492 285.768 257.76 279.93 257.76C274.092 257.76 269.36 262.492 269.36 268.33C269.36 274.168 274.092 278.9 279.93 278.9Z" fill="#F2C53D"/>
<path id="Vector_112" d="M245.63 279.91C251.468 279.91 256.2 275.178 256.2 269.34C256.2 263.502 251.468 258.77 245.63 258.77C239.792 258.77 235.06 263.502 235.06 269.34C235.06 275.178 239.792 279.91 245.63 279.91Z" fill="#F2C53D"/>
<path id="Vector_113" d="M211.34 280.92C217.178 280.92 221.91 276.188 221.91 270.35C221.91 264.512 217.178 259.78 211.34 259.78C205.502 259.78 200.77 264.512 200.77 270.35C200.77 276.188 205.502 280.92 211.34 280.92Z" fill="#F2C53D"/>
<path id="Vector_114" d="M177.05 281.93C182.888 281.93 187.62 277.198 187.62 271.36C187.62 265.522 182.888 260.79 177.05 260.79C171.212 260.79 166.48 265.522 166.48 271.36C166.48 277.198 171.212 281.93 177.05 281.93Z" fill="#F2C53D"/>
<path id="Vector_115" d="M142.75 282.94C148.588 282.94 153.32 278.208 153.32 272.37C153.32 266.532 148.588 261.8 142.75 261.8C136.912 261.8 132.18 266.532 132.18 272.37C132.18 278.208 136.912 282.94 142.75 282.94Z" fill="#F2C53D"/>
<path id="Vector_116" d="M108.46 283.95C114.298 283.95 119.03 279.218 119.03 273.38C119.03 267.542 114.298 262.81 108.46 262.81C102.622 262.81 97.89 267.542 97.89 273.38C97.89 279.218 102.622 283.95 108.46 283.95Z" fill="#F2C53D"/>
<path id="Vector_117" d="M74.17 284.96C80.0077 284.96 84.74 280.228 84.74 274.39C84.74 268.552 80.0077 263.82 74.17 263.82C68.3324 263.82 63.6 268.552 63.6 274.39C63.6 280.228 68.3324 284.96 74.17 284.96Z" fill="#F2C53D"/>
<path id="Vector_118" d="M288.52 38.39C294.358 38.39 299.09 33.6576 299.09 27.82C299.09 21.9823 294.358 17.25 288.52 17.25C282.682 17.25 277.95 21.9823 277.95 27.82C277.95 33.6576 282.682 38.39 288.52 38.39Z" fill="#F2C53D"/>
<path id="Vector_119" d="M254.23 39.4C260.068 39.4 264.8 34.6677 264.8 28.83C264.8 22.9924 260.068 18.26 254.23 18.26C248.392 18.26 243.66 22.9924 243.66 28.83C243.66 34.6677 248.392 39.4 254.23 39.4Z" fill="#F2C53D"/>
<path id="Vector_120" d="M219.93 40.41C225.768 40.41 230.5 35.6777 230.5 29.84C230.5 24.0024 225.768 19.27 219.93 19.27C214.092 19.27 209.36 24.0024 209.36 29.84C209.36 35.6777 214.092 40.41 219.93 40.41Z" fill="#F2C53D"/>
<path id="Vector_121" d="M185.64 41.42C191.478 41.42 196.21 36.6877 196.21 30.85C196.21 25.0124 191.478 20.28 185.64 20.28C179.802 20.28 175.07 25.0124 175.07 30.85C175.07 36.6877 179.802 41.42 185.64 41.42Z" fill="#F2C53D"/>
<path id="Vector_122" d="M151.35 42.43C157.188 42.43 161.92 37.6977 161.92 31.86C161.92 26.0224 157.188 21.29 151.35 21.29C145.512 21.29 140.78 26.0224 140.78 31.86C140.78 37.6977 145.512 42.43 151.35 42.43Z" fill="#F2C53D"/>
<path id="Vector_123" d="M117.05 43.44C122.888 43.44 127.62 38.7076 127.62 32.87C127.62 27.0323 122.888 22.3 117.05 22.3C111.212 22.3 106.48 27.0323 106.48 32.87C106.48 38.7076 111.212 43.44 117.05 43.44Z" fill="#F2C53D"/>
<path id="Vector_124" d="M82.76 44.45C88.5977 44.45 93.33 39.7177 93.33 33.88C93.33 28.0424 88.5977 23.31 82.76 23.31C76.9224 23.31 72.19 28.0424 72.19 33.88C72.19 39.7177 76.9224 44.45 82.76 44.45Z" fill="#F2C53D"/>
<path id="Vector_125" d="M48.47 45.46C54.3076 45.46 59.04 40.7276 59.04 34.89C59.04 29.0523 54.3076 24.32 48.47 24.32C42.6323 24.32 37.9 29.0523 37.9 34.89C37.9 40.7276 42.6323 45.46 48.47 45.46Z" fill="#F2C53D"/>
<path id="Vector_126" d="M14.17 46.47C20.0076 46.47 24.74 41.7377 24.74 35.9C24.74 30.0624 20.0076 25.33 14.17 25.33C8.33233 25.33 3.59998 30.0624 3.59998 35.9C3.59998 41.7377 8.33233 46.47 14.17 46.47Z" fill="#F2C53D"/>
<path id="Vector_127" d="M290.54 106.97C296.378 106.97 301.11 102.238 301.11 96.4C301.11 90.5624 296.378 85.83 290.54 85.83C284.702 85.83 279.97 90.5624 279.97 96.4C279.97 102.238 284.702 106.97 290.54 106.97Z" fill="#F2C53D"/>
<path id="Vector_128" d="M256.25 107.98C262.088 107.98 266.82 103.248 266.82 97.41C266.82 91.5724 262.088 86.84 256.25 86.84C250.412 86.84 245.68 91.5724 245.68 97.41C245.68 103.248 250.412 107.98 256.25 107.98Z" fill="#F2C53D"/>
<path id="Vector_129" d="M221.95 108.99C227.788 108.99 232.52 104.258 232.52 98.42C232.52 92.5823 227.788 87.85 221.95 87.85C216.112 87.85 211.38 92.5823 211.38 98.42C211.38 104.258 216.112 108.99 221.95 108.99Z" fill="#F2C53D"/>
<path id="Vector_130" d="M187.66 110C193.498 110 198.23 105.268 198.23 99.43C198.23 93.5924 193.498 88.86 187.66 88.86C181.822 88.86 177.09 93.5924 177.09 99.43C177.09 105.268 181.822 110 187.66 110Z" fill="#F2C53D"/>
<path id="Vector_131" d="M153.37 111.01C159.208 111.01 163.94 106.278 163.94 100.44C163.94 94.6024 159.208 89.87 153.37 89.87C147.532 89.87 142.8 94.6024 142.8 100.44C142.8 106.278 147.532 111.01 153.37 111.01Z" fill="#F2C53D"/>
<path id="Vector_132" d="M119.07 112.02C124.908 112.02 129.64 107.288 129.64 101.45C129.64 95.6123 124.908 90.88 119.07 90.88C113.232 90.88 108.5 95.6123 108.5 101.45C108.5 107.288 113.232 112.02 119.07 112.02Z" fill="#F2C53D"/>
<path id="Vector_133" d="M84.78 113.03C90.6176 113.03 95.35 108.298 95.35 102.46C95.35 96.6223 90.6176 91.89 84.78 91.89C78.9423 91.89 74.21 96.6223 74.21 102.46C74.21 108.298 78.9423 113.03 84.78 113.03Z" fill="#F2C53D"/>
<path id="Vector_134" d="M50.49 114.04C56.3276 114.04 61.06 109.308 61.06 103.47C61.06 97.6324 56.3276 92.9 50.49 92.9C44.6523 92.9 39.92 97.6324 39.92 103.47C39.92 109.308 44.6523 114.04 50.49 114.04Z" fill="#F2C53D"/>
<path id="Vector_135" d="M16.19 115.05C22.0276 115.05 26.76 110.318 26.76 104.48C26.76 98.6424 22.0276 93.91 16.19 93.91C10.3523 93.91 5.62 98.6424 5.62 104.48C5.62 110.318 10.3523 115.05 16.19 115.05Z" fill="#F2C53D"/>
<g id="Group">
<path id="Vector_136" d="M292.56 175.56C298.398 175.56 303.13 170.828 303.13 164.99C303.13 159.152 298.398 154.42 292.56 154.42C286.722 154.42 281.99 159.152 281.99 164.99C281.99 170.828 286.722 175.56 292.56 175.56Z" fill="#F2C53D"/>
<path id="Vector_137" d="M258.27 176.57C264.108 176.57 268.84 171.838 268.84 166C268.84 160.162 264.108 155.43 258.27 155.43C252.432 155.43 247.7 160.162 247.7 166C247.7 171.838 252.432 176.57 258.27 176.57Z" fill="#F2C53D"/>
<path id="Vector_138" d="M223.97 177.58C229.808 177.58 234.54 172.848 234.54 167.01C234.54 161.172 229.808 156.44 223.97 156.44C218.132 156.44 213.4 161.172 213.4 167.01C213.4 172.848 218.132 177.58 223.97 177.58Z" fill="#F2C53D"/>
<path id="Vector_139" d="M189.68 178.59C195.518 178.59 200.25 173.858 200.25 168.02C200.25 162.182 195.518 157.45 189.68 157.45C183.842 157.45 179.11 162.182 179.11 168.02C179.11 173.858 183.842 178.59 189.68 178.59Z" fill="#F2C53D"/>
<path id="Vector_140" d="M155.39 179.6C161.228 179.6 165.96 174.868 165.96 169.03C165.96 163.192 161.228 158.46 155.39 158.46C149.552 158.46 144.82 163.192 144.82 169.03C144.82 174.868 149.552 179.6 155.39 179.6Z" fill="#F2C53D"/>
<path id="Vector_141" d="M121.09 180.61C126.928 180.61 131.66 175.878 131.66 170.04C131.66 164.202 126.928 159.47 121.09 159.47C115.252 159.47 110.52 164.202 110.52 170.04C110.52 175.878 115.252 180.61 121.09 180.61Z" fill="#F2C53D"/>
<path id="Vector_142" d="M86.8 181.62C92.6377 181.62 97.37 176.888 97.37 171.05C97.37 165.212 92.6377 160.48 86.8 160.48C80.9624 160.48 76.23 165.212 76.23 171.05C76.23 176.888 80.9624 181.62 86.8 181.62Z" fill="#F2C53D"/>
<path id="Vector_143" d="M52.51 182.63C58.3477 182.63 63.08 177.898 63.08 172.06C63.08 166.222 58.3477 161.49 52.51 161.49C46.6724 161.49 41.94 166.222 41.94 172.06C41.94 177.898 46.6724 182.63 52.51 182.63Z" fill="#F2C53D"/>
<path id="Vector_144" d="M18.21 183.64C24.0477 183.64 28.78 178.908 28.78 173.07C28.78 167.232 24.0477 162.5 18.21 162.5C12.3724 162.5 7.64001 167.232 7.64001 173.07C7.64001 178.908 12.3724 183.64 18.21 183.64Z" fill="#F2C53D"/>
</g>
<g id="Group_2">
<path id="Vector_145" d="M294.58 244.15C300.418 244.15 305.15 239.418 305.15 233.58C305.15 227.742 300.418 223.01 294.58 223.01C288.742 223.01 284.01 227.742 284.01 233.58C284.01 239.418 288.742 244.15 294.58 244.15Z" fill="#F2C53D"/>
<path id="Vector_146" d="M260.29 245.16C266.128 245.16 270.86 240.428 270.86 234.59C270.86 228.752 266.128 224.02 260.29 224.02C254.452 224.02 249.72 228.752 249.72 234.59C249.72 240.428 254.452 245.16 260.29 245.16Z" fill="#F2C53D"/>
<path id="Vector_147" d="M225.99 246.17C231.828 246.17 236.56 241.438 236.56 235.6C236.56 229.762 231.828 225.03 225.99 225.03C220.152 225.03 215.42 229.762 215.42 235.6C215.42 241.438 220.152 246.17 225.99 246.17Z" fill="#F2C53D"/>
<path id="Vector_148" d="M191.7 247.18C197.538 247.18 202.27 242.448 202.27 236.61C202.27 230.772 197.538 226.04 191.7 226.04C185.862 226.04 181.13 230.772 181.13 236.61C181.13 242.448 185.862 247.18 191.7 247.18Z" fill="#F2C53D"/>
<path id="Vector_149" d="M157.41 248.19C163.248 248.19 167.98 243.458 167.98 237.62C167.98 231.782 163.248 227.05 157.41 227.05C151.572 227.05 146.84 231.782 146.84 237.62C146.84 243.458 151.572 248.19 157.41 248.19Z" fill="#F2C53D"/>
<path id="Vector_150" d="M123.11 249.2C128.948 249.2 133.68 244.468 133.68 238.63C133.68 232.792 128.948 228.06 123.11 228.06C117.272 228.06 112.54 232.792 112.54 238.63C112.54 244.468 117.272 249.2 123.11 249.2Z" fill="#F2C53D"/>
<path id="Vector_151" d="M88.82 250.21C94.6576 250.21 99.39 245.478 99.39 239.64C99.39 233.802 94.6576 229.07 88.82 229.07C82.9823 229.07 78.25 233.802 78.25 239.64C78.25 245.478 82.9823 250.21 88.82 250.21Z" fill="#F2C53D"/>
<path id="Vector_152" d="M54.53 251.22C60.3676 251.22 65.1 246.488 65.1 240.65C65.1 234.812 60.3676 230.08 54.53 230.08C48.6923 230.08 43.96 234.812 43.96 240.65C43.96 246.488 48.6923 251.22 54.53 251.22Z" fill="#F2C53D"/>
<path id="Vector_153" d="M20.23 252.23C26.0676 252.23 30.8 247.498 30.8 241.66C30.8 235.822 26.0676 231.09 20.23 231.09C14.3923 231.09 9.65997 235.822 9.65997 241.66C9.65997 247.498 14.3923 252.23 20.23 252.23Z" fill="#F2C53D"/>
</g>
<g id="Group_3">
<path id="Vector_154" d="M296.6 312.73C302.438 312.73 307.17 307.998 307.17 302.16C307.17 296.322 302.438 291.59 296.6 291.59C290.762 291.59 286.03 296.322 286.03 302.16C286.03 307.998 290.762 312.73 296.6 312.73Z" fill="#F2C53D"/>
<path id="Vector_155" d="M262.31 313.74C268.148 313.74 272.88 309.008 272.88 303.17C272.88 297.332 268.148 292.6 262.31 292.6C256.472 292.6 251.74 297.332 251.74 303.17C251.74 309.008 256.472 313.74 262.31 313.74Z" fill="#F2C53D"/>
<path id="Vector_156" d="M228.01 314.75C233.848 314.75 238.58 310.018 238.58 304.18C238.58 298.342 233.848 293.61 228.01 293.61C222.172 293.61 217.44 298.342 217.44 304.18C217.44 310.018 222.172 314.75 228.01 314.75Z" fill="#F2C53D"/>
<path id="Vector_157" d="M193.72 315.76C199.558 315.76 204.29 311.028 204.29 305.19C204.29 299.352 199.558 294.62 193.72 294.62C187.882 294.62 183.15 299.352 183.15 305.19C183.15 311.028 187.882 315.76 193.72 315.76Z" fill="#F2C53D"/>
<path id="Vector_158" d="M159.43 316.77C165.268 316.77 170 312.038 170 306.2C170 300.362 165.268 295.63 159.43 295.63C153.592 295.63 148.86 300.362 148.86 306.2C148.86 312.038 153.592 316.77 159.43 316.77Z" fill="#F2C53D"/>
<path id="Vector_159" d="M125.13 317.78C130.968 317.78 135.7 313.048 135.7 307.21C135.7 301.372 130.968 296.64 125.13 296.64C119.292 296.64 114.56 301.372 114.56 307.21C114.56 313.048 119.292 317.78 125.13 317.78Z" fill="#F2C53D"/>
<path id="Vector_160" d="M90.84 318.79C96.6776 318.79 101.41 314.058 101.41 308.22C101.41 302.382 96.6776 297.65 90.84 297.65C85.0023 297.65 80.27 302.382 80.27 308.22C80.27 314.058 85.0023 318.79 90.84 318.79Z" fill="#F2C53D"/>
<path id="Vector_161" d="M56.55 319.8C62.3876 319.8 67.12 315.068 67.12 309.23C67.12 303.392 62.3876 298.66 56.55 298.66C50.7123 298.66 45.98 303.392 45.98 309.23C45.98 315.068 50.7123 319.8 56.55 319.8Z" fill="#F2C53D"/>
<path id="Vector_162" d="M22.25 320.81C28.0876 320.81 32.82 316.078 32.82 310.24C32.82 304.402 28.0876 299.67 22.25 299.67C16.4123 299.67 11.68 304.402 11.68 310.24C11.68 316.078 16.4123 320.81 22.25 320.81Z" fill="#F2C53D"/>
</g>
<path id="Vector_163" d="M338.85 65.72C344.688 65.72 349.42 60.9877 349.42 55.15C349.42 49.3124 344.688 44.58 338.85 44.58C333.012 44.58 328.28 49.3124 328.28 55.15C328.28 60.9877 333.012 65.72 338.85 65.72Z" fill="#4590BF"/>
<path id="Vector_164" d="M304.56 66.73C310.398 66.73 315.13 61.9976 315.13 56.16C315.13 50.3223 310.398 45.59 304.56 45.59C298.722 45.59 293.99 50.3223 293.99 56.16C293.99 61.9976 298.722 66.73 304.56 66.73Z" fill="#4590BF"/>
<path id="Vector_165" d="M270.26 67.74C276.098 67.74 280.83 63.0077 280.83 57.17C280.83 51.3324 276.098 46.6 270.26 46.6C264.422 46.6 259.69 51.3324 259.69 57.17C259.69 63.0077 264.422 67.74 270.26 67.74Z" fill="#4590BF"/>
<path id="Vector_166" d="M235.97 68.75C241.808 68.75 246.54 64.0177 246.54 58.18C246.54 52.3424 241.808 47.61 235.97 47.61C230.132 47.61 225.4 52.3424 225.4 58.18C225.4 64.0177 230.132 68.75 235.97 68.75Z" fill="#4590BF"/>
<path id="Vector_167" d="M201.68 69.76C207.518 69.76 212.25 65.0276 212.25 59.19C212.25 53.3523 207.518 48.62 201.68 48.62C195.842 48.62 191.11 53.3523 191.11 59.19C191.11 65.0276 195.842 69.76 201.68 69.76Z" fill="#4590BF"/>
<path id="Vector_168" d="M167.38 70.77C173.218 70.77 177.95 66.0376 177.95 60.2C177.95 54.3623 173.218 49.63 167.38 49.63C161.542 49.63 156.81 54.3623 156.81 60.2C156.81 66.0376 161.542 70.77 167.38 70.77Z" fill="#4590BF"/>
<path id="Vector_169" d="M133.09 71.78C138.928 71.78 143.66 67.0477 143.66 61.21C143.66 55.3724 138.928 50.64 133.09 50.64C127.252 50.64 122.52 55.3724 122.52 61.21C122.52 67.0477 127.252 71.78 133.09 71.78Z" fill="#4590BF"/>
<path id="Vector_170" d="M98.8 72.79C104.638 72.79 109.37 68.0577 109.37 62.22C109.37 56.3824 104.638 51.65 98.8 51.65C92.9624 51.65 88.23 56.3824 88.23 62.22C88.23 68.0577 92.9624 72.79 98.8 72.79Z" fill="#4590BF"/>
<path id="Vector_171" d="M64.51 73.8C70.3477 73.8 75.08 69.0676 75.08 63.23C75.08 57.3923 70.3477 52.66 64.51 52.66C58.6724 52.66 53.94 57.3923 53.94 63.23C53.94 69.0676 58.6724 73.8 64.51 73.8Z" fill="#4590BF"/>
<path id="Vector_172" d="M340.87 134.31C346.708 134.31 351.44 129.578 351.44 123.74C351.44 117.902 346.708 113.17 340.87 113.17C335.032 113.17 330.3 117.902 330.3 123.74C330.3 129.578 335.032 134.31 340.87 134.31Z" fill="#4590BF"/>
<path id="Vector_173" d="M306.58 135.32C312.418 135.32 317.15 130.588 317.15 124.75C317.15 118.912 312.418 114.18 306.58 114.18C300.742 114.18 296.01 118.912 296.01 124.75C296.01 130.588 300.742 135.32 306.58 135.32Z" fill="#4590BF"/>
<path id="Vector_174" d="M272.28 136.33C278.118 136.33 282.85 131.598 282.85 125.76C282.85 119.922 278.118 115.19 272.28 115.19C266.442 115.19 261.71 119.922 261.71 125.76C261.71 131.598 266.442 136.33 272.28 136.33Z" fill="#4590BF"/>
<path id="Vector_175" d="M237.99 137.34C243.828 137.34 248.56 132.608 248.56 126.77C248.56 120.932 243.828 116.2 237.99 116.2C232.152 116.2 227.42 120.932 227.42 126.77C227.42 132.608 232.152 137.34 237.99 137.34Z" fill="#4590BF"/>
<path id="Vector_176" d="M203.7 138.35C209.538 138.35 214.27 133.618 214.27 127.78C214.27 121.942 209.538 117.21 203.7 117.21C197.862 117.21 193.13 121.942 193.13 127.78C193.13 133.618 197.862 138.35 203.7 138.35Z" fill="#4590BF"/>
<path id="Vector_177" d="M169.41 139.36C175.248 139.36 179.98 134.628 179.98 128.79C179.98 122.952 175.248 118.22 169.41 118.22C163.572 118.22 158.84 122.952 158.84 128.79C158.84 134.628 163.572 139.36 169.41 139.36Z" fill="#4590BF"/>
<path id="Vector_178" d="M135.11 140.37C140.948 140.37 145.68 135.638 145.68 129.8C145.68 123.962 140.948 119.23 135.11 119.23C129.272 119.23 124.54 123.962 124.54 129.8C124.54 135.638 129.272 140.37 135.11 140.37Z" fill="#4590BF"/>
<path id="Vector_179" d="M100.82 141.38C106.658 141.38 111.39 136.648 111.39 130.81C111.39 124.972 106.658 120.24 100.82 120.24C94.9823 120.24 90.25 124.972 90.25 130.81C90.25 136.648 94.9823 141.38 100.82 141.38Z" fill="#4590BF"/>
<path id="Vector_180" d="M66.53 142.39C72.3676 142.39 77.1 137.658 77.1 131.82C77.1 125.982 72.3676 121.25 66.53 121.25C60.6923 121.25 55.96 125.982 55.96 131.82C55.96 137.658 60.6923 142.39 66.53 142.39Z" fill="#4590BF"/>
<path id="Vector_181" d="M342.89 202.89C348.728 202.89 353.46 198.158 353.46 192.32C353.46 186.482 348.728 181.75 342.89 181.75C337.052 181.75 332.32 186.482 332.32 192.32C332.32 198.158 337.052 202.89 342.89 202.89Z" fill="#4590BF"/>
<path id="Vector_182" d="M308.6 203.9C314.438 203.9 319.17 199.168 319.17 193.33C319.17 187.492 314.438 182.76 308.6 182.76C302.762 182.76 298.03 187.492 298.03 193.33C298.03 199.168 302.762 203.9 308.6 203.9Z" fill="#4590BF"/>
<path id="Vector_183" d="M274.31 204.91C280.148 204.91 284.88 200.178 284.88 194.34C284.88 188.502 280.148 183.77 274.31 183.77C268.472 183.77 263.74 188.502 263.74 194.34C263.74 200.178 268.472 204.91 274.31 204.91Z" fill="#4590BF"/>
<path id="Vector_184" d="M240.01 205.92C245.848 205.92 250.58 201.188 250.58 195.35C250.58 189.512 245.848 184.78 240.01 184.78C234.172 184.78 229.44 189.512 229.44 195.35C229.44 201.188 234.172 205.92 240.01 205.92Z" fill="#4590BF"/>
<path id="Vector_185" d="M205.72 206.93C211.558 206.93 216.29 202.198 216.29 196.36C216.29 190.522 211.558 185.79 205.72 185.79C199.882 185.79 195.15 190.522 195.15 196.36C195.15 202.198 199.882 206.93 205.72 206.93Z" fill="#4590BF"/>
<path id="Vector_186" d="M171.43 207.94C177.268 207.94 182 203.208 182 197.37C182 191.532 177.268 186.8 171.43 186.8C165.592 186.8 160.86 191.532 160.86 197.37C160.86 203.208 165.592 207.94 171.43 207.94Z" fill="#4590BF"/>
<path id="Vector_187" d="M137.13 208.95C142.968 208.95 147.7 204.218 147.7 198.38C147.7 192.542 142.968 187.81 137.13 187.81C131.292 187.81 126.56 192.542 126.56 198.38C126.56 204.218 131.292 208.95 137.13 208.95Z" fill="#4590BF"/>
<path id="Vector_188" d="M102.84 209.96C108.678 209.96 113.41 205.228 113.41 199.39C113.41 193.552 108.678 188.82 102.84 188.82C97.0023 188.82 92.27 193.552 92.27 199.39C92.27 205.228 97.0023 209.96 102.84 209.96Z" fill="#4590BF"/>
<path id="Vector_189" d="M68.55 210.97C74.3877 210.97 79.12 206.238 79.12 200.4C79.12 194.562 74.3877 189.83 68.55 189.83C62.7124 189.83 57.98 194.562 57.98 200.4C57.98 206.238 62.7124 210.97 68.55 210.97Z" fill="#4590BF"/>
<path id="Vector_190" d="M344.91 271.48C350.748 271.48 355.48 266.748 355.48 260.91C355.48 255.072 350.748 250.34 344.91 250.34C339.072 250.34 334.34 255.072 334.34 260.91C334.34 266.748 339.072 271.48 344.91 271.48Z" fill="#4590BF"/>
<path id="Vector_191" d="M310.62 272.49C316.458 272.49 321.19 267.758 321.19 261.92C321.19 256.082 316.458 251.35 310.62 251.35C304.782 251.35 300.05 256.082 300.05 261.92C300.05 267.758 304.782 272.49 310.62 272.49Z" fill="#4590BF"/>
<path id="Vector_192" d="M276.33 273.5C282.168 273.5 286.9 268.768 286.9 262.93C286.9 257.092 282.168 252.36 276.33 252.36C270.492 252.36 265.76 257.092 265.76 262.93C265.76 268.768 270.492 273.5 276.33 273.5Z" fill="#4590BF"/>
<path id="Vector_193" d="M242.03 274.51C247.868 274.51 252.6 269.778 252.6 263.94C252.6 258.102 247.868 253.37 242.03 253.37C236.192 253.37 231.46 258.102 231.46 263.94C231.46 269.778 236.192 274.51 242.03 274.51Z" fill="#4590BF"/>
<path id="Vector_194" d="M207.74 275.52C213.578 275.52 218.31 270.788 218.31 264.95C218.31 259.112 213.578 254.38 207.74 254.38C201.902 254.38 197.17 259.112 197.17 264.95C197.17 270.788 201.902 275.52 207.74 275.52Z" fill="#4590BF"/>
<path id="Vector_195" d="M173.45 276.53C179.288 276.53 184.02 271.798 184.02 265.96C184.02 260.122 179.288 255.39 173.45 255.39C167.612 255.39 162.88 260.122 162.88 265.96C162.88 271.798 167.612 276.53 173.45 276.53Z" fill="#4590BF"/>
<path id="Vector_196" d="M139.15 277.54C144.988 277.54 149.72 272.808 149.72 266.97C149.72 261.132 144.988 256.4 139.15 256.4C133.312 256.4 128.58 261.132 128.58 266.97C128.58 272.808 133.312 277.54 139.15 277.54Z" fill="#4590BF"/>
<path id="Vector_197" d="M104.86 278.55C110.698 278.55 115.43 273.818 115.43 267.98C115.43 262.142 110.698 257.41 104.86 257.41C99.0224 257.41 94.29 262.142 94.29 267.98C94.29 273.818 99.0224 278.55 104.86 278.55Z" fill="#4590BF"/>
<path id="Vector_198" d="M70.57 279.56C76.4076 279.56 81.14 274.828 81.14 268.99C81.14 263.152 76.4076 258.42 70.57 258.42C64.7323 258.42 60 263.152 60 268.99C60 274.828 64.7323 279.56 70.57 279.56Z" fill="#4590BF"/>
<path id="Vector_199" d="M284.92 32.99C290.758 32.99 295.49 28.2577 295.49 22.42C295.49 16.5824 290.758 11.85 284.92 11.85C279.082 11.85 274.35 16.5824 274.35 22.42C274.35 28.2577 279.082 32.99 284.92 32.99Z" fill="#4590BF"/>
<path id="Vector_200" d="M250.63 34C256.468 34 261.2 29.2676 261.2 23.43C261.2 17.5924 256.468 12.86 250.63 12.86C244.792 12.86 240.06 17.5924 240.06 23.43C240.06 29.2676 244.792 34 250.63 34Z" fill="#4590BF"/>
<path id="Vector_201" d="M216.33 35.01C222.168 35.01 226.9 30.2776 226.9 24.44C226.9 18.6024 222.168 13.87 216.33 13.87C210.492 13.87 205.76 18.6024 205.76 24.44C205.76 30.2776 210.492 35.01 216.33 35.01Z" fill="#4590BF"/>
<path id="Vector_202" d="M182.04 36.02C187.878 36.02 192.61 31.2877 192.61 25.45C192.61 19.6124 187.878 14.88 182.04 14.88C176.202 14.88 171.47 19.6124 171.47 25.45C171.47 31.2877 176.202 36.02 182.04 36.02Z" fill="#4590BF"/>
<path id="Vector_203" d="M147.75 37.03C153.588 37.03 158.32 32.2976 158.32 26.46C158.32 20.6223 153.588 15.89 147.75 15.89C141.912 15.89 137.18 20.6223 137.18 26.46C137.18 32.2976 141.912 37.03 147.75 37.03Z" fill="#4590BF"/>
<path id="Vector_204" d="M113.45 38.04C119.288 38.04 124.02 33.3076 124.02 27.47C124.02 21.6323 119.288 16.9 113.45 16.9C107.612 16.9 102.88 21.6323 102.88 27.47C102.88 33.3076 107.612 38.04 113.45 38.04Z" fill="#4590BF"/>
<path id="Vector_205" d="M79.16 39.05C84.9977 39.05 89.73 34.3176 89.73 28.48C89.73 22.6423 84.9977 17.91 79.16 17.91C73.3224 17.91 68.59 22.6423 68.59 28.48C68.59 34.3176 73.3224 39.05 79.16 39.05Z" fill="#4590BF"/>
<path id="Vector_206" d="M44.87 40.06C50.7076 40.06 55.44 35.3277 55.44 29.49C55.44 23.6523 50.7076 18.92 44.87 18.92C39.0323 18.92 34.3 23.6523 34.3 29.49C34.3 35.3277 39.0323 40.06 44.87 40.06Z" fill="#4590BF"/>
<path id="Vector_207" d="M10.57 41.07C16.4076 41.07 21.14 36.3377 21.14 30.5C21.14 24.6624 16.4076 19.93 10.57 19.93C4.73235 19.93 0 24.6624 0 30.5C0 36.3377 4.73235 41.07 10.57 41.07Z" fill="#4590BF"/>
<path id="Vector_208" d="M286.94 101.57C292.778 101.57 297.51 96.8377 297.51 91C297.51 85.1624 292.778 80.43 286.94 80.43C281.102 80.43 276.37 85.1624 276.37 91C276.37 96.8377 281.102 101.57 286.94 101.57Z" fill="#4590BF"/>
<path id="Vector_209" d="M252.65 102.58C258.488 102.58 263.22 97.8477 263.22 92.01C263.22 86.1724 258.488 81.44 252.65 81.44C246.812 81.44 242.08 86.1724 242.08 92.01C242.08 97.8477 246.812 102.58 252.65 102.58Z" fill="#4590BF"/>
<path id="Vector_210" d="M218.35 103.59C224.188 103.59 228.92 98.8576 228.92 93.02C228.92 87.1823 224.188 82.45 218.35 82.45C212.512 82.45 207.78 87.1823 207.78 93.02C207.78 98.8576 212.512 103.59 218.35 103.59Z" fill="#4590BF"/>
<path id="Vector_211" d="M184.06 104.6C189.898 104.6 194.63 99.8676 194.63 94.03C194.63 88.1923 189.898 83.46 184.06 83.46C178.222 83.46 173.49 88.1923 173.49 94.03C173.49 99.8676 178.222 104.6 184.06 104.6Z" fill="#4590BF"/>
<path id="Vector_212" d="M149.77 105.61C155.608 105.61 160.34 100.878 160.34 95.04C160.34 89.2024 155.608 84.47 149.77 84.47C143.932 84.47 139.2 89.2024 139.2 95.04C139.2 100.878 143.932 105.61 149.77 105.61Z" fill="#4590BF"/>
<path id="Vector_213" d="M115.47 106.62C121.308 106.62 126.04 101.888 126.04 96.05C126.04 90.2124 121.308 85.48 115.47 85.48C109.632 85.48 104.9 90.2124 104.9 96.05C104.9 101.888 109.632 106.62 115.47 106.62Z" fill="#4590BF"/>
<path id="Vector_214" d="M81.18 107.63C87.0176 107.63 91.75 102.898 91.75 97.06C91.75 91.2223 87.0176 86.49 81.18 86.49C75.3423 86.49 70.61 91.2223 70.61 97.06C70.61 102.898 75.3423 107.63 81.18 107.63Z" fill="#4590BF"/>
<path id="Vector_215" d="M46.89 108.64C52.7277 108.64 57.46 103.908 57.46 98.07C57.46 92.2323 52.7277 87.5 46.89 87.5C41.0524 87.5 36.32 92.2323 36.32 98.07C36.32 103.908 41.0524 108.64 46.89 108.64Z" fill="#4590BF"/>
<path id="Vector_216" d="M12.59 109.65C18.4277 109.65 23.16 104.918 23.16 99.08C23.16 93.2424 18.4277 88.51 12.59 88.51C6.75237 88.51 2.02002 93.2424 2.02002 99.08C2.02002 104.918 6.75237 109.65 12.59 109.65Z" fill="#4590BF"/>
<path id="Vector_217" d="M288.96 170.16C294.798 170.16 299.53 165.428 299.53 159.59C299.53 153.752 294.798 149.02 288.96 149.02C283.122 149.02 278.39 153.752 278.39 159.59C278.39 165.428 283.122 170.16 288.96 170.16Z" fill="#4590BF"/>
<path id="Vector_218" d="M254.67 171.17C260.508 171.17 265.24 166.438 265.24 160.6C265.24 154.762 260.508 150.03 254.67 150.03C248.832 150.03 244.1 154.762 244.1 160.6C244.1 166.438 248.832 171.17 254.67 171.17Z" fill="#4590BF"/>
<path id="Vector_219" d="M220.37 172.18C226.208 172.18 230.94 167.448 230.94 161.61C230.94 155.772 226.208 151.04 220.37 151.04C214.532 151.04 209.8 155.772 209.8 161.61C209.8 167.448 214.532 172.18 220.37 172.18Z" fill="#4590BF"/>
<path id="Vector_220" d="M186.08 173.19C191.918 173.19 196.65 168.458 196.65 162.62C196.65 156.782 191.918 152.05 186.08 152.05C180.242 152.05 175.51 156.782 175.51 162.62C175.51 168.458 180.242 173.19 186.08 173.19Z" fill="#4590BF"/>
<path id="Vector_221" d="M151.79 174.2C157.628 174.2 162.36 169.468 162.36 163.63C162.36 157.792 157.628 153.06 151.79 153.06C145.952 153.06 141.22 157.792 141.22 163.63C141.22 169.468 145.952 174.2 151.79 174.2Z" fill="#4590BF"/>
<path id="Vector_222" d="M117.49 175.21C123.328 175.21 128.06 170.478 128.06 164.64C128.06 158.802 123.328 154.07 117.49 154.07C111.652 154.07 106.92 158.802 106.92 164.64C106.92 170.478 111.652 175.21 117.49 175.21Z" fill="#4590BF"/>
<path id="Vector_223" d="M83.2 176.22C89.0377 176.22 93.77 171.488 93.77 165.65C93.77 159.812 89.0377 155.08 83.2 155.08C77.3624 155.08 72.63 159.812 72.63 165.65C72.63 171.488 77.3624 176.22 83.2 176.22Z" fill="#4590BF"/>
<path id="Vector_224" d="M48.91 177.23C54.7476 177.23 59.48 172.498 59.48 166.66C59.48 160.822 54.7476 156.09 48.91 156.09C43.0723 156.09 38.34 160.822 38.34 166.66C38.34 172.498 43.0723 177.23 48.91 177.23Z" fill="#4590BF"/>
<path id="Vector_225" d="M14.61 178.24C20.4476 178.24 25.18 173.508 25.18 167.67C25.18 161.832 20.4476 157.1 14.61 157.1C8.77233 157.1 4.03998 161.832 4.03998 167.67C4.03998 173.508 8.77233 178.24 14.61 178.24Z" fill="#4590BF"/>
<path id="Vector_226" d="M290.98 238.75C296.818 238.75 301.55 234.018 301.55 228.18C301.55 222.342 296.818 217.61 290.98 217.61C285.142 217.61 280.41 222.342 280.41 228.18C280.41 234.018 285.142 238.75 290.98 238.75Z" fill="#4590BF"/>
<path id="Vector_227" d="M256.69 239.76C262.528 239.76 267.26 235.028 267.26 229.19C267.26 223.352 262.528 218.62 256.69 218.62C250.852 218.62 246.12 223.352 246.12 229.19C246.12 235.028 250.852 239.76 256.69 239.76Z" fill="#4590BF"/>
<path id="Vector_228" d="M222.39 240.77C228.228 240.77 232.96 236.038 232.96 230.2C232.96 224.362 228.228 219.63 222.39 219.63C216.552 219.63 211.82 224.362 211.82 230.2C211.82 236.038 216.552 240.77 222.39 240.77Z" fill="#4590BF"/>
<path id="Vector_229" d="M188.1 241.78C193.938 241.78 198.67 237.048 198.67 231.21C198.67 225.372 193.938 220.64 188.1 220.64C182.262 220.64 177.53 225.372 177.53 231.21C177.53 237.048 182.262 241.78 188.1 241.78Z" fill="#4590BF"/>
<path id="Vector_230" d="M153.81 242.79C159.648 242.79 164.38 238.058 164.38 232.22C164.38 226.382 159.648 221.65 153.81 221.65C147.972 221.65 143.24 226.382 143.24 232.22C143.24 238.058 147.972 242.79 153.81 242.79Z" fill="#4590BF"/>
<path id="Vector_231" d="M119.51 243.8C125.348 243.8 130.08 239.068 130.08 233.23C130.08 227.392 125.348 222.66 119.51 222.66C113.672 222.66 108.94 227.392 108.94 233.23C108.94 239.068 113.672 243.8 119.51 243.8Z" fill="#4590BF"/>
<path id="Vector_232" d="M85.22 244.81C91.0576 244.81 95.79 240.078 95.79 234.24C95.79 228.402 91.0576 223.67 85.22 223.67C79.3823 223.67 74.65 228.402 74.65 234.24C74.65 240.078 79.3823 244.81 85.22 244.81Z" fill="#4590BF"/>
<path id="Vector_233" d="M50.93 245.82C56.7676 245.82 61.5 241.088 61.5 235.25C61.5 229.412 56.7676 224.68 50.93 224.68C45.0923 224.68 40.36 229.412 40.36 235.25C40.36 241.088 45.0923 245.82 50.93 245.82Z" fill="#4590BF"/>
<path id="Vector_234" d="M16.63 246.83C22.4676 246.83 27.2 242.098 27.2 236.26C27.2 230.422 22.4676 225.69 16.63 225.69C10.7923 225.69 6.06 230.422 6.06 236.26C6.06 242.098 10.7923 246.83 16.63 246.83Z" fill="#4590BF"/>
<path id="Vector_235" d="M293 307.33C298.838 307.33 303.57 302.598 303.57 296.76C303.57 290.922 298.838 286.19 293 286.19C287.162 286.19 282.43 290.922 282.43 296.76C282.43 302.598 287.162 307.33 293 307.33Z" fill="#4590BF"/>
<path id="Vector_236" d="M258.71 308.34C264.548 308.34 269.28 303.608 269.28 297.77C269.28 291.932 264.548 287.2 258.71 287.2C252.872 287.2 248.14 291.932 248.14 297.77C248.14 303.608 252.872 308.34 258.71 308.34Z" fill="#4590BF"/>
<path id="Vector_237" d="M224.41 309.35C230.248 309.35 234.98 304.618 234.98 298.78C234.98 292.942 230.248 288.21 224.41 288.21C218.572 288.21 213.84 292.942 213.84 298.78C213.84 304.618 218.572 309.35 224.41 309.35Z" fill="#4590BF"/>
<path id="Vector_238" d="M190.12 310.36C195.958 310.36 200.69 305.628 200.69 299.79C200.69 293.952 195.958 289.22 190.12 289.22C184.282 289.22 179.55 293.952 179.55 299.79C179.55 305.628 184.282 310.36 190.12 310.36Z" fill="#4590BF"/>
<path id="Vector_239" d="M155.83 311.37C161.668 311.37 166.4 306.638 166.4 300.8C166.4 294.962 161.668 290.23 155.83 290.23C149.992 290.23 145.26 294.962 145.26 300.8C145.26 306.638 149.992 311.37 155.83 311.37Z" fill="#4590BF"/>
<path id="Vector_240" d="M121.53 312.38C127.368 312.38 132.1 307.648 132.1 301.81C132.1 295.972 127.368 291.24 121.53 291.24C115.692 291.24 110.96 295.972 110.96 301.81C110.96 307.648 115.692 312.38 121.53 312.38Z" fill="#4590BF"/>
<path id="Vector_241" d="M87.24 313.39C93.0776 313.39 97.81 308.658 97.81 302.82C97.81 296.982 93.0776 292.25 87.24 292.25C81.4023 292.25 76.67 296.982 76.67 302.82C76.67 308.658 81.4023 313.39 87.24 313.39Z" fill="#4590BF"/>
<path id="Vector_242" d="M52.95 314.4C58.7877 314.4 63.52 309.668 63.52 303.83C63.52 297.992 58.7877 293.26 52.95 293.26C47.1124 293.26 42.38 297.992 42.38 303.83C42.38 309.668 47.1124 314.4 52.95 314.4Z" fill="#4590BF"/>
<path id="Vector_243" d="M18.65 315.41C24.4877 315.41 29.22 310.678 29.22 304.84C29.22 299.002 24.4877 294.27 18.65 294.27C12.8124 294.27 8.08002 299.002 8.08002 304.84C8.08002 310.678 12.8124 315.41 18.65 315.41Z" fill="#4590BF"/>
</g>
<g id="donutewhl">
<path id="Vector_244" d="M114.84 160.62C114.85 161.14 114.86 161.66 114.88 162.18C116.95 231.59 163.76 289.35 227.03 308.3C242.33 312.88 258.6 315.19 275.43 314.85C327.33 313.8 372.84 287.77 400.74 248.45C419.58 221.89 430.37 189.29 429.66 154.25C428.95 119.21 417.59 89.06 398.78 63.72C369.44 24.19 322.04 -1.04 269.07 0.0300006C182.13 1.79 113.08 73.69 114.84 160.62ZM273.1 199.68C249.77 200.15 230.48 181.63 230 158.29C229.52 134.95 248.06 115.67 271.39 115.19C294.72 114.71 314.01 133.25 314.49 156.58C314.97 179.91 296.44 199.2 273.1 199.68V199.68Z" fill="#F299B9"/>
<path id="Vector_245" d="M196.24 45.09C193.29 53.81 197.62 68.4 196.75 74.34C196.09 77.99 195.84 78.66 193.9 81.73C193.92 81.71 193.93 81.69 193.96 81.67C193.92 81.73 193.87 81.79 193.83 81.85C193.83 81.83 193.85 81.81 193.86 81.79C193.86 81.77 193.89 81.75 193.9 81.73C192.38 83.43 190.93 85.2 189.12 86.61C183.06 91.71 169.41 95.51 160.04 101.33C128.86 119.98 123.11 166.63 148.79 192.35C161.56 205.33 178.86 212.8 180.32 230.03C180.15 264.06 210.72 299.43 248.92 296.66C278.96 295.68 288.42 278.5 292.33 251.28C294.1 245.7 295.28 241.95 298.73 240.07C300.65 239.29 309.69 240.8 317.08 243.74C324.14 246.42 335.36 254.16 344.69 256.48C381.34 263.7 400.82 227.92 385.42 196.56C380.19 182.28 378.43 168.85 383.32 156.63C384.8 152.66 389.59 145.03 391.98 142.29C392.27 141.91 392.56 141.54 392.85 141.15C418.44 106.25 384.29 44.97 340.49 51.18C329.65 53.26 317.42 65.65 310.9 66.22C306.1 66.72 305.16 66.4 300.4 64.87C288.33 60.83 276.97 41.5 263.21 32.34C242.95 20.06 205.43 18.45 196.24 45.08V45.09ZM383.89 133.27C383.89 133.27 383.96 133.18 383.99 133.14C383.99 133.16 383.97 133.17 383.96 133.19C383.93 133.22 383.91 133.25 383.89 133.27V133.27ZM250.77 39.32C253.56 40.37 256.28 42.08 258.73 43.79C272.57 54.99 289.24 83.06 313.56 77.85C322.36 76.55 333.89 66.48 338.91 64.28C343.29 62.46 344.84 62.26 349.53 62.67C359.67 63.78 373.02 71.98 379.23 81.67C387.55 94.9 392.86 111.85 387.52 126.8C387.54 126.76 387.55 126.73 387.57 126.69C387.83 126.15 387.48 126.97 387.39 127.15C387.44 127.03 387.49 126.92 387.52 126.8C386.68 128.74 385.69 130.61 384.5 132.37C384.42 132.48 383.96 133.14 383.84 133.31C383.86 133.3 383.87 133.29 383.88 133.27C383.85 133.31 383.83 133.34 383.82 133.35C383.62 133.6 383.37 133.91 383.32 133.97C383.15 134.16 383 134.35 382.84 134.54C359.94 161.89 369.57 186.06 378.67 216.34C382.3 233.83 362.81 252.21 343.3 243.39C330.35 238.1 305.06 219.18 288.8 232.54C279.5 241.97 279.99 256.24 276.14 268.13C275.36 270.3 274.71 272.05 272.61 275.08C272.63 275.04 272.66 274.99 272.67 274.96C271.77 276.08 270.76 277.11 269.67 278.05C269.72 278.02 269.76 277.98 269.81 277.95C270.33 277.57 269.49 278.28 269.44 278.28C269.44 278.26 269.5 278.22 269.57 278.15C269.61 278.12 269.64 278.09 269.68 278.06C268.29 279.08 266.87 280.02 265.33 280.81C265 280.98 264.66 281.13 264.33 281.3C264.44 281.26 264.55 281.22 264.66 281.16C264.47 281.25 263.7 281.63 264.22 281.35C264.26 281.33 264.29 281.31 264.33 281.3C255.91 284.66 249.56 285.14 240.11 284.38C218.53 282.47 196.65 263.54 193.51 239.37C192.94 192.18 150.8 197.84 144.76 157.78C141.33 139.12 153.74 115.32 173.75 107.58C229.76 86.25 198.9 63.03 209.69 44.37C210.58 43.27 211.55 42.22 212.62 41.29C214.65 39.51 219.27 37.06 224.79 36.31C230.41 35.21 245.61 36.8 250.77 39.31V39.32Z" fill="white"/>
</g>
<g id="donutshov">
<path id="Vector_246" d="M114.84 160.61C114.85 161.14 114.86 161.66 114.88 162.17C116.95 231.58 163.76 289.34 227.03 308.3C242.33 312.87 258.6 315.19 275.43 314.85C313.81 314.07 348.69 299.64 375.54 276.28C377.55 274.53 376.6 271.26 373.96 270.84C358.01 268.31 343.51 261.32 331.81 251.15C324.84 245.11 318.86 237.93 314.17 229.89C308.18 219.67 304.05 196.28 302.94 188.98C302.8 188.08 301.72 187.71 301.06 188.33C293.72 195.18 283.93 199.44 273.1 199.66C249.77 200.13 230.48 181.62 230 158.27C229.76 146.28 234.53 135.36 242.41 127.5C243.62 126.29 243.56 124.31 242.31 123.15C226.03 108.08 215.66 86.67 215.18 62.74C215.01 54.16 216.12 45.86 218.33 38.01C219.65 33.29 221.39 28.74 223.5 24.38C226.52 18.07 230.31 12.2 234.75 6.87C235.55 5.91 234.66 4.49 233.45 4.8C164.04 22.37 113.33 85.95 114.84 160.59V160.61Z" fill="#F299B9"/>
<path id="Vector_247" d="M196.24 45.08C193.29 53.8 197.62 68.39 196.75 74.33C196.09 77.98 195.84 78.65 193.9 81.72L193.93 81.69C193.9 81.74 193.86 81.79 193.83 81.84C193.83 81.82 193.85 81.8 193.86 81.78C193.86 81.76 193.89 81.74 193.9 81.72C192.38 83.42 190.93 85.19 189.12 86.6C183.06 91.7 169.41 95.5 160.04 101.32C128.86 119.97 123.11 166.62 148.79 192.34C161.56 205.32 178.86 212.79 180.32 230.02C180.15 264.05 210.72 299.42 248.92 296.65C278.96 295.67 288.42 278.49 292.33 251.27C294.1 245.69 295.28 241.94 298.73 240.06C300.65 239.28 309.69 240.79 317.08 243.73C321.04 245.23 326.3 248.32 331.81 251.16C324.84 245.12 318.86 237.94 314.17 229.9C305.19 227.05 296.09 226.55 288.81 232.54C279.51 241.97 280 256.24 276.15 268.13C275.37 270.3 274.72 272.05 272.62 275.08C272.64 275.04 272.67 274.99 272.68 274.96C271.78 276.08 270.77 277.11 269.68 278.05C269.73 278.02 269.77 277.98 269.82 277.95C270.34 277.57 269.5 278.28 269.45 278.28C269.45 278.26 269.51 278.22 269.58 278.15C269.62 278.12 269.65 278.09 269.69 278.06C268.3 279.08 266.88 280.02 265.34 280.81C265.01 280.98 264.67 281.13 264.34 281.3C264.43 281.27 264.51 281.24 264.6 281.19C264.47 281.26 264.23 281.37 264.12 281.42C264.14 281.4 264.18 281.38 264.23 281.35C264.27 281.33 264.3 281.31 264.34 281.3C255.92 284.66 249.57 285.14 240.12 284.38C218.54 282.47 196.66 263.54 193.52 239.37C192.95 192.18 150.81 197.84 144.77 157.78C141.34 139.12 153.75 115.32 173.76 107.58C229.77 86.25 198.91 63.03 209.7 44.37C210.59 43.27 211.56 42.22 212.63 41.29C213.8 40.27 215.81 39.04 218.35 38.02C219.67 33.3 221.41 28.75 223.52 24.39C211.3 26.2 200.61 32.47 196.26 45.08H196.24Z" fill="white"/>
</g>
<g id="donuts">
<path id="Vector_248" d="M413.863 134.58L96.8553 219.522L117.646 297.115L434.653 212.173L413.863 134.58Z" fill="#B3B3B3"/>
<g id="Group_4">
<path id="Vector_249" d="M202.25 224.08C218.37 219.76 223.32 229.43 227.54 245.18C231.56 260.2 233.04 271.58 216.19 276.1L205.2 279.04C200.8 280.22 200.02 277.29 199.23 274.36L188.43 234.06C187.64 231.13 186.86 228.2 191.26 227.02L202.25 224.08ZM202.5 237.05C204.72 245.33 207.21 254.32 209.52 262.97C210.03 264.87 210.65 266.59 211.97 266.24C217.46 264.77 216.65 260.27 213.51 248.55C210.76 238.29 208.92 232.9 203.43 234.37C202.11 234.72 202.09 235.52 202.5 237.05V237.05Z" fill="black"/>
<path id="Vector_250" d="M232.32 237.53C229.16 225.73 227.94 216.79 243.4 212.65C258.13 208.7 261.43 216.93 264.55 228.58C265.73 232.98 267.11 237.24 268.15 241.12C271.25 252.7 271.68 261.61 257.54 265.4C242.08 269.54 238.66 261.19 235.52 249.47C234.99 247.49 234.53 245.49 233.98 243.44C233.43 241.39 232.83 239.43 232.32 237.52V237.53ZM243.2 228.02L249.38 251.1C249.97 253.3 250.75 256.23 254.42 255.25C258.09 254.27 257.3 251.34 256.71 249.14L250.53 226.06C250.04 224.23 249.45 222.03 245.79 223.01C242.13 223.99 242.72 226.19 243.21 228.02H243.2Z" fill="black"/>
<path id="Vector_251" d="M295.06 224.34C295.28 224.28 295.37 224.02 295.23 223.51L290.71 206.66C289.92 203.73 289.14 200.8 293.54 199.62L297.2 198.64C301.6 197.46 302.38 200.39 303.17 203.32L313.97 243.62C314.76 246.55 315.54 249.48 311.14 250.66C304.55 252.43 303.72 251.39 302.1 249.47L286.68 230.91C286.34 230.53 286.04 230.29 285.9 230.33C285.68 230.39 285.69 230.7 285.8 231.14L290.88 249.8C291.67 252.73 292.45 255.66 288.05 256.84L284.39 257.82C279.99 259 279.21 256.07 278.42 253.14L267.62 212.84C266.83 209.91 266.05 206.98 270.45 205.8L274.33 204.76C276.75 204.11 277.63 204.19 279.34 206.17L294.19 223.79C294.55 224.24 294.83 224.41 295.05 224.35L295.06 224.34Z" fill="black"/>
<path id="Vector_252" d="M350.68 224.12C353.11 233.21 353.74 239.63 339.01 243.58C323.55 247.72 320.78 241.79 318.23 232.26C312.03 209.11 310.06 201.47 310.06 201.47C309.27 198.54 308.49 195.61 312.89 194.43L316.55 193.45C320.95 192.27 321.73 195.2 322.52 198.13L331.16 230.37C331.75 232.57 332.24 234.4 336.27 233.32C339.57 232.44 339.08 230.6 338.49 228.41L329.83 196.1C329.06 193.24 328.28 190.31 332.67 189.13L336.33 188.15C340.73 186.97 341.51 189.9 342.28 192.76L350.68 224.12V224.12Z" fill="black"/>
<path id="Vector_253" d="M379.24 226.67C379.84 229.49 380.38 232.1 376.28 233.2L372.62 234.18C368.22 235.36 367.44 232.43 366.65 229.5L357.68 196.02C357.19 194.19 356.71 193.85 355.17 194.26C354.66 194.4 353.94 194.67 353.06 194.9C351.23 195.39 349.68 195.49 349.21 193.73L347.54 187.5C347.15 186.03 348.56 184.87 350.4 184.38L370.62 178.96C372.45 178.47 374.26 178.77 374.65 180.24L376.32 186.47C376.79 188.23 375.4 188.91 373.57 189.41C373.06 189.55 372.38 189.65 371.5 189.89C369.67 190.38 369.64 190.86 370.13 192.69L379.24 226.69V226.67Z" fill="black"/>
<path id="Vector_254" d="M395.51 171.9C401.59 170.27 405.99 170.27 406.54 172.32L408.05 177.96C408.27 178.77 408.35 180.24 405.85 180.9L405.26 181.06C404.09 181.37 401.23 181.27 399.11 181.84C397.35 182.31 396.12 183.27 396.74 185.61C397.36 187.95 398.32 188.88 401.81 190.46C412.45 195.3 415.59 199.96 417.18 205.9C418.08 209.27 418.83 212.37 417.69 215.74C416.25 220.05 412.82 222.46 411.32 223.34C409.48 224.38 406.77 225.42 404.5 226.03C399.08 227.48 393.53 227.87 392.74 224.94L391.23 219.3C390.99 218.42 391.49 217.34 393.47 216.81C395.45 216.28 397.28 216.97 401.46 215.85C403.51 215.3 405.86 212.94 405.26 210.67C404.81 208.98 404.4 207.76 398.75 204.56C390.15 199.72 386.1 197.5 384.49 191.5C380.62 177.07 389.63 173.47 395.49 171.9H395.51Z" fill="black"/>
</g>
</g>
</g>
<defs>
<clipPath id="clip0_4_31">
<rect width="434.65" height="320.82" fill="white"/>
</clipPath>
</defs>
</svg>
