<svg width="383" height="348" viewBox="0 0 383 348" fill="none" xmlns="http://www.w3.org/2000/svg">
<g id="icecream-on" clip-path="url(#clip0_13_558)">
<path id="Vector" d="M19.5327 189.453L9.91898 202.986L212.927 347.203L222.541 333.67L19.5327 189.453Z" fill="#D94848"/>
<path id="Vector_2" d="M38.7613 162.389L29.1476 175.922L232.156 320.139L241.77 306.606L38.7613 162.389Z" fill="#D94848"/>
<path id="Vector_3" d="M57.998 135.33L48.3843 148.863L251.393 293.08L261.006 279.548L57.998 135.33Z" fill="#D94848"/>
<path id="Vector_4" d="M77.2166 108.256L67.6029 121.789L270.611 266.006L280.225 252.473L77.2166 108.256Z" fill="#D94848"/>
<path id="Vector_5" d="M96.451 81.1839L86.8373 94.7167L289.846 238.934L299.459 225.401L96.451 81.1839Z" fill="#D94848"/>
<path id="Vector_6" d="M115.688 54.1256L106.074 67.6584L309.082 211.876L318.696 198.343L115.688 54.1256Z" fill="#D94848"/>
<path id="Vector_7" d="M134.916 27.0614L125.303 40.5942L328.311 184.811L337.925 171.279L134.916 27.0614Z" fill="#D94848"/>
<path id="Vector_8" d="M154.135 -0.0126503L144.521 13.5201L347.53 157.737L357.143 144.205L154.135 -0.0126503Z" fill="#D94848"/>
<path id="Vector_9" d="M63.93 195C77.704 195 88.87 183.834 88.87 170.06C88.87 156.286 77.704 145.12 63.93 145.12C50.156 145.12 38.99 156.286 38.99 170.06C38.99 183.834 50.156 195 63.93 195Z" fill="#F2C53D"/>
<path id="Vector_10" d="M338.177 109.074L274.684 64.2344L226.233 132.841L289.727 177.68L338.177 109.074Z" fill="#4590BF"/>
<path id="Vector_11" d="M219.97 151.45C162.79 135.2 123.26 132.24 101.39 142.58C100.36 143.07 100.01 144.36 100.64 145.31L103.86 150.18L144.17 211.11L206.83 305.83C208.36 308.14 211.96 307.18 212.13 304.41L219.04 191.05L221.34 153.37C221.39 152.49 220.82 151.69 219.98 151.45H219.97ZM219.83 154.33C212.27 158.59 204.06 161.98 195.3 164.33C191.02 165.48 186.73 166.34 182.46 166.94L190.14 197.19C190.79 199.73 192.13 202 193.93 203.91C194.39 204.4 194.77 204.96 194.93 205.53C195.44 207.44 196.47 210.78 193.2 212.09C189.93 213.41 187.17 211.75 186.64 209.29C186.44 208.37 186.65 207.16 186.99 206.02C187.82 203.25 187.91 200.33 187.11 197.56L178.45 167.42C150.83 170.2 123.83 161.84 102.62 145.38C102.12 144.99 102.21 144.21 102.78 143.93C124.05 133.34 163.01 136.28 219.65 152.75C220.38 152.96 220.5 153.96 219.83 154.33V154.33Z" fill="#D99543"/>
<path id="Vector_12" d="M219.59 154.33C212.03 158.59 203.82 161.98 195.06 164.33C192.46 165.03 189.86 165.62 187.26 166.11C184.66 166.6 182.83 169.33 183.51 172.01L189.9 197.18C190.55 199.72 191.89 201.99 193.69 203.9C194.15 204.39 194.53 204.95 194.69 205.52C195.2 207.43 196.23 210.77 192.96 212.08C189.69 213.4 186.93 211.74 186.4 209.28C186.2 208.36 186.41 207.15 186.75 206.01C187.58 203.24 187.67 200.32 186.87 197.55L179.3 171.19C178.67 169.01 176.61 167.58 174.34 167.72C148.08 169.38 122.61 161.05 102.39 145.37C101.89 144.98 101.98 144.2 102.55 143.92C123.82 133.33 162.78 136.27 219.42 152.74C220.15 152.95 220.27 153.95 219.6 154.32L219.59 154.33Z" fill="white"/>
<path id="Vector_13" d="M361.568 138.892L0.00302124 235.773L20.794 313.366L382.359 216.485L361.568 138.892Z" fill="#B3B3B3"/>
<path id="Vector_14" d="M84.4 283.05C85.06 285.52 85.72 287.98 82.02 288.97L78.94 289.8C75.24 290.79 74.58 288.33 73.92 285.86L64.83 251.95C64.17 249.48 63.51 247.02 67.21 246.03L70.29 245.2C73.99 244.21 74.65 246.67 75.31 249.14L84.4 283.05Z" fill="black"/>
<path id="Vector_15" d="M98.2 237.39C99.74 236.98 100.74 237.5 101.07 238.74L102.52 244.17C102.69 244.79 102.93 245.71 100.59 246.34C99.36 246.67 99.26 246.56 98.58 246.75C92.72 248.32 95.58 258.99 96.18 261.2C96.74 263.3 99.88 274.75 105.42 273.26C106.22 273.05 106.19 272.92 107.61 272.54C109.95 271.91 110.55 274.13 110.71 274.75L111.82 278.88C112.23 280.42 111.63 281.38 110.09 281.79C101.34 284.14 90.09 282.85 85.05 264.05C80.34 246.48 89.44 239.74 98.2 237.4V237.39Z" fill="black"/>
<path id="Vector_16" d="M125.42 265.25C125.91 266.57 127.32 266.92 128.56 266.59C132.07 265.65 133.21 265.21 134.51 264.86C137.1 264.17 138.1 264.69 138.6 266.54L139.76 270.86C140.26 272.71 139.8 273.49 137.95 273.99L121.67 278.35C117.97 279.34 116.98 275.64 116.65 274.41L107.56 240.5C106.9 238.03 106.24 235.57 109.94 234.58L125.85 230.32C127.39 229.91 128.91 230.16 129.24 231.39L130.64 236.63C131.04 238.11 129.82 238.5 128.28 238.91C125.88 239.55 123.93 239.94 122.39 240.36C119 241.27 119.33 242.5 119.86 244.47C120.93 248.48 121.21 249.53 124.3 248.7C128.12 247.68 128.71 247.39 130.12 247.01C132.28 246.43 132.98 248.56 133.16 249.23L134.22 253.18C134.72 255.03 133.45 255.5 131.91 255.91C128.77 256.75 126.76 257.16 125.47 257.51C123.5 258.04 123.73 258.9 124.27 260.94L125.43 265.26L125.42 265.25Z" fill="black"/>
<path id="Vector_17" d="M168.79 218.47C170.33 218.06 171.33 218.58 171.66 219.82L173.11 225.25C173.28 225.87 173.52 226.79 171.18 227.42C169.95 227.75 169.85 227.64 169.17 227.83C163.31 229.4 166.17 240.07 166.77 242.28C167.33 244.38 170.47 255.83 176.01 254.34C176.81 254.13 176.78 254 178.2 253.62C180.54 252.99 181.14 255.21 181.3 255.83L182.41 259.96C182.82 261.5 182.22 262.46 180.68 262.87C171.93 265.22 160.68 263.93 155.64 245.13C150.93 227.56 160.03 220.82 168.79 218.48V218.47Z" fill="black"/>
<path id="Vector_18" d="M192.54 212.44C201.73 209.98 206.08 215.88 208.03 223.16C209.22 227.6 209.92 230.45 207.2 234.35C205.87 236.29 204.53 235.73 205.16 238.07C205.84 240.6 207.46 243.47 209.5 242.92C210.61 242.62 211.21 242.13 211.39 242.08C213.36 241.55 214.12 243.13 214.88 245.97C215.24 247.33 215.63 249.01 216.12 250.86C216.45 252.09 216.25 253.33 213.05 254.19C207.38 255.71 203.36 252.29 200.96 248.05C197.94 242.71 195.83 242.22 195.46 242.32C194.97 242.45 195.23 243.44 195.36 243.93L197.71 252.68C198.37 255.15 199.03 257.61 195.33 258.6L191.01 259.76C188.54 260.42 187.88 257.95 187.22 255.49L178.13 221.58C177.47 219.11 176.81 216.65 180.51 215.66L192.53 212.44H192.54ZM190.18 224.83C190.39 225.63 190.84 227.03 191.18 228.33C191.52 229.63 191.75 230.69 191.94 231.43C192.49 233.46 192.95 233.73 195.42 233.07C198.19 232.33 198.08 229.45 197.34 226.67C196.6 223.89 195.07 220.67 192.3 221.41C189.83 222.07 189.58 222.6 190.17 224.82L190.18 224.83Z" fill="black"/>
<path id="Vector_19" d="M229.55 237.35C230.04 238.67 231.45 239.02 232.68 238.69C236.2 237.75 237.33 237.31 238.63 236.96C241.22 236.27 242.22 236.79 242.71 238.64L243.87 242.96C244.37 244.81 243.91 245.59 242.06 246.09L225.78 250.45C222.08 251.44 221.09 247.74 220.76 246.51L211.67 212.6C211.01 210.13 210.35 207.67 214.05 206.68L229.96 202.42C231.5 202.01 233.02 202.26 233.35 203.49L234.75 208.73C235.15 210.21 233.93 210.6 232.39 211.01C229.99 211.65 228.04 212.04 226.5 212.46C223.11 213.37 223.44 214.6 223.97 216.57C225.04 220.58 225.32 221.63 228.41 220.8C232.23 219.78 232.82 219.49 234.23 219.11C236.39 218.53 237.09 220.66 237.27 221.33L238.33 225.28C238.83 227.13 237.56 227.6 236.02 228.01C232.88 228.85 230.87 229.26 229.58 229.61C227.61 230.14 227.84 231 228.38 233.04L229.54 237.36L229.55 237.35Z" fill="black"/>
<path id="Vector_20" d="M279.83 232.66C280.59 235.5 278.74 236.26 275.23 237.2L271.96 238.08C268.14 239.1 267.57 229.34 265.1 230.01L260.17 231.33C257.7 231.99 261.6 240.86 257.9 241.85L255 242.63C251.79 243.49 249.82 243.75 249.06 240.92C248.07 237.22 248.67 233.56 245.77 203.48C245.44 200.26 246.17 198.09 248.64 197.42L258.14 194.88C260.61 194.22 262.33 195.74 263.78 198.66C274.75 222.81 278.85 228.99 279.84 232.68L279.83 232.66ZM257.49 221.07C257.75 222.06 258.19 221.94 260.16 221.41C262.13 220.88 262.56 220.77 262.32 219.84C262.25 219.59 262.17 219.29 261.99 218.87C259.63 213.03 257.39 205.63 256.03 206C254.67 206.37 256.29 213.86 257.31 220.13C257.35 220.52 257.43 220.82 257.5 221.07H257.49Z" fill="black"/>
<path id="Vector_21" d="M299.02 187.61C299.52 184.04 300.87 183.41 303.09 182.82L306.42 181.93C310.12 180.94 310.78 183.4 311.44 185.87L320.53 219.78C321.19 222.25 321.85 224.71 318.15 225.7L315.07 226.53C311.37 227.52 310.71 225.06 310.05 222.59L305.51 205.63C305.41 205.26 305.22 205.05 305.04 205.1C304.86 205.15 304.74 205.45 304.65 205.86C302.6 215.73 303.04 217.86 301.01 218.4C298.98 218.94 298.23 216.9 291.58 209.36C291.3 209.04 290.98 208.86 290.86 208.89C290.68 208.94 290.62 209.22 290.72 209.59L295.26 226.55C295.92 229.02 296.58 231.48 292.88 232.47L289.8 233.3C286.1 234.29 285.44 231.83 284.78 229.36L275.69 195.45C275.03 192.98 274.37 190.52 278.07 189.53L281.34 188.65C283.62 188.04 285.12 187.97 287.32 190.75L294.87 200.42C295.66 201.4 296.13 201.93 296.57 201.82C297.01 201.71 297.14 201 297.34 199.76L299.04 187.61H299.02Z" fill="black"/>
</g>
<defs>
<clipPath id="clip0_13_558">
<rect width="382.36" height="347.24" fill="white"/>
</clipPath>
</defs>
</svg>
