<svg width="405" height="332" viewBox="0 0 405 332" fill="none" xmlns="http://www.w3.org/2000/svg">
<g id="pastry 1" clip-path="url(#clip0_5_309)">
<g id="pastrybkg">
<path id="Vector" d="M40.89 231.4L32.27 255.44C31.48 257.64 29.05 258.79 26.85 258L2.82 249.38C0.610004 248.59 -0.539996 246.16 0.250004 243.95L8.87 219.91C9.66 217.71 12.09 216.56 14.3 217.35L38.33 225.97C40.53 226.76 41.68 229.19 40.89 231.39V231.4Z" fill="#4590BF"/>
<path id="Vector_2" d="M31.8186 155.941L23.2574 179.812C22.4501 182.063 23.6205 184.542 25.8715 185.35L49.7427 193.911C51.9937 194.718 54.4729 193.548 55.2802 191.297L63.8415 167.425C64.6488 165.174 63.4784 162.695 61.2274 161.888L37.3562 153.327C35.1052 152.519 32.626 153.69 31.8186 155.941Z" fill="#4590BF"/>
<path id="Vector_3" d="M86.82 103.35L78.23 127.3C77.43 129.53 74.97 130.69 72.74 129.89L48.8 121.3C46.56 120.5 45.4 118.04 46.2 115.81L54.79 91.86C55.59 89.63 58.05 88.47 60.29 89.27L84.23 97.86C86.46 98.66 87.62 101.12 86.82 103.35V103.35Z" fill="#4590BF"/>
<path id="Vector_4" d="M121.298 7.24099L112.687 31.2534C111.892 33.468 113.044 35.9072 115.258 36.7014L139.271 45.3133C141.485 46.1076 143.924 44.9561 144.719 42.7415L153.331 18.7291C154.125 16.5145 152.973 14.0753 150.759 13.2811L126.746 4.66919C124.532 3.87494 122.093 5.02638 121.298 7.24099Z" fill="#4590BF"/>
<path id="Vector_5" d="M109.81 39.26L101.2 63.27C100.41 65.48 97.97 66.64 95.76 65.85L71.75 57.24C69.54 56.45 68.38 54 69.18 51.79L77.79 27.78C78.58 25.57 81.02 24.42 83.23 25.22L107.24 33.83C109.45 34.62 110.6 37.05 109.81 39.27V39.26Z" fill="#4590BF"/>
<path id="Vector_6" d="M185.332 30.2337L176.741 54.1896C175.941 56.4198 177.1 58.8762 179.331 59.676L203.277 68.2643C205.507 69.0641 207.964 67.9046 208.763 65.6744L217.355 41.7184C218.155 39.4882 216.995 37.0319 214.765 36.232L190.819 27.6438C188.588 26.8439 186.132 28.0035 185.332 30.2337Z" fill="#4590BF"/>
<path id="Vector_7" d="M72.9279 242.878L64.3059 266.919C63.5154 269.123 64.6614 271.551 66.8657 272.341L90.9063 280.963C93.1105 281.754 95.5382 280.608 96.3288 278.403L104.951 254.363C105.741 252.159 104.595 249.731 102.391 248.94L78.3504 240.318C76.1462 239.528 73.7185 240.674 72.9279 242.878Z" fill="#4590BF"/>
<path id="Vector_8" d="M169.01 277.3L160.36 301.42C159.58 303.6 157.17 304.74 154.99 303.96L130.88 295.31C128.69 294.52 127.55 292.12 128.34 289.94L136.99 265.82C137.77 263.64 140.18 262.5 142.37 263.29L166.48 271.94C168.66 272.72 169.8 275.13 169.02 277.31L169.01 277.3Z" fill="#4590BF"/>
<path id="Vector_9" d="M281.42 64.66L272.8 88.7C272.01 90.9 269.58 92.05 267.38 91.26L243.35 82.64C241.14 81.85 239.99 79.42 240.78 77.21L249.4 53.17C250.19 50.96 252.62 49.81 254.84 50.6L278.87 59.22C281.07 60.01 282.22 62.44 281.43 64.65L281.42 64.66Z" fill="#4590BF"/>
<path id="Vector_10" d="M345.47 87.63L336.85 111.67C336.06 113.87 333.63 115.02 331.42 114.23L307.39 105.61C305.19 104.82 304.04 102.39 304.83 100.19L313.45 76.15C314.24 73.94 316.67 72.79 318.88 73.58L342.91 82.2C345.12 82.99 346.27 85.42 345.48 87.64L345.47 87.63Z" fill="#4590BF"/>
<path id="Vector_11" d="M322.5 151.68L313.88 175.72C313.09 177.92 310.66 179.07 308.45 178.28L284.42 169.66C282.22 168.87 281.07 166.44 281.86 164.24L290.48 140.2C291.27 138 293.7 136.85 295.9 137.64L319.93 146.26C322.14 147.05 323.29 149.48 322.5 151.69V151.68Z" fill="#4590BF"/>
<path id="Vector_12" d="M299.53 215.72L290.91 239.76C290.12 241.97 287.69 243.11 285.48 242.32L261.45 233.7C259.25 232.91 258.1 230.49 258.89 228.28L267.51 204.24C268.3 202.04 270.73 200.89 272.93 201.68L296.96 210.3C299.17 211.09 300.32 213.52 299.53 215.73V215.72Z" fill="#4590BF"/>
<path id="Vector_13" d="M276.56 279.78L267.94 303.82C267.15 306.02 264.72 307.17 262.51 306.38L238.48 297.76C236.28 296.97 235.13 294.54 235.92 292.34L244.54 268.3C245.33 266.09 247.76 264.94 249.97 265.73L274 274.35C276.21 275.14 277.36 277.57 276.57 279.79L276.56 279.78Z" fill="#4590BF"/>
<path id="Vector_14" d="M233.05 300.32L224.43 324.36C223.64 326.56 221.21 327.71 219.01 326.92L194.97 318.3C192.76 317.51 191.61 315.08 192.4 312.87L201.02 288.83C201.81 286.63 204.24 285.48 206.45 286.27L230.49 294.89C232.69 295.68 233.84 298.11 233.05 300.31V300.32Z" fill="#4590BF"/>
<path id="Vector_15" d="M148.46 233.83L139.84 257.87C139.05 260.07 136.62 261.22 134.42 260.43L110.38 251.81C108.18 251.02 107.03 248.59 107.82 246.39L116.44 222.35C117.23 220.14 119.66 218.99 121.87 219.78L145.91 228.4C148.11 229.19 149.26 231.62 148.47 233.83H148.46Z" fill="#4590BF"/>
<path id="Vector_16" d="M212.5 256.8L203.88 280.84C203.09 283.04 200.66 284.19 198.46 283.4L174.43 274.78C172.22 273.99 171.07 271.56 171.86 269.35L180.48 245.31C181.27 243.1 183.7 241.95 185.92 242.74L209.95 251.36C212.15 252.15 213.3 254.58 212.51 256.79L212.5 256.8Z" fill="#4590BF"/>
<path id="Vector_17" d="M127.92 190.33L119.3 214.36C118.51 216.56 116.08 217.71 113.88 216.92L89.84 208.3C87.64 207.51 86.49 205.08 87.28 202.88L95.9 178.85C96.69 176.64 99.12 175.49 101.33 176.28L125.37 184.9C127.57 185.69 128.72 188.12 127.93 190.33H127.92Z" fill="#4590BF"/>
<path id="Vector_18" d="M171.43 169.78L162.81 193.82C162.02 196.03 159.59 197.17 157.39 196.38L133.35 187.76C131.15 186.97 130 184.55 130.79 182.34L139.41 158.3C140.2 156.1 142.63 154.95 144.83 155.74L168.87 164.36C171.07 165.15 172.22 167.58 171.43 169.78Z" fill="#4590BF"/>
<path id="Vector_19" d="M141.815 50.7829L133.226 74.7294C132.427 76.9596 133.586 79.416 135.816 80.2158L159.763 88.8041C161.993 89.6039 164.449 88.4444 165.249 86.2142L173.837 62.2677C174.637 60.0375 173.478 57.5811 171.248 56.7813L147.301 48.193C145.071 47.3932 142.614 48.5527 141.815 50.7829Z" fill="#4590BF"/>
<path id="Vector_20" d="M237.88 85.28L229.32 109.15C228.51 111.4 226.04 112.57 223.79 111.77L199.91 103.21C197.66 102.4 196.49 99.92 197.3 97.67L205.86 73.8C206.67 71.55 209.15 70.38 211.4 71.19L235.28 79.75C237.53 80.56 238.69 83.03 237.88 85.28V85.28Z" fill="#4590BF"/>
<path id="Vector_21" d="M301.96 108.17L293.34 132.2C292.55 134.41 290.12 135.56 287.91 134.77L263.87 126.15C261.66 125.36 260.51 122.93 261.3 120.71L269.92 96.68C270.71 94.48 273.14 93.33 275.35 94.12L299.39 102.74C301.59 103.53 302.74 105.96 301.95 108.16L301.96 108.17Z" fill="#4590BF"/>
<path id="Vector_22" d="M278.99 172.22L270.37 196.26C269.58 198.46 267.15 199.61 264.95 198.82L240.91 190.2C238.7 189.41 237.55 186.98 238.34 184.77L246.96 160.73C247.75 158.53 250.18 157.38 252.39 158.17L276.43 166.79C278.63 167.58 279.78 170.01 278.99 172.21V172.22Z" fill="#4590BF"/>
<path id="Vector_23" d="M256.02 236.27L247.4 260.3C246.61 262.5 244.18 263.65 241.98 262.86L217.94 254.24C215.73 253.45 214.58 251.02 215.37 248.81L223.99 224.78C224.78 222.57 227.21 221.42 229.43 222.21L253.47 230.83C255.67 231.62 256.82 234.05 256.03 236.26L256.02 236.27Z" fill="#4590BF"/>
<path id="Vector_24" d="M235.48 192.75L226.86 216.79C226.07 219 223.64 220.14 221.44 219.35L197.41 210.73C195.2 209.94 194.05 207.52 194.84 205.3L203.46 181.26C204.25 179.06 206.68 177.91 208.89 178.7L232.92 187.32C235.12 188.11 236.27 190.54 235.48 192.74V192.75Z" fill="#4590BF"/>
<path id="Vector_25" d="M258.45 128.7L249.83 152.74C249.04 154.94 246.61 156.09 244.41 155.3L220.38 146.68C218.17 145.89 217.02 143.46 217.81 141.25L226.43 117.21C227.22 115.01 229.65 113.86 231.86 114.65L255.89 123.27C258.09 124.06 259.24 126.49 258.45 128.69V128.7Z" fill="#4590BF"/>
<path id="Vector_26" d="M191.97 213.3L183.35 237.33C182.56 239.53 180.14 240.68 177.93 239.89L153.89 231.27C151.69 230.48 150.54 228.05 151.33 225.85L159.95 201.82C160.74 199.61 163.17 198.46 165.38 199.25L189.42 207.87C191.63 208.66 192.77 211.09 191.98 213.3H191.97Z" fill="#4590BF"/>
<path id="Vector_27" d="M182.911 137.754L174.289 161.795C173.499 163.999 174.645 166.427 176.849 167.218L200.889 175.84C203.094 176.63 205.521 175.484 206.312 173.28L214.934 149.239C215.724 147.035 214.578 144.607 212.374 143.817L188.334 135.195C186.129 134.404 183.702 135.55 182.911 137.754Z" fill="#4590BF"/>
<path id="Vector_28" d="M194.37 105.82L185.81 129.69C185 131.94 182.52 133.11 180.27 132.3L156.4 123.74C154.15 122.93 152.98 120.45 153.79 118.2L162.35 94.33C163.16 92.07 165.64 90.91 167.89 91.72L191.76 100.28C194.01 101.09 195.18 103.56 194.37 105.82V105.82Z" fill="#4590BF"/>
<path id="Vector_29" d="M84.41 210.86L75.79 234.9C75 237.1 72.57 238.25 70.36 237.46L46.32 228.84C44.12 228.05 42.97 225.62 43.76 223.42L52.38 199.38C53.17 197.17 55.6 196.02 57.81 196.81L81.85 205.43C84.06 206.22 85.21 208.65 84.42 210.87L84.41 210.86Z" fill="#4590BF"/>
<path id="Vector_30" d="M107.4 146.78L98.76 170.88C97.97 173.07 95.56 174.2 93.37 173.42L69.28 164.78C67.09 163.99 65.94 161.59 66.73 159.39L75.37 135.29C76.15 133.11 78.57 131.97 80.76 132.75L104.85 141.39C107.04 142.18 108.18 144.59 107.4 146.78V146.78Z" fill="#4590BF"/>
<path id="Vector_31" d="M118.837 114.875L110.275 138.746C109.468 140.997 110.638 143.476 112.889 144.283L136.761 152.845C139.012 153.652 141.491 152.482 142.298 150.231L150.859 126.359C151.667 124.108 150.496 121.629 148.245 120.822L124.374 112.261C122.123 111.453 119.644 112.624 118.837 114.875Z" fill="#4590BF"/>
<path id="Vector_32" d="M130.34 82.81L121.75 106.76C120.95 108.99 118.48 110.15 116.25 109.35L92.31 100.76C90.08 99.96 88.91 97.5 89.71 95.27L98.3 71.32C99.1 69.09 101.56 67.93 103.8 68.73L127.74 77.32C129.97 78.12 131.14 80.58 130.34 82.81Z" fill="#4590BF"/>
<path id="Vector_33" d="M282.94 150.66C280.43 157.66 272.72 161.29 265.73 158.79C258.74 156.29 255.09 148.58 257.6 141.58C260.11 134.58 267.82 130.96 274.81 133.46C281.8 135.96 285.45 143.67 282.94 150.66V150.66Z" fill="#F2C53D"/>
<path id="Vector_34" d="M119.08 178.03C126.514 178.03 132.54 172.004 132.54 164.57C132.54 157.136 126.514 151.11 119.08 151.11C111.646 151.11 105.62 157.136 105.62 164.57C105.62 172.004 111.646 178.03 119.08 178.03Z" fill="#F2C53D"/>
<path id="Vector_35" d="M98.54 134.52C105.974 134.52 112 128.494 112 121.06C112 113.626 105.974 107.6 98.54 107.6C91.1063 107.6 85.08 113.626 85.08 121.06C85.08 128.494 91.1063 134.52 98.54 134.52Z" fill="#F2C53D"/>
<path id="Vector_36" d="M121.51 70.47C128.944 70.47 134.97 64.4437 134.97 57.01C134.97 49.5762 128.944 43.55 121.51 43.55C114.076 43.55 108.05 49.5762 108.05 57.01C108.05 64.4437 114.076 70.47 121.51 70.47Z" fill="#F2C53D"/>
<path id="Vector_37" d="M55.03 155.06C62.4638 155.06 68.49 149.034 68.49 141.6C68.49 134.166 62.4638 128.14 55.03 128.14C47.5963 128.14 41.57 134.166 41.57 141.6C41.57 149.034 47.5963 155.06 55.03 155.06Z" fill="#F2C53D"/>
<path id="Vector_38" d="M88.24 189.65C85.73 196.65 78.03 200.29 71.03 197.78C64.03 195.27 60.4 187.57 62.91 180.57C65.42 173.57 73.12 169.94 80.11 172.45C87.1 174.96 90.75 182.66 88.24 189.65V189.65Z" fill="#F2C53D"/>
<path id="Vector_39" d="M52.76 262.17C60.1937 262.17 66.22 256.144 66.22 248.71C66.22 241.276 60.1937 235.25 52.76 235.25C45.3262 235.25 39.3 241.276 39.3 248.71C39.3 256.144 45.3262 262.17 52.76 262.17Z" fill="#F2C53D"/>
<path id="Vector_40" d="M96.11 242.08C103.544 242.08 109.57 236.054 109.57 228.62C109.57 221.186 103.544 215.16 96.11 215.16C88.6763 215.16 82.65 221.186 82.65 228.62C82.65 236.054 88.6763 242.08 96.11 242.08Z" fill="#F2C53D"/>
<path id="Vector_41" d="M142.18 113.64C149.614 113.64 155.64 107.614 155.64 100.18C155.64 92.7462 149.614 86.72 142.18 86.72C134.746 86.72 128.72 92.7462 128.72 100.18C128.72 107.614 134.746 113.64 142.18 113.64Z" fill="#F2C53D"/>
<path id="Vector_42" d="M90.8 81.75C88.29 88.75 80.59 92.39 73.59 89.88C66.59 87.37 62.96 79.67 65.47 72.67C67.98 65.67 75.68 62.04 82.67 64.55C89.66 67.06 93.31 74.76 90.8 81.75V81.75Z" fill="#F2C53D"/>
<path id="Vector_43" d="M185.97 92.32C193.404 92.32 199.43 86.2938 199.43 78.86C199.43 71.4263 193.404 65.4 185.97 65.4C178.536 65.4 172.51 71.4263 172.51 78.86C172.51 86.2938 178.536 92.32 185.97 92.32Z" fill="#F2C53D"/>
<path id="Vector_44" d="M183.05 201.23C190.484 201.23 196.51 195.204 196.51 187.77C196.51 180.336 190.484 174.31 183.05 174.31C175.616 174.31 169.59 180.336 169.59 187.77C169.59 195.204 175.616 201.23 183.05 201.23Z" fill="#F2C53D"/>
<path id="Vector_45" d="M206.02 137.18C213.454 137.18 219.48 131.154 219.48 123.72C219.48 116.286 213.454 110.26 206.02 110.26C198.586 110.26 192.56 116.286 192.56 123.72C192.56 131.154 198.586 137.18 206.02 137.18Z" fill="#F2C53D"/>
<path id="Vector_46" d="M172.75 256.36C170.24 263.35 162.53 266.99 155.54 264.49C148.55 261.99 144.91 254.27 147.41 247.28C149.91 240.29 157.63 236.66 164.62 239.16C171.61 241.66 175.26 249.37 172.75 256.36Z" fill="#F2C53D"/>
<path id="Vector_47" d="M139.62 221.54C147.054 221.54 153.08 215.514 153.08 208.08C153.08 200.646 147.054 194.62 139.62 194.62C132.186 194.62 126.16 200.646 126.16 208.08C126.16 215.514 132.186 221.54 139.62 221.54Z" fill="#F2C53D"/>
<path id="Vector_48" d="M216.34 235.59C213.83 242.59 206.13 246.23 199.13 243.72C192.13 241.21 188.5 233.51 191.01 226.51C193.52 219.51 201.22 215.88 208.21 218.39C215.2 220.9 218.85 228.6 216.34 235.59V235.59Z" fill="#F2C53D"/>
<path id="Vector_49" d="M224.12 288.25C231.554 288.25 237.58 282.224 237.58 274.79C237.58 267.356 231.554 261.33 224.12 261.33C216.686 261.33 210.66 267.356 210.66 274.79C210.66 282.224 216.686 288.25 224.12 288.25Z" fill="#F2C53D"/>
<path id="Vector_50" d="M226.64 180.47C234.074 180.47 240.1 174.444 240.1 167.01C240.1 159.576 234.074 153.55 226.64 153.55C219.206 153.55 213.18 159.576 213.18 167.01C213.18 174.444 219.206 180.47 226.64 180.47Z" fill="#F2C53D"/>
<path id="Vector_51" d="M172.552 153.08C177.548 147.576 177.136 139.063 171.632 134.067C166.128 129.071 157.615 129.483 152.619 134.987C147.623 140.491 148.035 149.004 153.539 154C159.043 158.996 167.556 158.585 172.552 153.08Z" fill="#F2C53D"/>
<path id="Vector_52" d="M267.72 267.49C275.154 267.49 281.18 261.464 281.18 254.03C281.18 246.596 275.154 240.57 267.72 240.57C260.286 240.57 254.26 246.596 254.26 254.03C254.26 261.464 260.286 267.49 267.72 267.49Z" fill="#F2C53D"/>
<path id="Vector_53" d="M290.69 203.44C298.124 203.44 304.15 197.414 304.15 189.98C304.15 182.546 298.124 176.52 290.69 176.52C283.256 176.52 277.23 182.546 277.23 189.98C277.23 197.414 283.256 203.44 290.69 203.44Z" fill="#F2C53D"/>
<path id="Vector_54" d="M249.72 116.13C257.154 116.13 263.18 110.104 263.18 102.67C263.18 95.2363 257.154 89.21 249.72 89.21C242.286 89.21 236.26 95.2363 236.26 102.67C236.26 110.104 242.286 116.13 249.72 116.13Z" fill="#F2C53D"/>
<path id="Vector_55" d="M313.77 139.1C321.204 139.1 327.23 133.074 327.23 125.64C327.23 118.206 321.204 112.18 313.77 112.18C306.336 112.18 300.31 118.206 300.31 125.64C300.31 133.074 306.336 139.1 313.77 139.1Z" fill="#F2C53D"/>
<path id="Vector_56" d="M247.1 224.2C254.534 224.2 260.56 218.174 260.56 210.74C260.56 203.306 254.534 197.28 247.1 197.28C239.666 197.28 233.64 203.306 233.64 210.74C233.64 218.174 239.666 224.2 247.1 224.2Z" fill="#F2C53D"/>
<path id="Vector_57" d="M31.1 219.02C38.5338 219.02 44.56 212.994 44.56 205.56C44.56 198.126 38.5338 192.1 31.1 192.1C23.6663 192.1 17.64 198.126 17.64 205.56C17.64 212.994 23.6663 219.02 31.1 219.02Z" fill="#F2C53D"/>
<path id="Vector_58" d="M116.42 286.25C123.854 286.25 129.88 280.224 129.88 272.79C129.88 265.356 123.854 259.33 116.42 259.33C108.986 259.33 102.96 265.356 102.96 272.79C102.96 280.224 108.986 286.25 116.42 286.25Z" fill="#F2C53D"/>
<path id="Vector_59" d="M180.86 308.12C188.294 308.12 194.32 302.094 194.32 294.66C194.32 287.226 188.294 281.2 180.86 281.2C173.426 281.2 167.4 287.226 167.4 294.66C167.4 302.094 173.426 308.12 180.86 308.12Z" fill="#F2C53D"/>
<path id="Vector_60" d="M244.75 331.54C252.184 331.54 258.21 325.514 258.21 318.08C258.21 310.646 252.184 304.62 244.75 304.62C237.316 304.62 231.29 310.646 231.29 318.08C231.29 325.514 237.316 331.54 244.75 331.54Z" fill="#F2C53D"/>
<path id="Vector_61" d="M100.86 26.92C108.294 26.92 114.32 20.8938 114.32 13.46C114.32 6.02625 108.294 0 100.86 0C93.4263 0 87.4 6.02625 87.4 13.46C87.4 20.8938 93.4263 26.92 100.86 26.92Z" fill="#F2C53D"/>
<path id="Vector_62" d="M165.03 49.94C172.464 49.94 178.49 43.9138 178.49 36.48C178.49 29.0463 172.464 23.02 165.03 23.02C157.596 23.02 151.57 29.0463 151.57 36.48C151.57 43.9138 157.596 49.94 165.03 49.94Z" fill="#F2C53D"/>
<path id="Vector_63" d="M229.15 72.69C236.584 72.69 242.61 66.6638 242.61 59.23C242.61 51.7963 236.584 45.77 229.15 45.77C221.716 45.77 215.69 51.7963 215.69 59.23C215.69 66.6638 221.716 72.69 229.15 72.69Z" fill="#F2C53D"/>
<path id="Vector_64" d="M293.32 95.32C300.754 95.32 306.78 89.2938 306.78 81.86C306.78 74.4263 300.754 68.4 293.32 68.4C285.886 68.4 279.86 74.4263 279.86 81.86C279.86 89.2938 285.886 95.32 293.32 95.32Z" fill="#F2C53D"/>
</g>
<g id="pastryfull">
<path id="Vector_65" d="M287.72 150.98V177.1L113.97 105.18V79.06L287.72 150.98Z" fill="#D99543"/>
<path id="Vector_66" d="M287.72 193.6V219.72L113.97 147.81V121.69L287.72 193.6Z" fill="#D99543"/>
<path id="Vector_67" d="M287.72 234.18V256.98C287.72 258.57 286.11 259.64 284.64 259.04L199.24 223.68L113.97 188.39V162.27L287.72 234.18Z" fill="#D99543"/>
<path id="Vector_68" d="M287.72 219.72V234.18L113.97 162.27V147.81L287.72 219.72Z" fill="#F299B9"/>
<path id="Vector_69" d="M287.72 177.1V193.6L113.97 121.69V105.18L287.72 177.1Z" fill="#F299B9"/>
<path id="Vector_70" d="M199.24 223.68L113.97 188.39V188.37L199.24 223.68Z" fill="#4590BF"/>
<path id="Vector_71" d="M287.72 139.18V150.98L113.97 79.06V188.37L100.59 182.83C99.65 182.44 99.04 181.53 99.04 180.51V61.9C99.04 60.6 99.89 59.46 101.13 59.09C105.35 57.85 109.63 56.71 113.97 55.68C144.5 48.42 178.09 46.19 214.8 49.06C215.63 49.13 216.41 49.53 216.93 50.18L286.89 136.82C287.43 137.49 287.72 138.31 287.72 139.17V139.18Z" fill="#F299B9"/>
<path id="Vector_72" d="M287.72 148.08V150.98L113.97 79.06V76.17L287.72 148.08Z" fill="#D94848"/>
<path id="Vector_73" d="M287.72 193.34V196.24L113.97 124.32V121.43L287.72 193.34Z" fill="#D94848"/>
<path id="Vector_74" d="M287.72 234.19V237.09L113.97 165.17V162.28L287.72 234.19Z" fill="#D94848"/>
<path id="Vector_75" d="M169.81 75.38C181.447 75.38 190.88 65.9466 190.88 54.31C190.88 42.6734 181.447 33.24 169.81 33.24C158.173 33.24 148.74 42.6734 148.74 54.31C148.74 65.9466 158.173 75.38 169.81 75.38Z" fill="#D94848"/>
</g>
<g id="pastryhov">
<path id="Vector_76" d="M168.87 101.78V127.9L113.97 105.18V79.06L168.87 101.78Z" fill="#D99543"/>
<path id="Vector_77" d="M168.87 144.41V170.53L113.97 147.81V121.69L168.87 144.41Z" fill="#D99543"/>
<path id="Vector_78" d="M168.87 184.99V211.11L113.97 188.39V162.27L168.87 184.99Z" fill="#D99543"/>
<path id="Vector_79" d="M168.87 170.53V184.99L113.97 162.27V147.81L168.87 170.53Z" fill="#F299B9"/>
<path id="Vector_80" d="M168.87 127.9V144.41L113.97 121.69V105.18L168.87 127.9Z" fill="#F299B9"/>
<path id="Vector_81" d="M168.87 211.1V211.11L113.97 188.39V188.37L168.87 211.1Z" fill="#4590BF"/>
<path id="Vector_82" d="M246.69 87.05C246.41 87.05 246.14 87.05 245.86 87.06C235.04 87.32 224.54 88.08 214.33 89.34C203.83 90.63 193.66 92.45 183.8 94.8C178.74 96 173.76 97.35 168.87 98.83V101.78L113.97 79.06V188.37L100.58 182.83C99.65 182.44 99.04 181.53 99.04 180.51V61.9C99.04 60.61 99.89 59.46 101.13 59.09C105.34 57.86 109.63 56.72 113.97 55.69C125.3 52.99 137.06 50.99 149.25 49.68C162.3 48.28 175.84 47.69 189.87 47.9C198.01 48.01 206.33 48.4 214.8 49.06C215.63 49.13 216.4 49.54 216.93 50.19L246.59 86.92L246.69 87.05V87.05Z" fill="#F299B9"/>
<path id="Vector_83" d="M168.87 98.89V101.78L113.97 79.06V76.17L168.87 98.89Z" fill="#D94848"/>
<path id="Vector_84" d="M168.87 144.14V147.03L113.97 124.31V121.42L168.87 144.14Z" fill="#D94848"/>
<path id="Vector_85" d="M168.87 185V187.89L113.97 165.17V162.28L168.87 185Z" fill="#D94848"/>
<path id="Vector_86" d="M169.8 75.38C181.437 75.38 190.87 65.9466 190.87 54.31C190.87 42.6734 181.437 33.24 169.8 33.24C158.163 33.24 148.73 42.6734 148.73 54.31C148.73 65.9466 158.163 75.38 169.8 75.38Z" fill="#D94848"/>
<path id="Vector_87" d="M246.69 87.05V90.55C236.06 87.08 184.6 94.5 168.87 101.78V98.83C179.49 93.24 234.17 83.96 245.86 87.06C246.13 87.15 246.41 87.05 246.69 87.05V87.05Z" fill="#D94848"/>
<path id="Vector_88" d="M246.69 175.09V196.64C236.24 197.29 168.87 211.11 168.87 211.11V187.89C183.04 179.78 235.62 170.85 246.69 175.09Z" fill="#D99543"/>
<path id="Vector_89" d="M246.69 118.11V134.22C235.18 129.67 183.26 136.63 168.87 144.14V127.9C183.05 120.55 234.33 113.3 246.69 118.11V118.11Z" fill="#F299B9"/>
<path id="Vector_90" d="M246.69 136.91V158.59C236.98 158.33 225.99 160.65 214.33 164.32C199.97 164.33 184.7 166.7 168.87 170.53V147.03C182.36 140.02 234.35 132.78 246.69 136.91V136.91Z" fill="#D99543"/>
<path id="Vector_91" d="M246.69 158.59V171.82C229.57 171.1 186.55 177.02 168.87 185V170.53C183.43 162.22 235.71 153.83 246.69 158.59Z" fill="#F299B9"/>
<path id="Vector_92" d="M246.69 90.55V118.11C234.47 113.29 183.18 120.52 168.87 127.9V101.78C183.88 94.62 235.27 86.99 246.69 90.55Z" fill="#D99543"/>
<path id="Vector_93" d="M246.69 171.82V175.09C236.64 170.99 183.94 179.7 168.87 187.89V185C182.92 177.22 235.64 168.1 246.69 171.82V171.82Z" fill="#D94848"/>
<path id="Vector_94" d="M246.69 134.22V136.91C234.52 132.96 182.4 139.94 168.87 147.03V144.14C183.33 136.51 235.33 129.79 246.69 134.22V134.22Z" fill="#D94848"/>
</g>
<g id="pastry">
<path id="Vector_95" d="M388.46 154.105L21.3193 227.067L36.9771 305.856L404.117 232.894L388.46 154.105Z" fill="#B3B3B3"/>
<g id="Group">
<path id="Vector_96" d="M105.21 262.9L107.62 275C108.27 278.29 108.93 281.59 103.99 282.57L99.87 283.39C94.93 284.37 94.28 281.08 93.62 277.78L84.62 232.49C83.97 229.2 83.31 225.9 88.25 224.92L106.12 221.37C115.01 219.6 121.47 225.85 123.77 237.38C124.69 241.99 124.6 248.43 123.87 251.23C122.35 257.35 114.69 259.73 110.08 260.65C108.02 261.06 107 261.09 107 261.09C105.02 261.48 105.07 262.16 105.22 262.9H105.21ZM100.24 238.3C100.45 239.37 100.81 240.75 101.16 242.48C101.49 244.13 101.7 245.63 101.9 246.61C102.44 249.33 103.03 249.72 106.33 249.07C110.69 248.2 110.14 244.55 109.4 240.84C108.66 237.13 106.94 232.77 103.24 233.51C99.95 234.16 99.66 235.33 100.25 238.3H100.24Z" fill="black"/>
<path id="Vector_97" d="M174.31 264.32C175.06 268.11 172.58 268.94 167.88 269.88L163.52 270.75C158.41 271.76 158.51 258.91 155.22 259.56L148.63 260.87C145.34 261.52 149.69 273.5 144.74 274.48L140.87 275.25C136.59 276.1 133.97 276.28 133.22 272.49C132.24 267.55 133.35 262.79 132.13 223.07C131.97 218.82 133.13 216.02 136.42 215.37L149.1 212.85C152.39 212.2 154.53 214.34 156.17 218.29C168.48 250.94 173.32 259.39 174.3 264.33L174.31 264.32ZM146 247.18C146.26 248.5 146.84 248.38 149.47 247.86C152.02 247.35 152.68 247.22 152.43 245.99C152.36 245.66 152.28 245.25 152.09 244.69C149.5 236.82 147.19 226.92 145.38 227.28C143.65 227.62 145.04 237.62 145.83 245.93C145.85 246.44 145.93 246.85 145.99 247.18H146Z" fill="black"/>
<path id="Vector_98" d="M187.8 204.72C194.63 203.36 199.49 203.68 199.95 205.99L201.21 212.33C201.39 213.24 201.37 214.87 198.57 215.42L197.91 215.55C196.59 215.81 193.45 215.5 191.06 215.97C189.08 216.36 187.65 217.33 188.17 219.97C188.68 222.52 189.68 223.69 193.41 225.69C204.81 231.81 207.93 237.18 209.26 243.85C210.01 247.64 210.62 251.11 209.11 254.75C207.21 259.41 203.24 261.82 201.53 262.68C199.42 263.7 196.36 264.65 193.81 265.16C187.72 266.37 181.56 266.4 180.91 263.1L179.65 256.76C179.45 255.77 180.08 254.62 182.3 254.18C184.44 253.75 186.5 254.63 191.19 253.7C193.5 253.24 196.26 250.81 195.76 248.26C195.38 246.37 195.02 244.98 189.02 241.04C179.87 235.07 175.56 232.33 174.22 225.58C171 209.36 181.21 206.05 187.79 204.74L187.8 204.72Z" fill="black"/>
<path id="Vector_99" d="M240.21 249.25C240.67 252.41 241.07 255.33 236.46 256.24L232.34 257.06C227.4 258.04 226.75 254.75 226.09 251.45L218.61 213.82C218.2 211.76 217.69 211.35 215.96 211.69C215.38 211.8 214.58 212.05 213.59 212.25C211.53 212.66 209.82 212.66 209.43 210.68L208.04 203.68C207.71 202.03 209.36 200.85 211.42 200.44L234.15 195.92C236.21 195.51 238.18 195.97 238.51 197.62L239.9 204.62C240.29 206.6 238.71 207.25 236.65 207.66C236.07 207.77 235.32 207.84 234.33 208.04C232.27 208.45 232.2 208.98 232.61 211.03L240.2 249.23L240.21 249.25Z" fill="black"/>
<path id="Vector_100" d="M266.09 189.59C278.36 187.15 283.57 195.27 285.5 204.99C286.68 210.92 287.35 214.72 283.44 219.61C281.53 222.04 279.82 221.19 280.44 224.31C281.11 227.69 283 231.59 285.72 231.05C287.2 230.76 288.03 230.16 288.27 230.11C290.9 229.59 291.76 231.73 292.51 235.52C292.87 237.33 293.23 239.57 293.72 242.04C294.05 243.69 293.68 245.3 289.4 246.15C281.82 247.66 276.84 242.82 274.07 237.04C270.57 229.78 267.84 228.95 267.35 229.05C266.69 229.18 266.95 230.5 267.08 231.16L269.4 242.85C270.06 246.14 270.71 249.44 265.77 250.42L260.01 251.57C256.72 252.22 256.06 248.93 255.41 245.64L246.41 200.35C245.76 197.06 245.1 193.76 250.04 192.78L266.1 189.59H266.09ZM261.92 205.65C262.13 206.72 262.59 208.6 262.93 210.33C263.26 211.98 263.47 213.48 263.67 214.46C264.21 217.18 264.8 217.57 268.1 216.92C271.81 216.18 271.91 212.4 271.17 208.69C270.43 204.98 268.71 200.62 265.01 201.36C261.72 202.01 261.34 202.69 261.93 205.65H261.92Z" fill="black"/>
<path id="Vector_101" d="M314.51 240.74C309.57 241.72 308.92 238.43 308.26 235.13L305.79 222.7C304.91 218.25 298.58 208.81 296.41 205.65L296.05 205.12C293.67 201.74 286.32 190.19 285.86 187.89C285.43 185.75 287.25 185.39 287.82 185.27L297.21 183.4C299.84 182.88 301.37 186.25 302.64 189.17C303.74 191.69 308.29 200.37 308.6 201.08C308.8 201.64 309.27 201.89 309.6 201.82C310.01 201.74 310.29 201.43 310.26 200.83C310.2 200.07 310.82 190.28 310.95 187.51C311.09 184.32 311.37 180.58 314.33 179.99L321.66 178.53C324.13 178.04 325.04 177.86 325.46 180C325.92 182.31 323.65 195.85 322.72 199.8C322.31 201.59 321.66 205.66 320.78 210.29C319.5 217.22 319.42 218.09 320.86 225.34L322.32 232.67C322.96 235.88 323.56 238.93 318.62 239.91L314.5 240.73L314.51 240.74Z" fill="black"/>
</g>
</g>
</g>
<defs>
<clipPath id="clip0_5_309">
<rect width="404.12" height="331.54" fill="white"/>
</clipPath>
</defs>
</svg>
